<?xml version="1.0" encoding="UTF-8"?>
<svg width="345px" height="228px" viewBox="0 0 345 228" version="1.1" xmlns="http://www.w3.org/2000/svg" xmlns:xlink="http://www.w3.org/1999/xlink">
    <!-- Generator: sketchtool 48.2 (47327) - http://www.bohemiancoding.com/sketch -->
    <title>337E03E3-E759-42D4-95CE-FAD54F34230D</title>
    <desc>Created with sketchtool.</desc>
    <defs>
        <polygon id="path-1" points="0 0.204614815 344.793852 0.204614815 344.793852 18.7407407 0 18.7407407"></polygon>
        <polygon id="path-3" points="0 226.592593 344.793852 226.592593 344.793852 0.425925926 0 0.425925926"></polygon>
    </defs>
    <g id="M-HomePage---1.0" stroke="none" stroke-width="1" fill="none" fill-rule="evenodd" transform="translate(-24.000000, -2093.000000)">
        <g id="Page-1" transform="translate(24.000000, 2093.000000)">
            <polygon id="Fill-1" fill="#D86F5D" points="17.244037 186.642444 327.548963 186.642444 327.548963 29.6631852 17.244037 29.6631852"></polygon>
            <g id="Group-37" transform="translate(0.000000, 0.425926)">
                <path d="M25.7627259,1.7037037 C21.4174296,1.7037037 17.8830963,5.23803704 17.8830963,9.58333333 L17.8830963,200.176667 C17.8830963,204.521963 21.4174296,208.056296 25.7627259,208.056296 L319.030615,208.056296 C323.374207,208.056296 326.910244,204.521963 326.910244,200.176667 L326.910244,9.58333333 C326.910244,5.23803704 323.374207,1.7037037 319.030615,1.7037037 L25.7627259,1.7037037 Z M319.030615,209.334074 L25.7627259,209.334074 C20.7129481,209.334074 16.6053185,205.226444 16.6053185,200.176667 L16.6053185,9.58333333 C16.6053185,4.53355556 20.7129481,0.425925926 25.7627259,0.425925926 L319.030615,0.425925926 C324.079541,0.425925926 328.188022,4.53355556 328.188022,9.58333333 L328.188022,200.176667 C328.188022,205.226444 324.079541,209.334074 319.030615,209.334074 Z" id="Fill-2" fill="#C16053"></path>
                <g id="Group-6" transform="translate(0.000000, 207.851852)">
                    <mask id="mask-2" fill="white">
                        <use xlink:href="#path-1"></use>
                    </mask>
                    <g id="Clip-5"></g>
                    <path d="M4.89814815,1.48239259 C2.90140741,1.48239259 1.27777778,3.10602222 1.27777778,5.10276296 L1.27777778,13.842763 C1.27777778,15.8395037 2.90140741,17.4631333 4.89814815,17.4631333 L339.895704,17.4631333 C341.892444,17.4631333 343.516074,15.8395037 343.516074,13.842763 L343.516074,5.10276296 C343.516074,3.10602222 341.892444,1.48239259 339.895704,1.48239259 L4.89814815,1.48239259 Z M339.895704,18.7409111 L4.89814815,18.7409111 C2.19607407,18.7409111 0,16.5439852 0,13.842763 L0,5.10276296 C0,2.40154074 2.19607407,0.204614815 4.89814815,0.204614815 L339.895704,0.204614815 C342.596926,0.204614815 344.793852,2.40154074 344.793852,5.10276296 L344.793852,13.842763 C344.793852,16.5439852 342.596926,18.7409111 339.895704,18.7409111 Z" id="Fill-4" fill="#C16053" mask="url(#mask-2)"></path>
                </g>
                <mask id="mask-4" fill="white">
                    <use xlink:href="#path-3"></use>
                </mask>
                <g id="Clip-8"></g>
                <path d="M136.890037,225.314815 L207.897852,225.314815 L207.897852,209.334074 L136.890037,209.334074 L136.890037,225.314815 Z M208.537593,226.592593 L136.252,226.592593 C135.898481,226.592593 135.612259,226.30637 135.612259,225.953704 L135.612259,208.695185 C135.612259,208.342519 135.898481,208.056296 136.252,208.056296 L208.537593,208.056296 C208.890259,208.056296 209.176481,208.342519 209.176481,208.695185 L209.176481,225.953704 C209.176481,226.30637 208.890259,226.592593 208.537593,226.592593 Z" id="Fill-7" fill="#C16053" mask="url(#mask-4)"></path>
                <path d="M172.395222,10.5765926 C169.051704,10.5765926 166.332593,13.2957037 166.332593,16.6383704 C166.332593,19.981037 169.051704,22.6992963 172.395222,22.6992963 C175.736185,22.6992963 178.455296,19.981037 178.455296,16.6383704 C178.455296,13.2957037 175.736185,10.5765926 172.395222,10.5765926 M172.395222,23.5511481 C168.582333,23.5511481 165.480741,20.4504074 165.480741,16.6383704 C165.480741,12.8263333 168.582333,9.72474074 172.395222,9.72474074 C176.207259,9.72474074 179.307148,12.8263333 179.307148,16.6383704 C179.307148,20.4504074 176.207259,23.5511481 172.395222,23.5511481" id="Fill-9" fill="#C16053" mask="url(#mask-4)"></path>
                <path d="M131.466381,93.6387926 C131.466381,95.9813852 129.549715,97.8980519 127.207122,97.8980519 L57.3203444,97.8980519 C54.9777519,97.8980519 53.0610852,95.9813852 53.0610852,93.6387926 L53.0610852,52.0471259 C53.0610852,49.7045333 54.9777519,47.7878667 57.3203444,47.7878667 L127.207122,47.7878667 C129.549715,47.7878667 131.466381,49.7045333 131.466381,52.0471259 L131.466381,93.6387926 Z" id="Fill-10" fill="#FF836F" mask="url(#mask-4)"></path>
                <path d="M57.3203444,48.2136222 C55.2069,48.2136222 53.4870111,49.9335111 53.4870111,52.0469556 L53.4870111,93.6386222 C53.4870111,95.7529185 55.2069,97.4719556 57.3203444,97.4719556 L127.207122,97.4719556 C129.320567,97.4719556 131.040456,95.7529185 131.040456,93.6386222 L131.040456,52.0469556 C131.040456,49.9335111 129.320567,48.2136222 127.207122,48.2136222 L57.3203444,48.2136222 Z M127.207122,98.3238074 L57.3203444,98.3238074 C54.7366778,98.3238074 52.6351593,96.221437 52.6351593,93.6386222 L52.6351593,52.0469556 C52.6351593,49.4632889 54.7366778,47.3617704 57.3203444,47.3617704 L127.207122,47.3617704 C129.790789,47.3617704 131.892307,49.4632889 131.892307,52.0469556 L131.892307,93.6386222 C131.892307,96.221437 129.790789,98.3238074 127.207122,98.3238074 Z" id="Fill-11" fill="#FFFFFF" mask="url(#mask-4)"></path>
                <path d="M131.466381,56.2396852 L53.0610852,56.2396852 C52.8251222,56.2396852 52.6351593,56.0488704 52.6351593,55.8137593 C52.6351593,55.5786481 52.8251222,55.3878333 53.0610852,55.3878333 L131.466381,55.3878333 C131.701493,55.3878333 131.892307,55.5786481 131.892307,55.8137593 C131.892307,56.0488704 131.701493,56.2396852 131.466381,56.2396852" id="Fill-12" fill="#FFFFFF" mask="url(#mask-4)"></path>
                <path d="M58.4533074,50.6885074 C57.8127148,50.6885074 57.2922333,51.208137 57.2922333,51.8478778 C57.2922333,52.4876185 57.8127148,53.0089519 58.4533074,53.0089519 C59.0930481,53.0089519 59.6126778,52.4876185 59.6126778,51.8478778 C59.6126778,51.208137 59.0930481,50.6885074 58.4533074,50.6885074 M58.4533074,53.8608037 C57.3433444,53.8608037 56.4403815,52.9578407 56.4403815,51.8478778 C56.4403815,50.7396185 57.3433444,49.8366556 58.4533074,49.8366556 C59.5624185,49.8366556 60.4645296,50.7396185 60.4645296,51.8478778 C60.4645296,52.9578407 59.5624185,53.8608037 58.4533074,53.8608037" id="Fill-13" fill="#FFFFFF" mask="url(#mask-4)"></path>
                <path d="M63.2100481,50.6885074 C62.5703074,50.6885074 62.0506778,51.208137 62.0506778,51.8478778 C62.0506778,52.4876185 62.5703074,53.0089519 63.2100481,53.0089519 C63.8506407,53.0089519 64.3711222,52.4876185 64.3711222,51.8478778 C64.3711222,51.208137 63.8506407,50.6885074 63.2100481,50.6885074 M63.2100481,53.8608037 C62.100937,53.8608037 61.1988259,52.9578407 61.1988259,51.8478778 C61.1988259,50.7396185 62.100937,49.8366556 63.2100481,49.8366556 C64.3200111,49.8366556 65.2229741,50.7396185 65.2229741,51.8478778 C65.2229741,52.9578407 64.3200111,53.8608037 63.2100481,53.8608037" id="Fill-14" fill="#FFFFFF" mask="url(#mask-4)"></path>
                <path d="M67.9684926,50.6885074 C67.3287519,50.6885074 66.8091222,51.208137 66.8091222,51.8478778 C66.8091222,52.4876185 67.3287519,53.0089519 67.9684926,53.0089519 C68.6090852,53.0089519 69.1295667,52.4876185 69.1295667,51.8478778 C69.1295667,51.208137 68.6090852,50.6885074 67.9684926,50.6885074 M67.9684926,53.8608037 C66.8593815,53.8608037 65.9572704,52.9578407 65.9572704,51.8478778 C65.9572704,50.7396185 66.8593815,49.8366556 67.9684926,49.8366556 C69.0784556,49.8366556 69.9814185,50.7396185 69.9814185,51.8478778 C69.9814185,52.9578407 69.0784556,53.8608037 67.9684926,53.8608037" id="Fill-15" fill="#FFFFFF" mask="url(#mask-4)"></path>
                <path d="M95.3857704,71.3359481 L93.9802148,71.3359481 C93.4188444,71.3359481 93.3046963,71.5650963 93.3046963,72.1443556 L93.3046963,73.4178741 L95.3857704,73.4178741 L95.1676963,75.4989481 L93.3046963,75.4989481 L93.3046963,82.7831333 L90.1818074,82.7831333 L90.1818074,75.4989481 L88.0998815,75.4989481 L88.0998815,73.4178741 L90.1818074,73.4178741 L90.1818074,71.0165037 C90.1818074,69.1748 91.1512148,68.214763 93.3345111,68.214763 L95.3857704,68.214763 L95.3857704,71.3359481 Z M92.2628815,63.0116519 C85.3662889,63.0116519 79.7747333,68.6006519 79.7747333,75.4989481 C79.7747333,82.3963926 85.3662889,87.9870963 92.2628815,87.9870963 C99.1594741,87.9870963 104.75103,82.3963926 104.75103,75.4989481 C104.75103,68.6006519 99.1594741,63.0116519 92.2628815,63.0116519 Z" id="Fill-16" fill="#FFFFFF" mask="url(#mask-4)"></path>
                <path d="M203.189922,123.589222 C203.189922,125.931815 201.273256,127.848481 198.930663,127.848481 L129.043885,127.848481 C126.701293,127.848481 124.784626,125.931815 124.784626,123.589222 L124.784626,81.5486296 C124.784626,79.206037 126.701293,77.2893704 129.043885,77.2893704 L198.930663,77.2893704 C201.273256,77.2893704 203.189922,79.206037 203.189922,81.5486296 L203.189922,123.589222 Z" id="Fill-17" fill="#FF836F" mask="url(#mask-4)"></path>
                <path d="M129.043885,77.715637 C126.930441,77.715637 125.210552,79.4355259 125.210552,81.5489704 L125.210552,123.589563 C125.210552,125.703007 126.930441,127.422896 129.043885,127.422896 L198.930663,127.422896 C201.044107,127.422896 202.763996,125.703007 202.763996,123.589563 L202.763996,81.5489704 C202.763996,79.4355259 201.044107,77.715637 198.930663,77.715637 L129.043885,77.715637 Z M198.930663,128.274748 L129.043885,128.274748 C126.460219,128.274748 124.3587,126.17323 124.3587,123.589563 L124.3587,81.5489704 C124.3587,78.9661556 126.460219,76.8637852 129.043885,76.8637852 L198.930663,76.8637852 C201.51433,76.8637852 203.615848,78.9661556 203.615848,81.5489704 L203.615848,123.589563 C203.615848,126.17323 201.51433,128.274748 198.930663,128.274748 Z" id="Fill-18" fill="#FFFFFF" mask="url(#mask-4)"></path>
                <path d="M203.189922,85.7417 L124.784626,85.7417 C124.549515,85.7417 124.3587,85.5508852 124.3587,85.3157741 C124.3587,85.080663 124.549515,84.8898481 124.784626,84.8898481 L203.189922,84.8898481 C203.425033,84.8898481 203.615848,85.080663 203.615848,85.3157741 C203.615848,85.5508852 203.425033,85.7417 203.189922,85.7417" id="Fill-19" fill="#FFFFFF" mask="url(#mask-4)"></path>
                <path d="M130.176933,80.1905222 C129.536341,80.1905222 129.015859,80.7101519 129.015859,81.3498926 C129.015859,81.9896333 129.536341,82.5109667 130.176933,82.5109667 C130.815822,82.5109667 131.336304,81.9896333 131.336304,81.3498926 C131.336304,80.7101519 130.815822,80.1905222 130.176933,80.1905222 M130.176933,83.3628185 C129.06697,83.3628185 128.164007,82.4598556 128.164007,81.3498926 C128.164007,80.2416333 129.06697,79.3386704 130.176933,79.3386704 C131.286044,79.3386704 132.188156,80.2416333 132.188156,81.3498926 C132.188156,82.4598556 131.286044,83.3628185 130.176933,83.3628185" id="Fill-20" fill="#FFFFFF" mask="url(#mask-4)"></path>
                <path d="M134.933674,80.1905222 C134.293081,80.1905222 133.774304,80.7101519 133.774304,81.3498926 C133.774304,81.9896333 134.293081,82.5109667 134.933674,82.5109667 C135.574267,82.5109667 136.094748,81.9896333 136.094748,81.3498926 C136.094748,80.7101519 135.574267,80.1905222 134.933674,80.1905222 M134.933674,83.3628185 C133.824563,83.3628185 132.922452,82.4598556 132.922452,81.3498926 C132.922452,80.2416333 133.824563,79.3386704 134.933674,79.3386704 C136.043637,79.3386704 136.9466,80.2416333 136.9466,81.3498926 C136.9466,82.4598556 136.043637,83.3628185 134.933674,83.3628185" id="Fill-21" fill="#FFFFFF" mask="url(#mask-4)"></path>
                <path d="M139.692033,80.1905222 C139.052293,80.1905222 138.532663,80.7101519 138.532663,81.3498926 C138.532663,81.9896333 139.052293,82.5109667 139.692033,82.5109667 C140.332626,82.5109667 140.853107,81.9896333 140.853107,81.3498926 C140.853107,80.7101519 140.332626,80.1905222 139.692033,80.1905222 M139.692033,83.3628185 C138.582922,83.3628185 137.680811,82.4598556 137.680811,81.3498926 C137.680811,80.2416333 138.582922,79.3386704 139.692033,79.3386704 C140.801996,79.3386704 141.704959,80.2416333 141.704959,81.3498926 C141.704959,82.4598556 140.801996,83.3628185 139.692033,83.3628185" id="Fill-22" fill="#FFFFFF" mask="url(#mask-4)"></path>
                <path d="M173.024059,106.878274 C172.884356,107.019681 172.709726,107.128719 172.503578,107.209644 C172.296578,107.288867 172.062319,107.328904 171.798244,107.328904 C171.650022,107.328904 171.500096,107.315274 171.351874,107.283756 C171.203652,107.253089 171.060541,107.211348 170.922541,107.155978 C170.784541,107.102311 170.655059,107.03757 170.534948,106.962607 C170.412281,106.885941 170.307504,106.801607 170.215504,106.708756 L170.500022,106.2462 C170.524726,106.212126 170.557096,106.183163 170.594578,106.160163 C170.634615,106.137163 170.674652,106.126089 170.7198,106.126089 C170.777726,106.126089 170.839911,106.148237 170.904652,106.191681 C170.969393,106.234274 171.044356,106.28283 171.128689,106.333089 C171.213874,106.385904 171.311837,106.434459 171.42343,106.477052 C171.535022,106.520496 171.667911,106.541793 171.824652,106.541793 C172.052096,106.541793 172.22843,106.48983 172.353652,106.385904 C172.478022,106.28283 172.540207,106.126941 172.540207,105.920793 C172.540207,105.801533 172.509541,105.705274 172.446504,105.632015 C172.38517,105.558756 172.305096,105.495719 172.20543,105.445459 C172.105763,105.396904 171.990763,105.353459 171.862985,105.318533 C171.736059,105.281904 171.604874,105.241867 171.470281,105.199274 C171.335689,105.156681 171.203652,105.103867 171.077578,105.043385 C170.948948,104.982052 170.836504,104.90283 170.734281,104.802311 C170.634615,104.701793 170.555393,104.579978 170.493207,104.431756 C170.431874,104.284385 170.400356,104.100385 170.400356,103.882311 C170.400356,103.70683 170.435281,103.536459 170.50343,103.3712 C170.574985,103.206793 170.674652,103.061126 170.810948,102.932496 C170.944689,102.80557 171.1108,102.701644 171.306726,102.624126 C171.5018,102.545756 171.726689,102.50657 171.980541,102.50657 C172.265059,102.50657 172.528281,102.550867 172.769356,102.637756 C173.01043,102.725496 173.215726,102.848163 173.383541,103.004052 L173.142467,103.462348 C173.112652,103.512607 173.080281,103.549237 173.048763,103.571385 C173.017244,103.595237 172.977207,103.605459 172.9278,103.605459 C172.879244,103.605459 172.828133,103.589274 172.772763,103.556052 C172.718244,103.52283 172.652652,103.4862 172.580244,103.446163 C172.506985,103.40783 172.4218,103.3712 172.325541,103.337978 C172.230133,103.303904 172.119393,103.286015 171.990763,103.286015 C171.76417,103.286015 171.596356,103.337978 171.483059,103.438496 C171.372319,103.539015 171.313541,103.6702 171.313541,103.833756 C171.313541,103.937681 171.345059,104.022867 171.407244,104.091867 C171.468578,104.160015 171.550356,104.219644 171.651726,104.269052 C171.751393,104.319311 171.866393,104.362756 171.99417,104.402793 C172.121948,104.441126 172.253985,104.483719 172.388578,104.53057 C172.521467,104.577422 172.652652,104.631941 172.781281,104.694978 C172.909059,104.758867 173.022356,104.837237 173.123726,104.932644 C173.225096,105.0272 173.30517,105.144756 173.368207,105.281904 C173.430393,105.419052 173.460207,105.586867 173.460207,105.784496 C173.460207,105.999163 173.423578,106.2002 173.348615,106.388459 C173.273652,106.575015 173.165467,106.73857 173.024059,106.878274 Z M168.487096,107.277793 L167.60543,107.277793 L166.640281,104.191533 C166.624948,104.147237 166.610467,104.099533 166.595133,104.048422 C166.578948,103.995607 166.565319,103.941089 166.551689,103.882311 C166.538911,103.941089 166.525281,103.995607 166.5108,104.048422 C166.495467,104.099533 166.47843,104.147237 166.465652,104.191533 L165.488578,107.277793 L164.603504,107.277793 L163.144281,102.559385 L163.962911,102.559385 C164.0498,102.559385 164.119652,102.578126 164.175874,102.617311 C164.234652,102.656496 164.271281,102.707607 164.28917,102.774052 L165.020911,105.432681 C165.037948,105.507644 165.055837,105.586867 165.074578,105.672052 C165.092467,105.758089 165.111207,105.848385 165.127393,105.943793 C165.147837,105.846681 165.16743,105.755533 165.189578,105.6712 C165.210874,105.586015 165.233874,105.507644 165.261133,105.432681 L166.112985,102.774052 C166.130874,102.718681 166.167504,102.670126 166.226281,102.624978 C166.282504,102.580681 166.352356,102.559385 166.434133,102.559385 L166.722059,102.559385 C166.806393,102.559385 166.874541,102.578126 166.928207,102.619015 C166.981022,102.659052 167.019356,102.710163 167.045763,102.774052 L167.895059,105.432681 C167.921467,105.502533 167.944467,105.577496 167.966615,105.659274 C167.987911,105.7402 168.009207,105.827941 168.029652,105.918237 C168.045837,105.827941 168.062874,105.7402 168.079059,105.659274 C168.096096,105.577496 168.112281,105.502533 168.129319,105.432681 L168.861059,102.774052 C168.876393,102.716126 168.913022,102.66757 168.972652,102.624126 C169.029726,102.57983 169.101281,102.559385 169.183911,102.559385 L169.95143,102.559385 L168.487096,107.277793 Z M162.712393,103.322644 L160.689244,103.322644 L160.689244,104.536533 L162.262615,104.536533 L162.262615,105.273385 L160.689244,105.273385 L160.689244,106.51283 L162.712393,106.51283 L162.712393,107.277793 L159.707059,107.277793 L159.707059,102.559385 L162.712393,102.559385 L162.712393,103.322644 Z M158.556207,107.277793 L158.051911,107.277793 C157.975244,107.277793 157.912207,107.264163 157.858541,107.239459 C157.80743,107.214756 157.755467,107.172163 157.707763,107.111681 L155.356652,104.119126 C155.363467,104.195793 155.366022,104.269904 155.371133,104.344015 C155.372837,104.417274 155.376244,104.485422 155.376244,104.549311 L155.376244,107.277793 L154.51417,107.277793 L154.51417,102.559385 L155.026985,102.559385 C155.068726,102.559385 155.103652,102.560237 155.131763,102.562793 C155.163281,102.5662 155.188837,102.573867 155.213541,102.585793 C155.236541,102.59857 155.259541,102.613904 155.281689,102.633496 C155.301281,102.652237 155.326837,102.678644 155.353244,102.711015 L157.720541,105.7172 C157.710319,105.633719 157.706059,105.554496 157.700948,105.476126 C157.695837,105.400311 157.694133,105.327904 157.694133,105.258904 L157.694133,102.559385 L158.556207,102.559385 L158.556207,107.277793 Z M163.986763,92.5134963 C157.09017,92.5134963 151.497763,98.1050519 151.497763,105.001644 C151.497763,111.898237 157.09017,117.489793 163.986763,117.489793 C170.882504,117.489793 176.474911,111.898237 176.474911,105.001644 C176.474911,98.1050519 170.882504,92.5134963 163.986763,92.5134963 Z" id="Fill-23" fill="#FFFFFF" mask="url(#mask-4)"></path>
                <path d="M199.924007,167.665059 C197.581415,167.665059 195.664748,165.748393 195.664748,163.4058 L195.664748,103.759133 C195.664748,101.416541 197.581415,99.4998741 199.924007,99.4998741 L287.471378,99.4998741 C289.81397,99.4998741 291.730637,101.416541 291.730637,103.759133 L291.730637,163.4058 C291.730637,165.748393 289.81397,167.665059 287.471378,167.665059 L199.924007,167.665059 Z" id="Fill-24" fill="#FF836F" mask="url(#mask-4)"></path>
                <path d="M199.924007,99.9262259 C197.810563,99.9262259 196.090674,101.646115 196.090674,103.759559 L196.090674,163.406226 C196.090674,165.51967 197.810563,167.239559 199.924007,167.239559 L287.471378,167.239559 C289.585674,167.239559 291.304711,165.51967 291.304711,163.406226 L291.304711,103.759559 C291.304711,101.646115 289.585674,99.9262259 287.471378,99.9262259 L199.924007,99.9262259 Z M287.471378,168.091411 L199.924007,168.091411 C197.341193,168.091411 195.238822,165.989041 195.238822,163.406226 L195.238822,103.759559 C195.238822,101.176744 197.341193,99.0743741 199.924007,99.0743741 L287.471378,99.0743741 C290.054193,99.0743741 292.156563,101.176744 292.156563,103.759559 L292.156563,163.406226 C292.156563,165.989041 290.054193,168.091411 287.471378,168.091411 Z" id="Fill-25" fill="#FFFFFF" mask="url(#mask-4)"></path>
                <path d="M279.602056,157.139237 L208.028611,157.139237 C207.792648,157.139237 207.602685,156.948422 207.602685,156.713311 L207.602685,110.451793 C207.602685,110.216681 207.792648,110.025867 208.028611,110.025867 C208.26287,110.025867 208.454537,110.216681 208.454537,110.451793 L208.454537,156.287385 L279.602056,156.287385 C279.837167,156.287385 280.027981,156.4782 280.027981,156.713311 C280.027981,156.948422 279.837167,157.139237 279.602056,157.139237" id="Fill-26" fill="#FFFFFF" mask="url(#mask-4)"></path>
                <path d="M209.397537,154.978004 C209.2885,154.978004 209.179463,154.936263 209.095981,154.853633 C208.92987,154.68667 208.92987,154.417485 209.095981,154.250522 L230.411019,132.935485 C230.536241,132.810263 230.727907,132.776189 230.888907,132.848596 L234.860241,134.654522 L242.286685,123.419448 C242.415315,123.224374 242.677685,123.169856 242.872759,123.296781 L252.036981,129.215448 L257.676241,125.831041 C257.8415,125.731374 258.057019,125.756078 258.19587,125.89493 L260.742907,128.44367 L263.691167,127.403559 L274.564204,112.452707 C274.702204,112.261041 274.969685,112.221856 275.157944,112.359004 C275.349611,112.497004 275.391352,112.762781 275.253352,112.953596 L264.301944,128.011781 C264.251685,128.081633 264.180981,128.133596 264.099204,128.162559 L260.773574,129.335559 C260.619389,129.389226 260.447315,129.350893 260.330611,129.235041 L257.828722,126.733152 L252.247389,130.081781 C252.107685,130.165263 251.933907,130.162707 251.796759,130.074967 L242.764574,124.240633 L235.369648,135.427152 C235.254648,135.602633 235.028907,135.667374 234.838093,135.580485 L230.804574,133.746448 L209.699093,154.853633 C209.615611,154.936263 209.506574,154.978004 209.397537,154.978004" id="Fill-27" fill="#FFFFFF" mask="url(#mask-4)"></path>
                <path d="M265.090674,117.555556 C264.980785,117.555556 264.8726,117.513815 264.789119,117.431185 C263.190193,115.830556 261.062267,114.948037 258.798044,114.948037 C256.533822,114.948037 254.405896,115.830556 252.805267,117.431185 C252.639156,117.597296 252.369119,117.597296 252.203007,117.431185 C252.036896,117.264222 252.036896,116.995037 252.203007,116.828074 C253.964637,115.066444 256.30723,114.096185 258.798044,114.096185 C261.289711,114.096185 263.631452,115.066444 265.39223,116.828074 C265.558341,116.995037 265.558341,117.264222 265.39223,117.431185 C265.308748,117.513815 265.199711,117.555556 265.090674,117.555556" id="Fill-28" fill="#FFFFFF" mask="url(#mask-4)"></path>
                <path d="M263.203907,119.241796 C263.094019,119.241796 262.985833,119.200056 262.902352,119.117426 C261.806019,118.020241 260.3485,117.416278 258.79813,117.416278 C257.247759,117.416278 255.790241,118.020241 254.693907,119.117426 C254.526944,119.283537 254.257759,119.283537 254.091648,119.117426 C253.924685,118.950463 253.924685,118.681278 254.091648,118.514315 C255.348981,117.257833 257.019463,116.564426 258.79813,116.564426 C260.576796,116.564426 262.24813,117.257833 263.505463,118.514315 C263.671574,118.681278 263.671574,118.950463 263.505463,119.117426 C263.421981,119.200056 263.312944,119.241796 263.203907,119.241796" id="Fill-29" fill="#FFFFFF" mask="url(#mask-4)"></path>
                <path d="M261.313904,121.128478 C261.205719,121.128478 261.09583,121.086737 261.012348,121.004107 C259.829978,119.819181 257.766793,119.819181 256.580163,121.004107 C256.414052,121.170219 256.144867,121.170219 255.977904,121.004107 C255.811793,120.837144 255.811793,120.567959 255.977904,120.400996 C256.731793,119.648811 257.73357,119.233107 258.797533,119.233107 C259.862348,119.233107 260.863274,119.648811 261.615459,120.400996 C261.78157,120.567959 261.78157,120.837144 261.615459,121.004107 C261.531978,121.086737 261.422941,121.128478 261.313904,121.128478" id="Fill-30" fill="#FFFFFF" mask="url(#mask-4)"></path>
                <path d="M259.788152,123.096767 C259.679115,123.096767 259.570078,123.055026 259.486596,122.972396 C259.173967,122.659767 258.62793,122.658063 258.314448,122.972396 C258.147485,123.138507 257.8783,123.138507 257.711337,122.972396 C257.545226,122.806285 257.545226,122.536248 257.711337,122.369285 C258.345967,121.733804 259.453374,121.733804 260.089707,122.369285 C260.255819,122.535396 260.255819,122.805433 260.089707,122.972396 C260.006226,123.055026 259.896337,123.096767 259.788152,123.096767" id="Fill-31" fill="#FFFFFF" mask="url(#mask-4)"></path>
                <path d="M232.931563,119.666019 C232.076304,119.666019 231.3846,118.974315 231.3846,118.119907 C231.3846,117.2655 232.076304,116.572944 232.931563,116.572944 C233.785119,116.572944 234.476822,117.2655 234.476822,118.119907 C234.476822,118.974315 233.785119,119.666019 232.931563,119.666019 M232.931563,113.996093 C230.767007,113.996093 228.806896,115.750056 228.806896,117.913759 C228.806896,120.077463 230.595785,122.662833 232.931563,126.366685 C235.265637,122.662833 237.054526,120.077463 237.054526,117.913759 C237.054526,115.750056 235.096119,113.996093 232.931563,113.996093" id="Fill-32" fill="#FFFFFF" mask="url(#mask-4)"></path>
                <path d="M225.118463,131.2817 C225.009426,131.2817 224.900389,131.239959 224.816907,131.15733 C223.217981,129.5567 221.090056,128.674181 218.825833,128.674181 C216.563315,128.674181 214.435389,129.5567 212.834759,131.15733 C212.668648,131.323441 212.398611,131.323441 212.2325,131.15733 C212.066389,130.990367 212.066389,130.721181 212.2325,130.554219 C213.993278,128.793441 216.335019,127.82233 218.825833,127.82233 C221.3175,127.82233 223.659241,128.793441 225.420019,130.554219 C225.58613,130.721181 225.58613,130.990367 225.420019,131.15733 C225.336537,131.239959 225.226648,131.2817 225.118463,131.2817" id="Fill-33" fill="#FFFFFF" mask="url(#mask-4)"></path>
                <path d="M223.231781,132.968707 C223.122744,132.968707 223.013707,132.926967 222.930226,132.844337 C221.833893,131.747152 220.377226,131.143189 218.826004,131.143189 C217.276485,131.143189 215.819819,131.747152 214.723485,132.844337 C214.556522,133.010448 214.287337,133.010448 214.121226,132.844337 C213.954263,132.677374 213.954263,132.408189 214.121226,132.241226 C215.377707,130.984744 217.049041,130.291337 218.826004,130.291337 C220.60467,130.291337 222.275152,130.984744 223.533337,132.241226 C223.699448,132.408189 223.699448,132.677374 223.533337,132.844337 C223.449856,132.926967 223.340819,132.968707 223.231781,132.968707" id="Fill-34" fill="#FFFFFF" mask="url(#mask-4)"></path>
                <path d="M221.343396,134.854622 C221.234359,134.854622 221.125322,134.812881 221.041841,134.730252 C219.85947,133.545326 217.796285,133.546178 216.609656,134.730252 C216.443544,134.896363 216.174359,134.896363 216.007396,134.730252 C215.841285,134.563289 215.841285,134.294104 216.007396,134.127141 C216.760433,133.374956 217.761359,132.959252 218.826174,132.959252 C219.890989,132.959252 220.892767,133.374956 221.644952,134.127141 C221.811063,134.294104 221.811063,134.563289 221.644952,134.730252 C221.56147,134.812881 221.453285,134.854622 221.343396,134.854622" id="Fill-35" fill="#FFFFFF" mask="url(#mask-4)"></path>
                <path d="M219.816026,136.823678 C219.706137,136.823678 219.597952,136.781937 219.51447,136.699307 C219.19247,136.376456 218.664322,136.376456 218.342322,136.699307 C218.175359,136.865419 217.906174,136.865419 217.739211,136.699307 C217.5731,136.532344 217.5731,136.262307 217.739211,136.096196 C218.395137,135.441122 219.461656,135.441122 220.117581,136.096196 C220.283693,136.262307 220.283693,136.532344 220.117581,136.699307 C220.0341,136.781937 219.925915,136.823678 219.816026,136.823678" id="Fill-36" fill="#FFFFFF" mask="url(#mask-4)"></path>
            </g>
        </g>
    </g>
</svg>