<?xml version="1.0" encoding="UTF-8"?>
<svg width="280px" height="133px" viewBox="0 0 280 133" version="1.1" xmlns="http://www.w3.org/2000/svg" xmlns:xlink="http://www.w3.org/1999/xlink">
    <!-- Generator: sketchtool 48.2 (47327) - http://www.bohemiancoding.com/sketch -->
    <title>E8205743-0320-4C26-8B3A-9C241177DB46</title>
    <desc>Created with sketchtool.</desc>
    <defs>
        <polygon id="path-1" points="0 132.402202 279.738899 132.402202 279.738899 0 0 0"></polygon>
    </defs>
    <g id="Footer-/-ipad" stroke="none" stroke-width="1" fill="none" fill-rule="evenodd" transform="translate(-244.000000, -475.000000)">
        <g id="Page-1" transform="translate(244.000000, 475.000000)">
            <path d="M261.873009,132.402202 L49.2321563,132.402202 C48.6830977,132.402202 48.2374849,131.95659 48.2374849,131.407531 C48.2374849,130.858472 48.6830977,130.41286 49.2321563,130.41286 L261.873009,130.41286 C262.422067,130.41286 262.86768,130.858472 262.86768,131.407531 C262.86768,131.95659 262.422067,132.402202 261.873009,132.402202" id="Fill-1" fill="#F98470"></path>
            <path d="M50.905492,132.402202 C37.1009449,132.402202 24.3447815,128.211155 14.9859183,120.600924 C5.32218828,112.742522 0.000198934281,101.727531 0.000198934281,89.5845826 C0.000198934281,64.4875311 22.2987425,44.0147069 49.9108206,43.5337833 L49.9118153,41.2773712 C49.9118153,18.5173002 70.3727034,0 95.5219751,0 C111.692348,0 126.801904,7.86238011 134.954231,20.518579 C135.251638,20.9806039 135.118352,21.5958082 134.656327,21.8937123 C134.194799,22.191119 133.579098,22.057833 133.281691,21.5958082 C125.491922,9.50209591 111.022934,1.98934281 95.5219751,1.98934281 C71.4693286,1.98934281 51.9011581,19.6144227 51.9011581,41.2778686 L51.9001634,44.52 C51.9001634,45.0685613 51.4545506,45.5141741 50.905492,45.5141741 C23.9329876,45.5141741 1.98954174,65.2842629 1.98954174,89.5845826 C1.98954174,101.1173 7.05042984,111.584227 16.2411936,119.057691 C25.2459538,126.380462 37.5570018,130.41286 50.905492,130.41286 C51.4545506,130.41286 51.9001634,130.858472 51.9001634,131.407531 C51.9001634,131.95659 51.4545506,132.402202 50.905492,132.402202" id="Fill-3" fill="#F98470"></path>
            <path d="M178.464341,23.6590551 C178.053542,23.6590551 177.669101,23.4024298 177.525371,22.9926252 C177.322458,22.4157158 172.359048,8.85486323 155.896739,8.85486323 C139.42498,8.85486323 135.478124,21.5791972 135.439829,21.7080071 C135.284163,22.2346856 134.730629,22.5350764 134.204448,22.380405 C133.677769,22.2247389 133.376384,21.6717016 133.53205,21.1445258 C133.574323,21.0017904 137.954856,6.86552043 155.896739,6.86552043 C173.800824,6.86552043 179.349599,22.1814707 179.403808,22.3366394 C179.584341,22.8553606 179.310309,23.4218259 178.791588,23.6033535 C178.683169,23.641151 178.573258,23.6590551 178.464341,23.6590551" id="Fill-5" fill="#F98470"></path>
            <path d="M214.168568,40.5378828 C213.715993,40.5383801 213.307183,40.227048 213.200753,39.7675098 C213.192796,39.7356803 212.373684,36.3503162 209.521961,32.6526252 C205.713861,27.714579 200.272014,24.5783801 193.346117,23.3320568 C176.899226,20.3659467 170.476632,31.2073677 170.211055,31.6703872 C169.939012,32.1468348 169.332263,32.3124476 168.855318,32.0409023 C168.37887,31.769357 168.211268,31.1640995 168.481819,30.6871545 C168.552938,30.5613286 175.814536,18.1542948 193.698728,21.3740462 C202.997911,23.0475808 208.326366,27.8140462 211.158693,31.5177052 C214.241179,35.548611 215.10356,39.1667282 215.138373,39.318913 C215.26221,39.8540462 214.928995,40.3881847 214.393861,40.5120213 C214.318266,40.5294281 214.242671,40.5378828 214.168568,40.5378828" id="Fill-7" fill="#F98470"></path>
            <path d="M261.947758,132.358487 C261.3987,132.358487 260.953087,131.912874 260.953087,131.363815 C260.953087,130.814757 261.3987,130.369144 261.947758,130.369144 C270.66108,130.369144 277.749108,123.280618 277.749108,114.568291 C277.749108,105.85497 270.66108,98.7659467 261.947758,98.7659467 C261.3987,98.7659467 260.953087,98.3208313 260.953087,97.7712753 C260.953087,97.2222167 261.3987,96.7766039 261.947758,96.7766039 C271.757705,96.7766039 279.738451,104.757847 279.738451,114.568291 C279.738451,124.377741 271.757705,132.358487 261.947758,132.358487" id="Fill-9" fill="#F98470"></path>
            <path d="M236.947936,63.5182735 C236.398877,63.5182735 235.953265,63.0726607 235.953265,62.5236021 C235.953265,50.4005471 226.0906,40.5378828 213.968043,40.5378828 C213.418487,40.5378828 212.973371,40.09227 212.973371,39.5432114 C212.973371,38.9936554 213.418487,38.54854 213.968043,38.54854 C227.187723,38.54854 237.942607,49.3039218 237.942607,62.5236021 C237.942607,63.0726607 237.496995,63.5182735 236.947936,63.5182735" id="Fill-11" fill="#F98470"></path>
            <path d="M261.347972,98.5600497 C261.202252,98.5600497 261.054544,98.5287176 260.91529,98.4605826 C260.420938,98.2213641 260.214046,97.6265506 260.453265,97.1321989 C262.077563,93.7761776 262.901151,90.1694991 262.901151,86.4131226 C262.901151,72.0853783 249.557634,64.3537975 237.002394,64.3537975 C231.27806,64.3537975 225.701435,66.3610444 221.300014,70.0055204 C220.876284,70.3561421 220.249641,70.2969591 219.899517,69.8737265 C219.548895,69.4509911 219.608078,68.8238508 220.031311,68.4737265 C224.788327,64.533833 230.815538,62.3644547 237.002394,62.3644547 C250.521471,62.3644547 264.890494,70.7928028 264.890494,86.4131226 C264.890494,90.4718792 263.999766,94.3699964 262.243673,97.9985577 C262.072092,98.3536554 261.716995,98.5600497 261.347972,98.5600497" id="Fill-13" fill="#F98470"></path>
            <path d="M198.355332,64.1385009 C194.992348,64.1385009 191.481158,62.9026217 187.873485,60.4418046 C187.6467,60.2871332 187.588014,59.9777904 187.742686,59.7510053 C187.897357,59.5237229 188.2067,59.466032 188.433982,59.620206 C193.082082,62.7907211 197.52876,63.8266714 201.650679,62.701698 C208.925705,60.7143446 212.806913,52.603794 212.845208,52.5222309 C212.961087,52.2740604 213.256007,52.1661385 213.506664,52.2830124 C213.755332,52.399389 213.862259,52.6958011 213.745385,52.9444689 C213.580767,53.2950906 209.626451,61.5543446 201.912277,63.661556 C200.748014,63.9798508 199.560874,64.1385009 198.355332,64.1385009" id="Fill-15" fill="#F98470"></path>
            <path d="M254.150679,111.119716 C253.875652,111.119716 253.653343,110.897407 253.653343,110.62238 C253.653343,102.749059 257.940874,98.2954174 258.123396,98.1094139 C258.315865,97.9124689 258.630679,97.9119716 258.825634,98.1029485 C259.022082,98.2954174 259.025066,98.6102309 258.833094,98.8061812 C258.791318,98.848952 254.648014,103.174281 254.648014,110.62238 C254.648014,110.897407 254.425705,111.119716 254.150679,111.119716" id="Fill-17" fill="#F98470"></path>
            <path d="M176.862075,55.4628277 C176.673584,55.4628277 176.493052,55.3549059 176.409499,55.172881 C176.301577,54.9371439 173.797492,49.3724547 176.12751,45.7404121 C177.376817,43.7938401 179.749606,42.8071261 183.179233,42.8071261 C190.688007,42.8071261 191.629464,40.6089023 192.460014,38.6687957 C192.895183,37.6527389 193.345769,36.6018686 194.643815,36.0458472 C196.10648,35.4182096 197.894401,35.5624369 199.678842,36.4466998 C202.059588,37.6273748 203.972838,39.8902522 204.553229,42.2123126 C204.619872,42.4788845 204.457741,42.7489378 204.191169,42.8150835 C203.925094,42.8822238 203.654544,42.7200924 203.588398,42.4535204 C203.075645,40.402508 201.367297,38.3947638 199.23671,37.3379254 C197.718345,36.5839645 196.226835,36.4501812 195.035218,36.9599503 C194.103211,37.3598082 193.781933,38.1097904 193.374615,39.0606963 C192.469961,41.172881 191.343496,43.8017975 183.179233,43.8017975 C180.110174,43.8017975 178.019375,44.6348348 176.965023,46.2775346 C174.924455,49.4570018 177.289286,54.7058828 177.313655,54.758103 C177.42854,55.0082629 177.318629,55.3031829 177.068966,55.4175702 C177.001329,55.448405 176.931204,55.4628277 176.862075,55.4628277" id="Fill-19" fill="#F98470"></path>
            <path d="M243.445329,93.4769307 C243.227993,93.4769307 243.028064,93.3332007 242.966892,93.1133783 C242.949982,93.052206 242.559574,91.5979964 243.524902,90.1049947 C244.473819,88.637357 246.352256,87.6814778 249.107496,87.2642131 C255.26302,86.330714 255.247602,86.1651012 255.000924,83.4043908 L254.96611,83.0030409 C254.942735,82.7300036 255.145151,82.4887957 255.419183,82.465421 C255.688739,82.4375702 255.933428,82.6454565 255.956803,82.9189911 L255.992114,83.3153677 C256.293499,86.6892931 255.899112,87.2398437 249.256696,88.2469485 C246.829698,88.6154742 245.13627,89.4445329 244.359929,90.6451012 C243.635311,91.7660959 243.921776,92.8353677 243.92476,92.8458117 C243.998366,93.1103943 243.844192,93.3844263 243.579609,93.4585293 C243.534849,93.4709627 243.490089,93.4769307 243.445329,93.4769307" id="Fill-21" fill="#F98470"></path>
            <path d="M226.906032,89.2553961 C226.744398,89.2553961 226.585748,89.1768171 226.490259,89.0320924 C222.099282,82.3777407 227.00351,78.4184512 227.053741,78.3791616 C227.270082,78.2095702 227.582409,78.247865 227.752,78.4637087 C227.921094,78.6795524 227.883794,78.9913819 227.668448,79.1609734 C227.49438,79.2992327 223.446565,82.6129805 227.32081,88.4840284 C227.472,88.7133002 227.408838,89.0216483 227.179567,89.1733357 C227.09502,89.22854 227.000028,89.2553961 226.906032,89.2553961" id="Fill-23" fill="#F98470"></path>
            <path d="M222.783567,85.381151 C221.07671,85.381151 219.38179,85.0394813 217.781861,84.3655915 C211.229961,81.6023943 208.143496,74.0220036 210.902217,67.467119 C211.009144,67.2139751 211.303567,67.0966039 211.553726,67.2015417 C211.807368,67.3084689 211.925734,67.5999076 211.819304,67.8530515 C209.272945,73.902643 212.121187,80.8986643 218.168789,83.4485044 C220.378948,84.3810089 222.787048,84.6247034 225.129996,84.1517371 C225.399055,84.0965329 225.661151,84.2725897 225.715858,84.5416483 C225.76957,84.8107069 225.595005,85.0728028 225.325947,85.1270124 C224.482465,85.2966039 223.631524,85.381151 222.783567,85.381151" id="Fill-25" fill="#F98470"></path>
            <path d="M211.669755,78.4752966 C211.54194,78.4752966 211.414124,78.4260604 211.317144,78.3285826 C208.024782,75.0198082 204.38329,77.3876234 204.346984,77.4124902 C204.117215,77.564675 203.809364,77.5030053 203.657179,77.2752256 C203.504497,77.0464512 203.566167,76.7376057 203.794444,76.5849236 C203.837712,76.5565755 208.159062,73.7451368 212.022366,77.6273393 C212.216327,77.8222948 212.215332,78.136611 212.020377,78.3305719 C211.923396,78.4270551 211.796575,78.4752966 211.669755,78.4752966" id="Fill-27" fill="#F98470"></path>
            <path d="M169.886295,124.708071 L160.57816,124.708071 C163.391091,124.708071 165.69276,122.406899 165.69276,119.593968 L165.69276,45.4133641 C165.69276,42.6009307 163.391091,40.2987638 160.57816,40.2987638 L44.6606465,40.2987638 C41.8472185,40.2987638 39.5460462,42.6009307 39.5460462,45.4133641 L39.5460462,119.593968 C39.5460462,122.406899 41.8472185,124.708071 44.6606465,124.708071 L35.3535062,124.708071 C33.9470409,124.708071 32.796206,125.858906 32.796206,127.265869 L32.796206,129.166686 C32.796206,130.573151 33.9470409,131.723986 35.3535062,131.723986 L87.9263659,131.723986 L117.312938,131.723986 L169.886295,131.723986 C171.29276,131.723986 172.444092,130.573151 172.444092,129.166686 L172.444092,127.265869 C172.444092,125.858906 171.29276,124.708071 169.886295,124.708071" id="Fill-29" fill="#62443C"></path>
            <mask id="mask-2" fill="white">
                <use xlink:href="#path-1"></use>
            </mask>
            <g id="Clip-32"></g>
            <polygon id="Fill-31" fill="#F98470" mask="url(#mask-2)" points="39.5456483 115.567389 165.69286 115.567389 165.69286 51.7522558 39.5456483 51.7522558"></polygon>
            <path d="M91.9670195,53.8746359 L91.9670195,57.6121137 L91.5238934,57.6121137 L91.5238934,54.8658259 C91.5238934,54.8295204 91.5248881,54.7902309 91.5278721,54.7484547 C91.5303588,54.7066785 91.5333428,54.664405 91.5368242,54.6206394 L90.253698,56.9571226 C90.2139112,57.0352043 90.1527389,57.0749911 90.0711758,57.0749911 L89.9980675,57.0749911 C89.9165044,57.0749911 89.8553321,57.0352043 89.8155453,56.9571226 L88.5065577,54.6101954 C88.5170018,54.7022025 88.5219751,54.7877442 88.5219751,54.8658259 L88.5219751,57.6121137 L88.078849,57.6121137 L88.078849,53.8746359 L88.4518508,53.8746359 C88.496611,53.8746359 88.5314245,53.8791119 88.5562913,53.8875666 C88.5801634,53.8965187 88.6035382,53.9208881 88.6264156,53.9611723 L89.9170018,56.2613499 C89.9378899,56.3026288 89.9582806,56.3463943 89.9786714,56.3916519 C89.9985648,56.4364121 90.0174636,56.4826643 90.0348703,56.5299112 C90.0517798,56.4826643 90.0701812,56.4359147 90.0895773,56.3901599 C90.108476,56.344405 90.1293641,56.3001421 90.1522416,56.2583659 L91.4194529,53.9611723 C91.440341,53.9208881 91.4632185,53.8965187 91.4885826,53.8875666 C91.5134494,53.8791119 91.5487602,53.8746359 91.5940178,53.8746359 L91.9670195,53.8746359 Z" id="Fill-34" fill="#FFFFFF" mask="url(#mask-2)"></path>
            <path d="M94.2960924,56.4225364 C94.082238,56.4299964 93.9002131,56.4469059 93.7495204,56.473762 C93.599325,56.5006181 93.4769805,56.535929 93.3819893,56.5791972 C93.2874956,56.6224654 93.2183659,56.6741883 93.1760924,56.7328739 C93.1333215,56.7920568 93.1119361,56.8582025 93.1119361,56.9313108 C93.1119361,57.0009378 93.1233748,57.0606181 93.1457549,57.1113464 C93.1686323,57.1615773 93.1994671,57.2028561 93.2387567,57.2351829 C93.2775488,57.2670124 93.3238011,57.2908845 93.3765187,57.3053073 C93.4297336,57.3207247 93.4869272,57.3276874 93.5476021,57.3276874 C93.6291652,57.3276874 93.7042629,57.31973 93.7719005,57.3033179 C93.8400355,57.2864085 93.9036945,57.2620391 93.9638721,57.2312043 C94.0235524,57.1998721 94.080746,57.1625719 94.1359503,57.1188064 C94.1906572,57.0755382 94.2438721,57.026302 94.2960924,56.9706004 L94.2960924,56.4225364 Z M92.7966252,55.3428206 C92.9423446,55.2020746 93.1,55.0971368 93.2685968,55.0275098 C93.4371936,54.9583801 93.6241918,54.9230693 93.8295915,54.9230693 C93.9768028,54.9230693 94.1085968,54.9474387 94.222984,54.9961776 C94.3378686,55.0449165 94.4343517,55.1125542 94.5124334,55.1995879 C94.5910124,55.2866217 94.649698,55.3920568 94.6899822,55.5153961 C94.7297691,55.6387353 94.7501599,55.7740107 94.7501599,55.9222167 L94.7501599,57.6121634 L94.5437655,57.6121634 C94.498508,57.6121634 94.4636945,57.6047034 94.4398224,57.5897833 C94.4149556,57.5748632 94.3960568,57.5460178 94.3821314,57.5022522 L94.3299112,57.2520924 C94.2602842,57.3162487 94.1926465,57.3734423 94.1265009,57.4231758 C94.0603552,57.4724121 93.9912256,57.5141883 93.9181172,57.5480071 C93.8450089,57.5818259 93.7674245,57.6081847 93.6848668,57.6265861 C93.6018117,57.6444902 93.510302,57.6539396 93.4093428,57.6539396 C93.3068917,57.6539396 93.2104085,57.6390195 93.1198934,57.6106714 C93.0293783,57.5818259 92.9507993,57.5390551 92.8841563,57.4818615 C92.817016,57.4241705 92.7638011,57.3515595 92.7250089,57.2635311 C92.6857194,57.176 92.6663233,57.0720568 92.6663233,56.9517016 C92.6663233,56.8477584 92.6946714,56.7472966 92.7523623,56.6508135 C92.809556,56.5548277 92.9025577,56.4687886 93.0313677,56.3936909 C93.1596803,56.3195879 93.3277798,56.2579183 93.5346714,56.2101741 C93.7415631,56.1624298 93.9952043,56.1350764 94.2960924,56.1281137 L94.2960924,55.9222167 C94.2960924,55.7168171 94.2518295,55.5621456 94.1628064,55.4567105 C94.0742806,55.3512753 93.9449734,55.2985577 93.7743872,55.2985577 C93.66,55.2985577 93.5635169,55.3134778 93.4864298,55.3418259 C93.4088455,55.3706714 93.3422025,55.4025009 93.2855062,55.4383091 C93.2288099,55.4741172 93.180071,55.5059467 93.1392895,55.5347922 C93.098508,55.5631403 93.0582238,55.5780604 93.0184369,55.5780604 C92.9871048,55.5780604 92.9597513,55.5696057 92.9373712,55.5531936 C92.9149911,55.5367815 92.895595,55.5163908 92.8801776,55.4920213 L92.7966252,55.3428206 Z" id="Fill-35" fill="#FFFFFF" mask="url(#mask-2)"></path>
            <path d="M96.0278153,55.49973 C96.1113677,55.3186998 96.2138188,55.1774565 96.3356661,55.0755027 C96.457016,54.9740462 96.6062167,54.9233179 96.7817762,54.9233179 C96.8369805,54.9233179 96.8906927,54.9297833 96.9419183,54.9417194 C96.9931439,54.9536554 97.0388988,54.9725542 97.0786856,54.998913 L97.0448668,55.345556 C97.0344227,55.3888242 97.0085613,55.4107069 96.9667851,55.4107069 C96.9424156,55.4107069 96.9066075,55.4057336 96.8598579,55.3952895 C96.8131083,55.3848455 96.7598934,55.3798721 96.7007105,55.3798721 C96.6171581,55.3798721 96.5430551,55.3918082 96.4779041,55.4161776 C96.4122558,55.4405471 96.3540675,55.4763552 96.3028419,55.5245968 C96.2516163,55.572341 96.2053641,55.631524 96.1645826,55.7016483 C96.1238011,55.77227 96.0869982,55.852341 96.0541741,55.9428561 L96.0541741,57.6119147 L95.5871758,57.6119147 L95.5871758,54.9705648 L95.8532504,54.9705648 C95.9034813,54.9705648 95.9382948,54.9795169 95.9571936,54.998913 C95.9765897,55.0178117 95.9895204,55.0511332 95.9964831,55.0978828 L96.0278153,55.49973 Z" id="Fill-36" fill="#FFFFFF" mask="url(#mask-2)"></path>
            <path d="M98.0829556,53.7706927 L98.0829556,56.0315808 L98.2028135,56.0315808 C98.237627,56.0315808 98.2669698,56.0266075 98.2903446,56.0171581 C98.3137194,56.0077087 98.3385861,55.9883126 98.3644476,55.9584725 L99.1989769,55.0642629 C99.2233464,55.0344227 99.2492078,55.0115453 99.2760639,54.9951332 C99.3029201,54.9787211 99.3387282,54.9702664 99.3839858,54.9702664 L99.8037371,54.9702664 L98.8314458,56.005222 C98.7841989,56.064405 98.733968,56.1106572 98.6802558,56.1434813 C98.7115879,56.1643694 98.7394387,56.1882416 98.7648028,56.215595 C98.790167,56.2424512 98.8140391,56.273286 98.8364192,56.3080995 L99.8693854,57.6121137 L99.4546075,57.6121137 C99.4148206,57.6121137 99.3800071,57.6056483 99.351659,57.5927176 C99.3228135,57.5792895 99.2979467,57.5554174 99.2770586,57.5206039 L98.4087105,56.4384014 C98.382849,56.4020959 98.3569876,56.3777265 98.3316234,56.3667851 C98.3067567,56.3553464 98.2679645,56.3498757 98.2157442,56.3498757 L98.0829556,56.3498757 L98.0829556,57.6121137 L97.6159574,57.6121137 L97.6159574,53.7706927 L98.0829556,53.7706927 Z" id="Fill-37" fill="#FFFFFF" mask="url(#mask-2)"></path>
            <path d="M102.015488,56.0028845 C102.015488,55.8949627 102.000568,55.7964902 101.969734,55.7069698 C101.939396,55.6174494 101.895133,55.539865 101.836945,55.474714 C101.778757,55.4095631 101.707638,55.3593321 101.624583,55.323524 C101.54103,55.2882131 101.446039,55.2698117 101.340107,55.2698117 C101.1173,55.2698117 100.941741,55.3349627 100.811936,55.46427 C100.682629,55.5940746 100.60206,55.7731155 100.570728,56.0028845 L102.015488,56.0028845 Z M102.390977,57.2417478 C102.333783,57.3113748 102.265151,57.3715524 102.18508,57.422778 C102.105009,57.4740036 102.019467,57.5162771 101.928455,57.5491012 C101.836945,57.5824227 101.742451,57.6072895 101.644973,57.6237016 C101.547993,57.6401137 101.45151,57.6485684 101.355524,57.6485684 C101.173499,57.6485684 101.004902,57.6177336 100.851226,57.5560639 C100.697549,57.4943943 100.564263,57.4033819 100.451865,57.2845187 C100.339964,57.1656554 100.252931,57.018444 100.190266,56.8423872 C100.127602,56.6668277 100.09627,56.4654067 100.09627,56.237627 C100.09627,56.0536128 100.124618,55.8810373 100.180817,55.7213925 C100.237513,55.5612504 100.318579,55.4224938 100.424512,55.3056199 C100.530941,55.1877513 100.660249,55.0957442 100.813428,55.0286039 C100.966607,54.9619609 101.138188,54.9286394 101.329663,54.9286394 C101.487815,54.9286394 101.634529,54.9549982 101.769307,55.0077158 C101.903588,55.0609307 102.020462,55.1375204 102.118934,55.2374849 C102.216909,55.3374494 102.293996,55.4607886 102.349201,55.6075027 C102.404902,55.754714 102.432753,55.9223162 102.432753,56.1098117 C102.432753,56.1824227 102.424796,56.231659 102.409378,56.2560284 C102.393961,56.2803979 102.364121,56.2923339 102.320853,56.2923339 L100.554813,56.2923339 C100.560284,56.4594387 100.583659,56.6046607 100.62444,56.728 C100.665222,56.8513393 100.721918,56.9542877 100.795027,57.0368455 C100.868135,57.1194032 100.955169,57.1810728 101.055631,57.2218544 C101.15659,57.2626359 101.269485,57.2830266 101.394813,57.2830266 C101.51119,57.2830266 101.611652,57.2700959 101.696199,57.2427425 C101.780249,57.2158863 101.85286,57.1870409 101.914032,57.1552114 C101.974707,57.1243766 102.025435,57.0950337 102.066714,57.0681776 C102.107496,57.0413215 102.142309,57.0278934 102.172149,57.0278934 C102.210444,57.0278934 102.239787,57.0428135 102.260675,57.071659 L102.390977,57.2417478 Z" id="Fill-38" fill="#FFFFFF" mask="url(#mask-2)"></path>
            <path d="M103.92471,57.6536909 C103.716327,57.6536909 103.555687,57.5955027 103.443787,57.4786288 C103.331389,57.3622522 103.27519,57.1946501 103.27519,56.9758224 L103.27519,55.358984 L102.957393,55.358984 C102.929542,55.358984 102.906167,55.3505293 102.886771,55.3341172 C102.867872,55.3177052 102.857925,55.2918437 102.857925,55.2570302 L102.857925,55.0720213 L103.291105,55.0168171 L103.398032,54.2011865 C103.403005,54.1748277 103.414941,54.1534423 103.433343,54.1370302 C103.451247,54.1206181 103.475119,54.1121634 103.504959,54.1121634 L103.739702,54.1121634 L103.739702,55.0222877 L104.503609,55.0222877 L104.503609,55.358984 L103.739702,55.358984 L103.739702,56.9439929 C103.739702,57.0558934 103.766558,57.1384512 103.820767,57.1916661 C103.873982,57.2458757 103.944107,57.2727318 104.029151,57.2727318 C104.07789,57.2727318 104.120163,57.2667638 104.155474,57.2533357 C104.191282,57.240405 104.222117,57.2259822 104.247979,57.2100675 C104.274337,57.1946501 104.29622,57.1802274 104.314622,57.1667993 C104.333023,57.1543659 104.348938,57.1474032 104.362863,57.1474032 C104.387233,57.1474032 104.409115,57.1628206 104.428014,57.1916661 L104.563787,57.4139751 C104.483716,57.4885755 104.387233,57.5472611 104.274337,57.5895346 C104.161442,57.6323055 104.044568,57.6536909 103.92471,57.6536909" id="Fill-39" fill="#FFFFFF" mask="url(#mask-2)"></path>
            <path d="M106.326643,55.8125044 C106.47087,55.8125044 106.598188,55.7936057 106.708597,55.7553108 C106.819005,55.717016 106.912007,55.6633037 106.987602,55.5951687 C107.063197,55.5260391 107.120391,55.4439787 107.158686,55.3479929 C107.19698,55.2525044 107.215879,55.1475666 107.215879,55.0326821 C107.215879,54.7944583 107.142274,54.6084547 106.99556,54.4746714 C106.848348,54.3408881 106.625542,54.2737478 106.326643,54.2737478 L105.726856,54.2737478 L105.726856,55.8125044 L106.326643,55.8125044 Z M106.326643,53.8748845 C106.563375,53.8748845 106.768774,53.902238 106.943339,53.9574423 C107.117904,54.0116519 107.262629,54.0897336 107.377513,54.1901954 C107.492398,54.2911545 107.57794,54.4130018 107.634636,54.5557371 C107.690835,54.6979751 107.719183,54.8571226 107.719183,55.0326821 C107.719183,55.2062522 107.688845,55.365897 107.628171,55.5101243 C107.566998,55.6543517 107.477975,55.7786856 107.360604,55.8831261 C107.243233,55.9875666 107.098011,56.0686323 106.925435,56.1268206 C106.751865,56.1850089 106.552931,56.2143517 106.326643,56.2143517 L105.726856,56.2143517 L105.726856,57.611865 L105.223552,57.611865 L105.223552,53.8748845 L106.326643,53.8748845 Z" id="Fill-40" fill="#FFFFFF" mask="url(#mask-2)"></path>
            <path d="M111.154032,56.4225364 C110.940178,56.4299964 110.758153,56.4469059 110.60746,56.473762 C110.457265,56.5006181 110.33492,56.535929 110.239929,56.5791972 C110.145435,56.6224654 110.076306,56.6741883 110.034032,56.7328739 C109.991261,56.7920568 109.969876,56.8582025 109.969876,56.9313108 C109.969876,57.0009378 109.981314,57.0606181 110.003694,57.1113464 C110.026572,57.1615773 110.057407,57.2028561 110.096696,57.2351829 C110.135488,57.2670124 110.181741,57.2908845 110.234458,57.3053073 C110.287673,57.3207247 110.344867,57.3276874 110.405542,57.3276874 C110.487105,57.3276874 110.562202,57.31973 110.62984,57.3033179 C110.697975,57.2864085 110.761634,57.2620391 110.821812,57.2312043 C110.881492,57.1998721 110.938686,57.1625719 110.99389,57.1188064 C111.048597,57.0755382 111.101812,57.026302 111.154032,56.9706004 L111.154032,56.4225364 Z M109.654565,55.3428206 C109.800284,55.2020746 109.95794,55.0971368 110.126536,55.0275098 C110.295133,54.9583801 110.482131,54.9230693 110.687531,54.9230693 C110.834742,54.9230693 110.966536,54.9474387 111.080924,54.9961776 C111.195808,55.0449165 111.292291,55.1125542 111.370373,55.1995879 C111.448952,55.2866217 111.507638,55.3920568 111.547922,55.5153961 C111.587709,55.6387353 111.608099,55.7740107 111.608099,55.9222167 L111.608099,57.6121634 L111.401705,57.6121634 C111.356448,57.6121634 111.321634,57.6047034 111.297762,57.5897833 C111.272895,57.5748632 111.253996,57.5460178 111.240071,57.5022522 L111.187851,57.2520924 C111.118224,57.3162487 111.050586,57.3734423 110.98444,57.4231758 C110.918295,57.4724121 110.849165,57.5141883 110.776057,57.5480071 C110.702948,57.5818259 110.625364,57.6081847 110.542806,57.6265861 C110.459751,57.6444902 110.368242,57.6539396 110.267282,57.6539396 C110.164831,57.6539396 110.068348,57.6390195 109.977833,57.6106714 C109.887318,57.5818259 109.808739,57.5390551 109.742096,57.4818615 C109.674956,57.4241705 109.621741,57.3515595 109.582948,57.2635311 C109.543659,57.176 109.524263,57.0720568 109.524263,56.9517016 C109.524263,56.8477584 109.552611,56.7472966 109.610302,56.6508135 C109.667496,56.5548277 109.760497,56.4687886 109.889307,56.3936909 C110.01762,56.3195879 110.185719,56.2579183 110.392611,56.2101741 C110.599503,56.1624298 110.853144,56.1350764 111.154032,56.1281137 L111.154032,55.9222167 C111.154032,55.7168171 111.109769,55.5621456 111.020746,55.4567105 C110.93222,55.3512753 110.802913,55.2985577 110.632327,55.2985577 C110.51794,55.2985577 110.421456,55.3134778 110.344369,55.3418259 C110.266785,55.3706714 110.200142,55.4025009 110.143446,55.4383091 C110.08675,55.4741172 110.038011,55.5059467 109.997229,55.5347922 C109.956448,55.5631403 109.916163,55.5780604 109.876377,55.5780604 C109.845044,55.5780604 109.817691,55.5696057 109.795311,55.5531936 C109.772931,55.5367815 109.753535,55.5163908 109.738117,55.4920213 L109.654565,55.3428206 Z" id="Fill-42" fill="#FFFFFF" mask="url(#mask-2)"></path>
            <path d="M114.283517,55.4395027 C114.269591,55.4588988 114.255666,55.4733215 114.242238,55.4837655 C114.227815,55.4942096 114.208917,55.4996803 114.184547,55.4996803 C114.158686,55.4996803 114.12984,55.4887389 114.098508,55.4673535 C114.067176,55.4454707 114.028384,55.4215986 113.982629,55.3952398 C113.936377,55.368881 113.87968,55.3455062 113.813037,55.3236234 C113.745897,55.3017407 113.663837,55.2907993 113.566359,55.2907993 C113.436057,55.2907993 113.321172,55.3141741 113.222202,55.359929 C113.123233,55.4061812 113.040178,55.4723268 112.973037,55.5593606 C112.905897,55.6463943 112.855666,55.7518295 112.821847,55.8751687 C112.788028,55.998508 112.771119,56.1367673 112.771119,56.2899467 C112.771119,56.4495915 112.78952,56.5918295 112.825826,56.7161634 C112.862131,56.8404973 112.913854,56.9444405 112.980995,57.0289876 C113.048135,57.1135346 113.128703,57.1776909 113.223694,57.2219538 C113.318188,57.266714 113.424618,57.2885968 113.542984,57.2885968 C113.655879,57.2885968 113.748881,57.2746714 113.821989,57.2483126 C113.895098,57.2209591 113.955275,57.191119 114.003517,57.1582948 C114.051261,57.1254707 114.091048,57.0951332 114.123375,57.0677798 C114.155204,57.041421 114.187034,57.0274956 114.218366,57.0274956 C114.256661,57.0274956 114.286004,57.042913 114.306892,57.0717584 L114.437691,57.2418472 C114.38,57.3129663 114.314849,57.3741385 114.242238,57.4238721 C114.16913,57.4746004 114.090053,57.5168739 114.006004,57.5506927 C113.921456,57.5845115 113.833428,57.6093783 113.741421,57.6252931 C113.648917,57.6407105 113.55492,57.6481705 113.459432,57.6481705 C113.294316,57.6481705 113.141137,57.6183304 112.998899,57.5571581 C112.857655,57.4964831 112.734316,57.4079574 112.630373,57.2925755 C112.525933,57.1766963 112.444369,57.0349556 112.385187,56.8658615 C112.326004,56.6972647 112.296163,56.5057904 112.296163,56.2899467 C112.296163,56.0930018 112.324014,55.9114742 112.378224,55.7443694 C112.433428,55.577762 112.513002,55.434032 112.618437,55.3131794 C112.723375,55.1923268 112.853179,55.097833 113.007353,55.0301954 C113.16103,54.9620604 113.338082,54.9287389 113.537513,54.9287389 C113.724014,54.9287389 113.887638,54.9580817 114.029378,55.0182593 C114.171119,55.0779396 114.296448,55.162984 114.406359,55.2723979 L114.283517,55.4395027 Z" id="Fill-43" fill="#FFFFFF" mask="url(#mask-2)"></path>
            <path d="M116.787204,56.0028845 C116.787204,55.8949627 116.772284,55.7964902 116.741449,55.7069698 C116.711112,55.6174494 116.666849,55.539865 116.608661,55.474714 C116.550472,55.4095631 116.479353,55.3593321 116.396298,55.323524 C116.312746,55.2882131 116.217755,55.2698117 116.111822,55.2698117 C115.889016,55.2698117 115.713456,55.3349627 115.583652,55.46427 C115.454345,55.5940746 115.373776,55.7731155 115.342444,56.0028845 L116.787204,56.0028845 Z M117.162693,57.2417478 C117.105499,57.3113748 117.036867,57.3715524 116.956796,57.422778 C116.876725,57.4740036 116.791183,57.5162771 116.700171,57.5491012 C116.608661,57.5824227 116.514167,57.6072895 116.416689,57.6237016 C116.319709,57.6401137 116.223226,57.6485684 116.12724,57.6485684 C115.945215,57.6485684 115.776618,57.6177336 115.622941,57.5560639 C115.469265,57.4943943 115.335979,57.4033819 115.223581,57.2845187 C115.11168,57.1656554 115.024647,57.018444 114.961982,56.8423872 C114.899318,56.6668277 114.867986,56.4654067 114.867986,56.237627 C114.867986,56.0536128 114.896334,55.8810373 114.952533,55.7213925 C115.009229,55.5612504 115.090295,55.4224938 115.196227,55.3056199 C115.302657,55.1877513 115.431964,55.0957442 115.585144,55.0286039 C115.738323,54.9619609 115.909904,54.9286394 116.101378,54.9286394 C116.259531,54.9286394 116.406245,54.9549982 116.541023,55.0077158 C116.675304,55.0609307 116.792178,55.1375204 116.89065,55.2374849 C116.988625,55.3374494 117.065712,55.4607886 117.120917,55.6075027 C117.176618,55.754714 117.204469,55.9223162 117.204469,56.1098117 C117.204469,56.1824227 117.196512,56.231659 117.181094,56.2560284 C117.165677,56.2803979 117.135837,56.2923339 117.092568,56.2923339 L115.326529,56.2923339 C115.332,56.4594387 115.355375,56.6046607 115.396156,56.728 C115.436938,56.8513393 115.493634,56.9542877 115.566742,57.0368455 C115.639851,57.1194032 115.726885,57.1810728 115.827346,57.2218544 C115.928306,57.2626359 116.041201,57.2830266 116.166529,57.2830266 C116.282906,57.2830266 116.383368,57.2700959 116.467915,57.2427425 C116.551964,57.2158863 116.624575,57.1870409 116.685748,57.1552114 C116.746423,57.1243766 116.797151,57.0950337 116.83843,57.0681776 C116.879211,57.0413215 116.914025,57.0278934 116.943865,57.0278934 C116.98216,57.0278934 117.011503,57.0428135 117.032391,57.071659 L117.162693,57.2417478 Z" id="Fill-44" fill="#FFFFFF" mask="url(#mask-2)"></path>
            <path d="M44.8573428,54.3545151 C44.1685329,54.3545151 43.6080355,54.9150124 43.6080355,55.6038224 C43.6080355,56.292135 44.1685329,56.8526323 44.8573428,56.8526323 C45.5461528,56.8526323 46.1066501,56.292135 46.1066501,55.6038224 C46.1066501,54.9150124 45.5461528,54.3545151 44.8573428,54.3545151 M44.8573428,57.349968 C43.8940036,57.349968 43.1106998,56.5666643 43.1106998,55.6038224 C43.1106998,54.6404831 43.8940036,53.8571794 44.8573428,53.8571794 C45.8206821,53.8571794 46.6039858,54.6404831 46.6039858,55.6038224 C46.6039858,56.5666643 45.8206821,57.349968 44.8573428,57.349968" id="Fill-45" fill="#FFFFFF" mask="url(#mask-2)"></path>
            <path d="M50.1648597,54.3545151 C49.4755524,54.3545151 48.9150551,54.9150124 48.9150551,55.6038224 C48.9150551,56.292135 49.4755524,56.8526323 50.1648597,56.8526323 C50.8536696,56.8526323 51.414167,56.292135 51.414167,55.6038224 C51.414167,54.9150124 50.8536696,54.3545151 50.1648597,54.3545151 M50.1648597,57.349968 C49.2015204,57.349968 48.4177194,56.5666643 48.4177194,55.6038224 C48.4177194,54.6404831 49.2015204,53.8571794 50.1648597,53.8571794 C51.1281989,53.8571794 51.9115027,54.6404831 51.9115027,55.6038224 C51.9115027,56.5666643 51.1281989,57.349968 50.1648597,57.349968" id="Fill-46" fill="#FFFFFF" mask="url(#mask-2)"></path>
            <path d="M55.4718792,54.3545151 C54.7830693,54.3545151 54.2225719,54.9150124 54.2225719,55.6038224 C54.2225719,56.292135 54.7830693,56.8526323 55.4718792,56.8526323 C56.1606892,56.8526323 56.7211865,56.292135 56.7211865,55.6038224 C56.7211865,54.9150124 56.1606892,54.3545151 55.4718792,54.3545151 M55.4718792,57.349968 C54.50854,57.349968 53.7252362,56.5666643 53.7252362,55.6038224 C53.7252362,54.6404831 54.50854,53.8571794 55.4718792,53.8571794 C56.4352185,53.8571794 57.2185222,54.6404831 57.2185222,55.6038224 C57.2185222,56.5666643 56.4352185,57.349968 55.4718792,57.349968" id="Fill-47" fill="#FFFFFF" mask="url(#mask-2)"></path>
            <path d="M79.4406252,66.9413854 L70.9351901,66.9413854 C69.9211226,66.9413854 69.0985293,67.762984 69.0985293,68.7770515 L69.0985293,77.2824867 C69.0985293,78.2975488 69.9211226,79.1211368 70.9351901,79.1211368 L79.4406252,79.1211368 C80.4556874,79.1211368 81.277286,78.2975488 81.277286,77.2824867 L81.277286,68.7770515 C81.277286,67.762984 80.4556874,66.9413854 79.4406252,66.9413854 M79.4406252,67.4387211 C80.1791687,67.4387211 80.7799503,68.0390053 80.7799503,68.7770515 L80.7799503,77.2824867 C80.7799503,78.0220249 80.1791687,78.6238011 79.4406252,78.6238011 L70.9351901,78.6238011 C70.1966465,78.6238011 69.595865,78.0220249 69.595865,77.2824867 L69.595865,68.7770515 C69.595865,68.0390053 70.1966465,67.4387211 70.9351901,67.4387211 L79.4406252,67.4387211" id="Fill-48" fill="#FFFFFF" mask="url(#mask-2)"></path>
            <path d="M94.3330444,66.9413854 L85.8281066,66.9413854 C84.8130444,66.9413854 83.9909485,67.762984 83.9909485,68.7770515 L83.9909485,77.2824867 C83.9909485,78.2975488 84.8130444,79.1211368 85.8281066,79.1211368 L94.3330444,79.1211368 C95.3481066,79.1211368 96.1706998,78.2975488 96.1706998,77.2824867 L96.1706998,68.7770515 C96.1706998,67.762984 95.3481066,66.9413854 94.3330444,66.9413854 M94.3330444,67.4387211 C95.0720853,67.4387211 95.6733641,68.0390053 95.6733641,68.7770515 L95.6733641,77.2824867 C95.6733641,78.0220249 95.0720853,78.6238011 94.3330444,78.6238011 L85.8281066,78.6238011 C85.0895631,78.6238011 84.4882842,78.0220249 84.4882842,77.2824867 L84.4882842,68.7770515 C84.4882842,68.0390053 85.0895631,67.4387211 85.8281066,67.4387211 L94.3330444,67.4387211" id="Fill-49" fill="#FFFFFF" mask="url(#mask-2)"></path>
            <path d="M109.226359,66.9413854 L100.720426,66.9413854 C99.7063588,66.9413854 98.8837655,67.762984 98.8837655,68.7770515 L98.8837655,77.2824867 C98.8837655,78.2975488 99.7063588,79.1211368 100.720426,79.1211368 L109.226359,79.1211368 C110.240924,79.1211368 111.06302,78.2975488 111.06302,77.2824867 L111.06302,68.7770515 C111.06302,67.762984 110.240924,66.9413854 109.226359,66.9413854 M109.226359,67.4387211 C109.964902,67.4387211 110.565684,68.0390053 110.565684,68.7770515 L110.565684,77.2824867 C110.565684,78.0220249 109.964902,78.6238011 109.226359,78.6238011 L100.720426,78.6238011 C99.9818828,78.6238011 99.3811012,78.0220249 99.3811012,77.2824867 L99.3811012,68.7770515 C99.3811012,68.0390053 99.9818828,67.4387211 100.720426,67.4387211 L109.226359,67.4387211" id="Fill-50" fill="#FFFFFF" mask="url(#mask-2)"></path>
            <path d="M124.118281,66.9413854 L115.613343,66.9413854 C114.598281,66.9413854 113.776185,67.762984 113.776185,68.7770515 L113.776185,77.2824867 C113.776185,78.2975488 114.598281,79.1211368 115.613343,79.1211368 L124.118281,79.1211368 C125.132845,79.1211368 125.955936,78.2975488 125.955936,77.2824867 L125.955936,68.7770515 C125.955936,67.762984 125.132845,66.9413854 124.118281,66.9413854 M124.118281,67.4387211 C124.857321,67.4387211 125.4586,68.0390053 125.4586,68.7770515 L125.4586,77.2824867 C125.4586,78.0220249 124.857321,78.6238011 124.118281,78.6238011 L115.613343,78.6238011 C114.874799,78.6238011 114.27352,78.0220249 114.27352,77.2824867 L114.27352,68.7770515 C114.27352,68.0390053 114.874799,67.4387211 115.613343,67.4387211 L124.118281,67.4387211" id="Fill-51" fill="#FFFFFF" mask="url(#mask-2)"></path>
            <path d="M139.011147,66.9413854 L130.505712,66.9413854 C129.491645,66.9413854 128.669052,67.762984 128.669052,68.7770515 L128.669052,77.2824867 C128.669052,78.2975488 129.491645,79.1211368 130.505712,79.1211368 L139.011147,79.1211368 C140.02621,79.1211368 140.848306,78.2975488 140.848306,77.2824867 L140.848306,68.7770515 C140.848306,67.762984 140.02621,66.9413854 139.011147,66.9413854 M139.011147,67.4387211 C139.750188,67.4387211 140.35097,68.0390053 140.35097,68.7770515 L140.35097,77.2824867 C140.35097,78.0220249 139.750188,78.6238011 139.011147,78.6238011 L130.505712,78.6238011 C129.767169,78.6238011 129.166387,78.0220249 129.166387,77.2824867 L129.166387,68.7770515 C129.166387,68.0390053 129.767169,67.4387211 130.505712,67.4387211 L139.011147,67.4387211" id="Fill-52" fill="#FFFFFF" mask="url(#mask-2)"></path>
            <path d="M153.903567,66.9413854 L145.398629,66.9413854 C144.383567,66.9413854 143.561471,67.762984 143.561471,68.7770515 L143.561471,77.2824867 C143.561471,78.2975488 144.383567,79.1211368 145.398629,79.1211368 L153.903567,79.1211368 C154.918629,79.1211368 155.741222,78.2975488 155.741222,77.2824867 L155.741222,68.7770515 C155.741222,67.762984 154.918629,66.9413854 153.903567,66.9413854 M153.903567,67.4387211 C154.642607,67.4387211 155.243886,68.0390053 155.243886,68.7770515 L155.243886,77.2824867 C155.243886,78.0220249 154.642607,78.6238011 153.903567,78.6238011 L145.398629,78.6238011 C144.660085,78.6238011 144.058806,78.0220249 144.058806,77.2824867 L144.058806,68.7770515 C144.058806,68.0390053 144.660085,67.4387211 145.398629,67.4387211 L153.903567,67.4387211" id="Fill-53" fill="#FFFFFF" mask="url(#mask-2)"></path>
            <path d="M79.4406252,81.4330515 L70.9351901,81.4330515 C69.9211226,81.4330515 69.0985293,82.2556448 69.0985293,83.2697123 L69.0985293,91.7751474 C69.0985293,92.7902096 69.9211226,93.6128028 70.9351901,93.6128028 L79.4406252,93.6128028 C80.4556874,93.6128028 81.277286,92.7902096 81.277286,91.7751474 L81.277286,83.2697123 C81.277286,82.2556448 80.4556874,81.4330515 79.4406252,81.4330515 M79.4406252,81.9303872 C80.1791687,81.9303872 80.7799503,82.5311687 80.7799503,83.2697123 L80.7799503,91.7751474 C80.7799503,92.5141883 80.1791687,93.1154671 79.4406252,93.1154671 L70.9351901,93.1154671 C70.1966465,93.1154671 69.595865,92.5141883 69.595865,91.7751474 L69.595865,83.2697123 C69.595865,82.5311687 70.1966465,81.9303872 70.9351901,81.9303872 L79.4406252,81.9303872" id="Fill-54" fill="#FFFFFF" mask="url(#mask-2)"></path>
            <path d="M94.3330444,81.4330515 L85.8281066,81.4330515 C84.8130444,81.4330515 83.9909485,82.2556448 83.9909485,83.2697123 L83.9909485,91.7751474 C83.9909485,92.7902096 84.8130444,93.6128028 85.8281066,93.6128028 L94.3330444,93.6128028 C95.3481066,93.6128028 96.1706998,92.7902096 96.1706998,91.7751474 L96.1706998,83.2697123 C96.1706998,82.2556448 95.3481066,81.4330515 94.3330444,81.4330515 M94.3330444,81.9303872 C95.0720853,81.9303872 95.6733641,82.5311687 95.6733641,83.2697123 L95.6733641,91.7751474 C95.6733641,92.5141883 95.0720853,93.1154671 94.3330444,93.1154671 L85.8281066,93.1154671 C85.0895631,93.1154671 84.4882842,92.5141883 84.4882842,91.7751474 L84.4882842,83.2697123 C84.4882842,82.5311687 85.0895631,81.9303872 85.8281066,81.9303872 L94.3330444,81.9303872" id="Fill-55" fill="#FFFFFF" mask="url(#mask-2)"></path>
            <path d="M109.226359,81.4330515 L100.720426,81.4330515 C99.7063588,81.4330515 98.8837655,82.2556448 98.8837655,83.2697123 L98.8837655,91.7751474 C98.8837655,92.7902096 99.7063588,93.6128028 100.720426,93.6128028 L109.226359,93.6128028 C110.240924,93.6128028 111.06302,92.7902096 111.06302,91.7751474 L111.06302,83.2697123 C111.06302,82.2556448 110.240924,81.4330515 109.226359,81.4330515 M109.226359,81.9303872 C109.964902,81.9303872 110.565684,82.5311687 110.565684,83.2697123 L110.565684,91.7751474 C110.565684,92.5141883 109.964902,93.1154671 109.226359,93.1154671 L100.720426,93.1154671 C99.9818828,93.1154671 99.3811012,92.5141883 99.3811012,91.7751474 L99.3811012,83.2697123 C99.3811012,82.5311687 99.9818828,81.9303872 100.720426,81.9303872 L109.226359,81.9303872" id="Fill-56" fill="#FFFFFF" mask="url(#mask-2)"></path>
            <path d="M124.118281,81.4330515 L115.613343,81.4330515 C114.598281,81.4330515 113.776185,82.2556448 113.776185,83.2697123 L113.776185,91.7751474 C113.776185,92.7902096 114.598281,93.6128028 115.613343,93.6128028 L124.118281,93.6128028 C125.132845,93.6128028 125.955936,92.7902096 125.955936,91.7751474 L125.955936,83.2697123 C125.955936,82.2556448 125.132845,81.4330515 124.118281,81.4330515 M124.118281,81.9303872 C124.857321,81.9303872 125.4586,82.5311687 125.4586,83.2697123 L125.4586,91.7751474 C125.4586,92.5141883 124.857321,93.1154671 124.118281,93.1154671 L115.613343,93.1154671 C114.874799,93.1154671 114.27352,92.5141883 114.27352,91.7751474 L114.27352,83.2697123 C114.27352,82.5311687 114.874799,81.9303872 115.613343,81.9303872 L124.118281,81.9303872" id="Fill-57" fill="#FFFFFF" mask="url(#mask-2)"></path>
            <path d="M139.011147,81.4330515 L130.505712,81.4330515 C129.491645,81.4330515 128.669052,82.2556448 128.669052,83.2697123 L128.669052,91.7751474 C128.669052,92.7902096 129.491645,93.6128028 130.505712,93.6128028 L139.011147,93.6128028 C140.02621,93.6128028 140.848306,92.7902096 140.848306,91.7751474 L140.848306,83.2697123 C140.848306,82.2556448 140.02621,81.4330515 139.011147,81.4330515 M139.011147,81.9303872 C139.750188,81.9303872 140.35097,82.5311687 140.35097,83.2697123 L140.35097,91.7751474 C140.35097,92.5141883 139.750188,93.1154671 139.011147,93.1154671 L130.505712,93.1154671 C129.767169,93.1154671 129.166387,92.5141883 129.166387,91.7751474 L129.166387,83.2697123 C129.166387,82.5311687 129.767169,81.9303872 130.505712,81.9303872 L139.011147,81.9303872" id="Fill-58" fill="#FFFFFF" mask="url(#mask-2)"></path>
            <path d="M153.903567,81.4330515 L145.398629,81.4330515 C144.383567,81.4330515 143.561471,82.2556448 143.561471,83.2697123 L143.561471,91.7751474 C143.561471,92.7902096 144.383567,93.6128028 145.398629,93.6128028 L153.903567,93.6128028 C154.918629,93.6128028 155.741222,92.7902096 155.741222,91.7751474 L155.741222,83.2697123 C155.741222,82.2556448 154.918629,81.4330515 153.903567,81.4330515 M153.903567,81.9303872 C154.642607,81.9303872 155.243886,82.5311687 155.243886,83.2697123 L155.243886,91.7751474 C155.243886,92.5141883 154.642607,93.1154671 153.903567,93.1154671 L145.398629,93.1154671 C144.660085,93.1154671 144.058806,92.5141883 144.058806,91.7751474 L144.058806,83.2697123 C144.058806,82.5311687 144.660085,81.9303872 145.398629,81.9303872 L153.903567,81.9303872" id="Fill-59" fill="#FFFFFF" mask="url(#mask-2)"></path>
            <path d="M79.4406252,95.9257123 L70.9351901,95.9257123 C69.9211226,95.9257123 69.0985293,96.7473108 69.0985293,97.762373 L69.0985293,106.267808 C69.0985293,107.28287 69.9211226,108.105464 70.9351901,108.105464 L79.4406252,108.105464 C80.4556874,108.105464 81.277286,107.28287 81.277286,106.267808 L81.277286,97.762373 C81.277286,96.7473108 80.4556874,95.9257123 79.4406252,95.9257123 M79.4406252,96.423048 C80.1791687,96.423048 80.7799503,97.0238295 80.7799503,97.762373 L80.7799503,106.267808 C80.7799503,107.006849 80.1791687,107.608128 79.4406252,107.608128 L70.9351901,107.608128 C70.1966465,107.608128 69.595865,107.006849 69.595865,106.267808 L69.595865,97.762373 C69.595865,97.0238295 70.1966465,96.423048 70.9351901,96.423048 L79.4406252,96.423048" id="Fill-60" fill="#FFFFFF" mask="url(#mask-2)"></path>
            <path d="M94.3330444,95.9257123 L85.8281066,95.9257123 C84.8130444,95.9257123 83.9909485,96.7473108 83.9909485,97.762373 L83.9909485,106.267808 C83.9909485,107.28287 84.8130444,108.105464 85.8281066,108.105464 L94.3330444,108.105464 C95.3481066,108.105464 96.1706998,107.28287 96.1706998,106.267808 L96.1706998,97.762373 C96.1706998,96.7473108 95.3481066,95.9257123 94.3330444,95.9257123 M94.3330444,96.423048 C95.0720853,96.423048 95.6733641,97.0238295 95.6733641,97.762373 L95.6733641,106.267808 C95.6733641,107.006849 95.0720853,107.608128 94.3330444,107.608128 L85.8281066,107.608128 C85.0895631,107.608128 84.4882842,107.006849 84.4882842,106.267808 L84.4882842,97.762373 C84.4882842,97.0238295 85.0895631,96.423048 85.8281066,96.423048 L94.3330444,96.423048" id="Fill-61" fill="#FFFFFF" mask="url(#mask-2)"></path>
            <path d="M109.226359,95.9257123 L100.720426,95.9257123 C99.7063588,95.9257123 98.8837655,96.7473108 98.8837655,97.762373 L98.8837655,106.267808 C98.8837655,107.28287 99.7063588,108.105464 100.720426,108.105464 L109.226359,108.105464 C110.240924,108.105464 111.06302,107.28287 111.06302,106.267808 L111.06302,97.762373 C111.06302,96.7473108 110.240924,95.9257123 109.226359,95.9257123 M109.226359,96.423048 C109.964902,96.423048 110.565684,97.0238295 110.565684,97.762373 L110.565684,106.267808 C110.565684,107.006849 109.964902,107.608128 109.226359,107.608128 L100.720426,107.608128 C99.9818828,107.608128 99.3811012,107.006849 99.3811012,106.267808 L99.3811012,97.762373 C99.3811012,97.0238295 99.9818828,96.423048 100.720426,96.423048 L109.226359,96.423048" id="Fill-62" fill="#FFFFFF" mask="url(#mask-2)"></path>
            <path d="M124.118281,95.9257123 L115.613343,95.9257123 C114.598281,95.9257123 113.776185,96.7473108 113.776185,97.762373 L113.776185,106.267808 C113.776185,107.28287 114.598281,108.105464 115.613343,108.105464 L124.118281,108.105464 C125.132845,108.105464 125.955936,107.28287 125.955936,106.267808 L125.955936,97.762373 C125.955936,96.7473108 125.132845,95.9257123 124.118281,95.9257123 M124.118281,96.423048 C124.857321,96.423048 125.4586,97.0238295 125.4586,97.762373 L125.4586,106.267808 C125.4586,107.006849 124.857321,107.608128 124.118281,107.608128 L115.613343,107.608128 C114.874799,107.608128 114.27352,107.006849 114.27352,106.267808 L114.27352,97.762373 C114.27352,97.0238295 114.874799,96.423048 115.613343,96.423048 L124.118281,96.423048" id="Fill-63" fill="#FFFFFF" mask="url(#mask-2)"></path>
            <path d="M153.903567,95.9257123 L145.398629,95.9257123 C144.383567,95.9257123 143.561471,96.7473108 143.561471,97.762373 L143.561471,106.267808 C143.561471,107.28287 144.383567,108.105464 145.398629,108.105464 L153.903567,108.105464 C154.918629,108.105464 155.741222,107.28287 155.741222,106.267808 L155.741222,97.762373 C155.741222,96.7473108 154.918629,95.9257123 153.903567,95.9257123 M153.903567,96.423048 C154.642607,96.423048 155.243886,97.0238295 155.243886,97.762373 L155.243886,106.267808 C155.243886,107.006849 154.642607,107.608128 153.903567,107.608128 L145.398629,107.608128 C144.660085,107.608128 144.058806,107.006849 144.058806,106.267808 L144.058806,97.762373 C144.058806,97.0238295 144.660085,96.423048 145.398629,96.423048 L153.903567,96.423048" id="Fill-64" fill="#FFFFFF" mask="url(#mask-2)"></path>
            <path d="M140.848504,106.267808 C140.848504,107.28287 140.026409,108.105464 139.011346,108.105464 L130.505911,108.105464 C129.491844,108.105464 128.66925,107.28287 128.66925,106.267808 L128.66925,97.762373 C128.66925,96.7473108 129.491844,95.9257123 130.505911,95.9257123 L139.011346,95.9257123 C140.026409,95.9257123 140.848504,96.7473108 140.848504,97.762373 L140.848504,106.267808 Z" id="Fill-65" fill="#FFFFFF" mask="url(#mask-2)"></path>
            <path d="M134.758529,105.902565 C134.552632,105.902565 134.385528,105.73546 134.385528,105.529563 L134.385528,98.5017123 C134.385528,98.2958153 134.552632,98.1287105 134.758529,98.1287105 C134.964426,98.1287105 135.131531,98.2958153 135.131531,98.5017123 L135.131531,105.529563 C135.131531,105.73546 134.964426,105.902565 134.758529,105.902565" id="Fill-66" fill="#F98470" mask="url(#mask-2)"></path>
            <path d="M134.758529,105.902565 C134.65956,105.902565 134.564568,105.863275 134.494941,105.793151 L131.199595,102.497307 C131.053876,102.351588 131.053876,102.115851 131.199595,101.970131 C131.345314,101.824412 131.581052,101.824412 131.726771,101.970131 L134.758529,105.00189 L137.791282,101.970131 C137.937002,101.824412 138.172739,101.824412 138.318458,101.970131 C138.464178,102.115851 138.464178,102.351588 138.318458,102.497307 L135.022117,105.793151 C134.95249,105.863275 134.857499,105.902565 134.758529,105.902565" id="Fill-67" fill="#F98470" mask="url(#mask-2)"></path>
            <path d="M44.5193037,40.6719147 C41.9823943,40.6719147 39.9189485,42.7353606 39.9189485,45.27227 L39.9189485,119.734863 C39.9189485,122.271275 41.9823943,124.335218 44.5193037,124.335218 L160.719801,124.335218 C163.256213,124.335218 165.320156,122.271275 165.320156,119.734863 L165.320156,45.27227 C165.320156,42.7353606 163.256213,40.6719147 160.719801,40.6719147 L44.5193037,40.6719147 Z M160.719801,125.081222 L44.5193037,125.081222 C41.5710977,125.081222 39.1729449,122.682572 39.1729449,119.734863 L39.1729449,45.27227 C39.1729449,42.3240639 41.5710977,39.9259112 44.5193037,39.9259112 L160.719801,39.9259112 C163.66751,39.9259112 166.06616,42.3240639 166.06616,45.27227 L166.06616,119.734863 C166.06616,122.682572 163.66751,125.081222 160.719801,125.081222 Z" id="Fill-70" fill="#FFFFFF" mask="url(#mask-2)"></path>
            <path d="M35.2826856,125.081073 C34.1174281,125.081073 33.1690089,126.028995 33.1690089,127.19475 L33.1690089,129.237307 C33.1690089,130.403062 34.1174281,131.350984 35.2826856,131.350984 L169.957215,131.350984 C171.12297,131.350984 172.070892,130.403062 172.070892,129.237307 L172.070892,127.19475 C172.070892,126.028995 171.12297,125.081073 169.957215,125.081073 L35.2826856,125.081073 Z M169.957215,132.096988 L35.2826856,132.096988 C33.7061314,132.096988 32.4230053,130.814359 32.4230053,129.237307 L32.4230053,127.19475 C32.4230053,125.617698 33.7061314,124.335069 35.2826856,124.335069 L169.957215,124.335069 C171.534266,124.335069 172.816895,125.617698 172.816895,127.19475 L172.816895,129.237307 C172.816895,130.814359 171.534266,132.096988 169.957215,132.096988 Z" id="Fill-71" fill="#FFFFFF" mask="url(#mask-2)"></path>
            <path d="M88.2994671,131.351332 L116.940036,131.351332 L116.940036,125.081421 L88.2994671,125.081421 L88.2994671,131.351332 Z M117.313037,132.097336 L87.9264654,132.097336 C87.7205684,132.097336 87.5534636,131.930231 87.5534636,131.724334 L87.5534636,124.707922 C87.5534636,124.502025 87.7205684,124.33492 87.9264654,124.33492 L117.313037,124.33492 C117.518934,124.33492 117.686039,124.502025 117.686039,124.707922 L117.686039,131.724334 C117.686039,131.930231 117.518934,132.097336 117.313037,132.097336 Z" id="Fill-72" fill="#FFFFFF" mask="url(#mask-2)"></path>
            <path d="M102.619702,44.3660249 C101.371389,44.3660249 100.355332,45.381087 100.355332,46.6293996 C100.355332,47.8782096 101.371389,48.8937691 102.619702,48.8937691 C103.868014,48.8937691 104.884071,47.8782096 104.884071,46.6293996 C104.884071,45.381087 103.868014,44.3660249 102.619702,44.3660249 M102.619702,49.6397726 C100.960092,49.6397726 99.6093286,48.2895062 99.6093286,46.6293996 C99.6093286,44.9702877 100.960092,43.6200213 102.619702,43.6200213 C104.279311,43.6200213 105.630075,44.9702877 105.630075,46.6293996 C105.630075,48.2895062 104.279311,49.6397726 102.619702,49.6397726" id="Fill-73" fill="#F98470" mask="url(#mask-2)"></path>
            <path d="M247.427446,108.418387 L165.595332,108.418387 C162.782401,108.418387 160.480732,110.71956 160.480732,113.53249 L160.480732,126.608938 C160.480732,129.421869 162.782401,131.724036 165.595332,131.724036 L247.427446,131.724036 C250.240377,131.724036 252.541549,129.421869 252.541549,126.608938 L252.541549,113.53249 C252.541549,110.71956 250.240377,108.418387 247.427446,108.418387" id="Fill-74" fill="#3E8370" mask="url(#mask-2)"></path>
            <path d="M239.317044,83.4787425 C239.565215,82.0722771 238.617293,80.9209449 237.210828,80.9209449 L237.182977,80.9209449 C235.776014,80.9209449 234.422764,82.0722771 234.174593,83.4787425 L229.777151,108.418139 L234.919602,108.418139 L239.317044,83.4787425 Z" id="Fill-75" fill="#F98470" mask="url(#mask-2)"></path>
            <path d="M178.101535,108.418387 L173.70459,83.4789911 C173.456917,82.0720284 174.403844,80.9211936 175.810806,80.9211936 L175.838657,80.9211936 C177.245123,80.9211936 178.59887,82.0720284 178.847041,83.4789911 L183.244483,108.418387" id="Fill-76" fill="#F98470" mask="url(#mask-2)"></path>
            <path d="M178.414309,108.045385 L182.799815,108.045385 L178.479957,83.5431474 C178.264611,82.3241776 177.055588,81.2941954 175.838607,81.2941954 C175.250259,81.2941954 174.761876,81.5085471 174.435126,81.8979609 C174.098927,82.2978188 173.970117,82.8364334 174.072071,83.4143375 L178.414309,108.045385 Z M183.244433,108.791389 L178.101485,108.791389 C177.920455,108.791389 177.765286,108.661087 177.734451,108.483041 L173.337506,83.5431474 C173.19676,82.7449236 173.383758,81.989968 173.863687,81.418032 C174.334664,80.8570373 175.025961,80.5481918 175.810757,80.5481918 C177.42113,80.5481918 178.935517,81.8338046 179.214025,83.4143375 L183.611467,108.353734 C183.630863,108.462153 183.601023,108.573556 183.529904,108.658103 C183.459282,108.74265 183.354842,108.791389 183.244433,108.791389 Z" id="Fill-77" fill="#FFFFFF" mask="url(#mask-2)"></path>
            <path d="M247.568291,108.418387 C250.303638,108.418387 252.541648,110.656398 252.541648,113.391744 L252.541648,126.750679 C252.541648,129.486025 250.303638,131.724036 247.568291,131.724036 L165.454188,131.724036 C162.718842,131.724036 160.480831,129.486025 160.480831,126.750679 L160.480831,113.391744 C160.480831,110.656398 162.718842,108.418387 165.454188,108.418387 L247.568291,108.418387 Z" id="Fill-78" fill="#F98470" mask="url(#mask-2)"></path>
            <path d="M165.453989,108.791389 C162.91708,108.791389 160.853634,110.854835 160.853634,113.391744 L160.853634,126.750679 C160.853634,129.287588 162.91708,131.351034 165.453989,131.351034 L247.568092,131.351034 C250.105002,131.351034 252.168448,129.287588 252.168448,126.750679 L252.168448,113.391744 C252.168448,110.854835 250.105002,108.791389 247.568092,108.791389 L165.453989,108.791389 Z M247.568092,132.097037 L165.453989,132.097037 C162.505783,132.097037 160.107631,129.698885 160.107631,126.750679 L160.107631,113.391744 C160.107631,110.443538 162.505783,108.045385 165.453989,108.045385 L247.568092,108.045385 C250.516298,108.045385 252.914451,110.443538 252.914451,113.391744 L252.914451,126.750679 C252.914451,129.698885 250.516298,132.097037 247.568092,132.097037 Z" id="Fill-79" fill="#FFFFFF" mask="url(#mask-2)"></path>
            <path d="M234.920199,108.791389 C234.898813,108.791389 234.876931,108.7894 234.855048,108.785421 C234.652135,108.75011 234.516362,108.556149 234.552668,108.353734 L238.95011,83.4143375 C239.051567,82.8364334 238.922757,82.2983162 238.587055,81.8984583 C238.260306,81.5090444 237.770927,81.2941954 237.21043,81.2941954 C235.966593,81.2941954 234.757073,82.3241776 234.541726,83.5431474 L230.144284,108.483041 C230.108973,108.685954 229.917499,108.822224 229.712597,108.785421 C229.509684,108.75011 229.374409,108.556149 229.410217,108.353734 L233.807659,83.4143375 C234.086167,81.8338046 235.600554,80.5481918 237.183076,80.5481918 C237.995723,80.5481918 238.687517,80.8575346 239.158494,81.4190266 C239.638423,81.9904654 239.824924,82.745421 239.684178,83.5431474 L235.286735,108.483041 C235.255403,108.664071 235.097748,108.791389 234.920199,108.791389" id="Fill-80" fill="#FFFFFF" mask="url(#mask-2)"></path>
            <path d="M204.31416,114.539893 L196.590536,114.539893 C195.668973,114.539893 194.921975,115.286892 194.921975,116.208455 L194.921975,123.933073 C194.921975,124.853641 195.668973,125.600639 196.590536,125.600639 L204.31416,125.600639 C205.235723,125.600639 205.982721,124.853641 205.982721,123.933073 L205.982721,116.208455 C205.982721,115.286892 205.235723,114.539893 204.31416,114.539893 M204.31416,115.037229 C204.960199,115.037229 205.485385,115.562913 205.485385,116.208455 L205.485385,123.933073 C205.485385,124.578615 204.960199,125.103304 204.31416,125.103304 L196.590536,125.103304 C195.944995,125.103304 195.419311,124.578615 195.419311,123.933073 L195.419311,116.208455 C195.419311,115.562913 195.944995,115.037229 196.590536,115.037229 L204.31416,115.037229" id="Fill-81" fill="#FFFFFF" mask="url(#mask-2)"></path>
            <path d="M218.133677,114.539893 L210.410053,114.539893 C209.48849,114.539893 208.741492,115.286892 208.741492,116.208455 L208.741492,123.933073 C208.741492,124.853641 209.48849,125.600639 210.410053,125.600639 L218.133677,125.600639 C219.055737,125.600639 219.802238,124.853641 219.802238,123.933073 L219.802238,116.208455 C219.802238,115.286892 219.055737,114.539893 218.133677,114.539893 M218.133677,115.037229 C218.779716,115.037229 219.304902,115.562913 219.304902,116.208455 L219.304902,123.933073 C219.304902,124.578615 218.779716,125.103304 218.133677,125.103304 L210.410053,125.103304 C209.764512,125.103304 209.238828,124.578615 209.238828,123.933073 L209.238828,116.208455 C209.238828,115.562913 209.764512,115.037229 210.410053,115.037229 L218.133677,115.037229" id="Fill-82" fill="#FFFFFF" mask="url(#mask-2)"></path>
            <path d="M233.621506,123.932924 C233.621506,124.853989 232.875503,125.600988 231.952945,125.600988 L224.229321,125.600988 C223.307758,125.600988 222.561258,124.853989 222.561258,123.932924 L222.561258,116.208803 C222.561258,115.286742 223.307758,114.539744 224.229321,114.539744 L231.952945,114.539744 C232.875503,114.539744 233.621506,115.286742 233.621506,116.208803 L233.621506,123.932924 Z" id="Fill-83" fill="#FFFFFF" mask="url(#mask-2)"></path>
            <path d="M228.090586,123.592945 C227.884689,123.592945 227.717584,123.42584 227.717584,123.219943 L227.717584,116.921684 C227.717584,116.715787 227.884689,116.548682 228.090586,116.548682 C228.296483,116.548682 228.463588,116.715787 228.463588,116.921684 L228.463588,123.219943 C228.463588,123.42584 228.296483,123.592945 228.090586,123.592945" id="Fill-84" fill="#F98470" mask="url(#mask-2)"></path>
            <path d="M228.090586,123.592945 C227.991616,123.592945 227.896625,123.553655 227.826998,123.483531 L224.873819,120.529854 C224.728099,120.384135 224.728099,120.147901 224.873819,120.002181 C225.020036,119.855964 225.25627,119.856959 225.401492,120.002181 L228.090586,122.69227 L230.781172,120.002181 C230.926892,119.856462 231.163126,119.856462 231.308845,120.002181 C231.454565,120.147901 231.454565,120.384135 231.308845,120.529854 L228.354174,123.483531 C228.284547,123.553655 228.189556,123.592945 228.090586,123.592945" id="Fill-85" fill="#F98470" mask="url(#mask-2)"></path>
            <path d="M238.765798,123.396746 C238.670309,123.396746 238.574821,123.36044 238.50221,123.287332 C238.35649,123.141613 238.35649,122.905876 238.50221,122.760156 L241.191304,120.071062 L238.50221,117.381471 C238.35649,117.235751 238.35649,117.000014 238.50221,116.854295 C238.647929,116.708575 238.883666,116.708575 239.029385,116.854295 L241.982565,119.806977 C242.128284,119.952696 242.128284,120.188931 241.982565,120.33465 L239.029385,123.287332 C238.956774,123.36044 238.861286,123.396746 238.765798,123.396746" id="Fill-86" fill="#FFFFFF" mask="url(#mask-2)"></path>
            <path d="M189.777783,123.396746 C189.682295,123.396746 189.586806,123.36044 189.514195,123.287332 L186.560519,120.33465 C186.490892,120.264526 186.451602,120.170032 186.451602,120.071062 C186.451602,119.971595 186.490892,119.877101 186.560519,119.806977 L189.514195,116.854295 C189.659915,116.708575 189.895652,116.708575 190.041371,116.854295 C190.187091,117.000014 190.187091,117.235751 190.041371,117.381471 L187.35178,120.071062 L190.041371,122.760156 C190.187091,122.905876 190.187091,123.141613 190.041371,123.287332 C189.96876,123.36044 189.873272,123.396746 189.777783,123.396746" id="Fill-87" fill="#FFFFFF" mask="url(#mask-2)"></path>
            <path d="M168.879488,122.23303 C169.429542,123.503723 170.451069,124.52525 171.721265,125.074806 C171.406451,124.490934 171.148831,123.780739 170.965812,122.98898 C170.171567,122.803972 169.461371,122.546849 168.879488,122.23303 M172.128085,125.589052 C172.110181,125.589052 172.09178,125.586565 172.073876,125.580597 C170.329222,125.008661 168.946131,123.62557 168.373201,121.880419 C168.350821,121.8093 168.374693,121.732213 168.433876,121.686956 C168.493556,121.642693 168.575119,121.641201 168.636291,121.681485 C169.269897,122.106707 170.138742,122.449869 171.148831,122.673172 C171.215474,122.687595 171.267197,122.739815 171.28162,122.805464 C171.503432,123.812071 171.846593,124.680917 172.27281,125.318501 C172.314089,125.380171 172.311602,125.461236 172.267339,125.520419 C172.23352,125.564682 172.181798,125.589052 172.128085,125.589052" id="Fill-89" fill="#FFFFFF" mask="url(#mask-2)"></path>
            <path d="M176.8014,117.152845 C177.595147,117.336362 178.304845,117.593485 178.887226,117.907801 C178.337172,116.636611 177.315147,115.615083 176.045449,115.065528 C176.359766,115.649897 176.617883,116.359595 176.8014,117.152845 M179.228398,118.488689 C179.194579,118.488689 179.16076,118.478742 179.131417,118.459346 C178.49632,118.033627 177.626977,117.690963 176.61838,117.468654 C176.552234,117.453734 176.500512,117.402508 176.485591,117.335865 C176.263282,116.329258 175.920618,115.459915 175.494899,114.821833 C175.45362,114.760163 175.456107,114.679098 175.501364,114.619915 C175.546124,114.560732 175.622217,114.536362 175.693833,114.559737 C177.436995,115.132171 178.820583,116.515261 179.393513,118.260412 C179.416888,118.330536 179.392519,118.408121 179.333833,118.453378 C179.302501,118.476753 179.265201,118.488689 179.228398,118.488689" id="Fill-90" fill="#FFFFFF" mask="url(#mask-2)"></path>
            <path d="M171.721165,115.065876 C170.451467,115.614934 169.42994,116.636959 168.879389,117.907155 C169.461769,117.593336 170.171964,117.336213 170.965712,117.152696 C171.149726,116.359943 171.406849,115.649748 171.721165,115.065876 M168.539211,118.48854 C168.501911,118.48854 168.464611,118.476604 168.433776,118.453726 C168.374593,118.408469 168.350721,118.330885 168.373599,118.260263 C168.946529,116.515112 170.32962,115.132021 172.073776,114.559588 C172.14589,114.537705 172.221982,114.560583 172.26724,114.620263 C172.311503,114.679446 172.313989,114.760512 172.27271,114.822181 C171.846494,115.459268 171.503829,116.328611 171.28152,117.335716 C171.267098,117.401861 171.214877,117.454082 171.149229,117.468504 C170.139638,117.690813 169.270295,118.033478 168.636192,118.459197 C168.606352,118.478593 168.57303,118.48854 168.539211,118.48854" id="Fill-91" fill="#FFFFFF" mask="url(#mask-2)"></path>
            <path d="M176.8014,122.988782 C176.617883,123.781037 176.360263,124.491233 176.045947,125.075105 C177.315645,124.525549 178.337172,123.503524 178.887723,122.232831 C178.305343,122.54665 177.595645,122.80427 176.8014,122.988782 M175.639623,125.58935 C175.586409,125.58935 175.534686,125.56498 175.501364,125.520718 C175.456107,125.461535 175.45362,125.380469 175.494899,125.318799 C175.920618,124.68022 176.263282,123.811375 176.485591,122.805762 C176.500512,122.739616 176.551737,122.687893 176.61838,122.672973 C177.627972,122.44967 178.496817,122.107005 179.131417,121.681286 C179.194082,121.640504 179.27465,121.642991 179.333833,121.687254 C179.392519,121.732512 179.416888,121.809599 179.394011,121.88022 C178.82108,123.625371 177.437492,125.008959 175.693833,125.580895 C175.675929,125.586863 175.657528,125.58935 175.639623,125.58935" id="Fill-92" fill="#FFFFFF" mask="url(#mask-2)"></path>
            <path d="M173.883929,116.835197 C174.761229,116.835197 175.61416,116.914771 176.423822,117.072924 C176.208476,116.203083 175.90162,115.447631 175.528121,114.872213 C174.46233,114.535517 173.301549,114.536014 172.239737,114.872213 C171.865741,115.447133 171.558387,116.203083 171.343538,117.072924 C172.152703,116.914771 173.005634,116.835197 173.883929,116.835197 Z M176.655581,117.472284 C176.643147,117.472284 176.630714,117.47129 176.618281,117.468306 C174.88805,117.089833 172.874835,117.089833 171.14908,117.468306 C171.089897,117.481734 171.030714,117.463332 170.98844,117.421556 C170.946664,117.37978 170.929258,117.319105 170.941691,117.260917 C171.172952,116.211538 171.533023,115.301414 171.983609,114.628519 C172.005492,114.596192 172.036824,114.57232 172.073627,114.560384 C173.240874,114.17644 174.524,114.175943 175.694231,114.559886 C175.731034,114.571822 175.762863,114.596192 175.784249,114.628519 C176.226877,115.291467 176.582472,116.182693 176.814231,117.210188 C176.829648,117.23605 176.838103,117.26589 176.838103,117.298714 C176.838103,117.396192 176.762508,117.468803 176.660057,117.472284 L176.655581,117.472284 Z" id="Fill-93" fill="#FFFFFF" mask="url(#mask-2)"></path>
            <path d="M172.239886,125.268568 C173.300206,125.605762 174.464966,125.606259 175.527773,125.268568 C175.901272,124.693151 176.208128,123.937698 176.423972,123.068853 C174.803155,123.385158 172.961023,123.384661 171.34319,123.068853 C171.558536,123.938195 171.86589,124.693151 172.239886,125.268568 M173.884078,125.870842 C173.26589,125.870842 172.656654,125.773364 172.073279,125.580398 C172.036973,125.568462 172.005144,125.54459 171.983261,125.511766 C171.533172,124.83887 171.172604,123.929243 170.94184,122.880362 C170.928909,122.822671 170.946316,122.761996 170.988092,122.72022 C171.030366,122.678444 171.090544,122.66054 171.149229,122.672973 C172.874487,123.051446 174.887702,123.051943 176.61843,122.672973 C176.676121,122.659545 176.736796,122.677947 176.779069,122.72022 C176.820845,122.761996 176.838252,122.822671 176.825819,122.880362 C176.59406,123.928746 176.233989,124.838373 175.784398,125.511766 C175.763012,125.54459 175.731183,125.568462 175.693883,125.580398 C175.110011,125.773364 174.501272,125.870842 173.884078,125.870842" id="Fill-94" fill="#FFFFFF" mask="url(#mask-2)"></path>
            <path d="M176.88152,117.530224 C177.039176,118.335908 177.119247,119.189336 177.119247,120.070615 C177.119247,120.951396 177.039176,121.804824 176.88152,122.611503 C177.753847,122.394664 178.508306,122.087311 179.081734,121.714309 C179.25033,121.181165 179.336369,120.628128 179.336369,120.070615 C179.336369,119.512604 179.25033,118.959567 179.081734,118.426423 C178.508306,118.052924 177.752853,117.746067 176.88152,117.530224 M176.65573,123.016831 C176.609975,123.016831 176.565712,122.998927 176.532888,122.9666 C176.490615,122.924327 176.473208,122.863652 176.485641,122.805464 C176.675126,121.945073 176.771112,121.024504 176.771112,120.070615 C176.771112,119.11573 176.675126,118.195659 176.485641,117.335766 C176.473208,117.278075 176.490615,117.2174 176.532888,117.175623 C176.575162,117.133847 176.637826,117.115943 176.69303,117.128377 C177.743901,117.360135 178.654025,117.720703 179.325428,118.169798 C179.357755,118.19168 179.381627,118.22351 179.393563,118.260313 C179.586032,118.846174 179.684007,119.455908 179.684007,120.070615 C179.684007,120.685321 179.586032,121.29406 179.393563,121.880419 C179.381627,121.917222 179.357755,121.949052 179.325428,121.970934 C178.65502,122.419531 177.744895,122.780597 176.69303,123.012853 C176.681094,123.015837 176.668163,123.016831 176.65573,123.016831" id="Fill-95" fill="#FFFFFF" mask="url(#mask-2)"></path>
            <path d="M168.685677,121.714359 C169.25811,122.087361 170.013563,122.394714 170.88589,122.611552 C170.727737,121.804874 170.648163,120.951446 170.648163,120.070664 C170.648163,119.189385 170.727737,118.335957 170.88589,117.530274 C170.01406,117.746117 169.258607,118.052973 168.685677,118.426472 C168.51708,118.958622 168.431538,119.511659 168.431538,120.070664 C168.431538,120.629172 168.51708,121.18221 168.685677,121.714359 M171.11168,123.016881 C171.099247,123.016881 171.086316,123.015886 171.07438,123.012902 C170.022018,122.780647 169.111396,122.419581 168.441982,121.970984 C168.409655,121.949101 168.385286,121.917272 168.373847,121.880469 C168.180881,121.295105 168.083901,120.686366 168.083901,120.070664 C168.083901,119.454963 168.180881,118.845229 168.373847,118.260362 C168.385286,118.223062 168.409655,118.19173 168.441982,118.169847 C169.112391,117.720753 170.022515,117.360185 171.07438,117.128426 C171.130082,117.114998 171.192249,117.1334 171.234522,117.175673 C171.276796,117.217449 171.294202,117.278124 171.281769,117.335815 C171.092284,118.195709 170.996298,119.115282 170.996298,120.070664 C170.996298,121.024554 171.092284,121.945123 171.281769,122.805513 C171.294202,122.863702 171.276796,122.924377 171.234522,122.96665 C171.201698,122.998977 171.157435,123.016881 171.11168,123.016881" id="Fill-96" fill="#FFFFFF" mask="url(#mask-2)"></path>
            <path d="M171.258345,122.696398 C172.920938,123.043538 174.841648,123.044533 176.509215,122.696398 C176.682785,121.867339 176.771311,120.985066 176.771311,120.070963 C176.771311,119.156362 176.682785,118.273094 176.509215,117.44503 C174.842643,117.096398 172.920938,117.097393 171.258345,117.44503 C171.084277,118.273094 170.996249,119.156362 170.996249,120.070963 C170.996249,120.985066 171.084277,121.867339 171.258345,122.696398 M173.88378,123.306629 C172.90751,123.306629 171.962572,123.207659 171.07433,123.013201 C171.008185,122.998281 170.956462,122.947055 170.941542,122.880412 C170.747083,121.995652 170.648114,121.049719 170.648114,120.070963 C170.648114,119.090714 170.747083,118.145279 170.941542,117.261016 C170.956462,117.194373 171.008185,117.143147 171.07433,117.128725 C172.849321,116.738813 174.913265,116.738813 176.693229,117.128725 C176.759375,117.143147 176.811098,117.194373 176.82552,117.261016 C177.020476,118.145279 177.118948,119.090714 177.118948,120.070963 C177.118948,121.049719 177.020476,121.995652 176.82552,122.880412 C176.811098,122.947055 176.759375,122.998281 176.693229,123.013201 C175.803993,123.207659 174.858558,123.306629 173.88378,123.306629" id="Fill-97" fill="#FFFFFF" mask="url(#mask-2)"></path>
            <path d="M173.883929,114.81671 C170.987446,114.81671 168.630572,117.173584 168.630572,120.070565 C168.630572,122.967545 170.987446,125.323922 173.883929,125.323922 C176.780412,125.323922 179.137286,122.967545 179.137286,120.070565 C179.137286,117.173584 176.780412,114.81671 173.883929,114.81671 M173.883929,126.069925 C170.576149,126.069925 167.884568,123.378842 167.884568,120.070565 C167.884568,116.762288 170.576149,114.070707 173.883929,114.070707 C177.191709,114.070707 179.88329,116.762288 179.88329,120.070565 C179.88329,123.378842 177.191709,126.069925 173.883929,126.069925" id="Fill-99" fill="#FFFFFF" mask="url(#mask-2)"></path>
            <path d="M215.641627,93.8451083 C215.514309,93.8451083 215.386991,93.7963694 215.290011,93.699389 C212.945073,91.3539538 209.827773,90.0628703 206.511538,90.0628703 C203.195304,90.0628703 200.077009,91.3539538 197.731574,93.699389 C197.537613,93.8938472 197.222799,93.8938472 197.028341,93.699389 C196.83438,93.5049307 196.83438,93.1906146 197.028341,92.9961563 C199.561272,90.4627282 202.929229,89.0681989 206.511538,89.0681989 C210.09335,89.0681989 213.46081,90.4627282 215.993243,92.9961563 C216.187702,93.1906146 216.187702,93.5049307 215.993243,93.699389 C215.896263,93.7963694 215.768945,93.8451083 215.641627,93.8451083" id="Fill-100" fill="#53E0BB" mask="url(#mask-2)"></path>
            <path d="M212.902401,96.2919503 C212.775083,96.2919503 212.647766,96.2432114 212.550785,96.1462309 C210.937925,94.5328739 208.792917,93.6446323 206.51114,93.6446323 C204.229861,93.6446323 202.084355,94.5328739 200.470998,96.1462309 C200.27654,96.3406892 199.961726,96.3406892 199.767766,96.1462309 C199.573307,95.9517726 199.573307,95.6374565 199.767766,95.4429982 C201.568618,93.6416483 203.963787,92.6499609 206.51114,92.6499609 C209.058494,92.6499609 211.453663,93.6416483 213.254018,95.4429982 C213.448476,95.6374565 213.448476,95.9517726 213.254018,96.1462309 C213.157037,96.2432114 213.029719,96.2919503 212.902401,96.2919503" id="Fill-101" fill="#FFD93B" mask="url(#mask-2)"></path>
            <path d="M210.163176,99.0292362 C210.035858,99.0292362 209.90854,98.9804973 209.81156,98.8835169 C208.930281,98.0012433 207.75806,97.5153464 206.510742,97.5153464 C205.263425,97.5153464 204.091702,98.0012433 203.210423,98.8835169 C203.015964,99.0779751 202.701151,99.0779751 202.506693,98.8835169 C202.312732,98.689556 202.312732,98.3747425 202.506693,98.1802842 C203.575964,97.1105151 204.997847,96.520675 206.510742,96.520675 C208.023638,96.520675 209.446018,97.1105151 210.514792,98.1802842 C210.70925,98.3747425 210.70925,98.689556 210.514792,98.8835169 C210.417812,98.9804973 210.290494,99.0292362 210.163176,99.0292362" id="Fill-102" fill="#C15EEA" mask="url(#mask-2)"></path>
            <path d="M207.946551,101.885037 C207.819233,101.885037 207.691915,101.836298 207.594934,101.739815 C207.079197,101.224078 206.2387,101.224078 205.722963,101.739815 C205.529002,101.933279 205.213691,101.933776 205.019233,101.739318 C204.825769,101.544362 204.825769,101.230046 205.01973,101.035588 C205.924384,100.133421 207.394011,100.133421 208.298167,101.035588 C208.492625,101.230046 208.492625,101.544362 208.298664,101.739318 C208.201684,101.836298 208.073869,101.885037 207.946551,101.885037" id="Fill-103" fill="#53E0BB" mask="url(#mask-2)"></path>
        </g>
    </g>
</svg>