<?xml version="1.0" encoding="UTF-8"?>
<svg width="11px" height="22px" viewBox="0 0 11 22" version="1.1" xmlns="http://www.w3.org/2000/svg" xmlns:xlink="http://www.w3.org/1999/xlink">
    <!-- Generator: sketchtool 49 (51002) - http://www.bohemiancoding.com/sketch -->
    <title>5EA3985C-0DCC-44B9-8AB8-B8442FBD8DC8</title>
    <desc>Created with sketchtool.</desc>
    <defs></defs>
    <g id="HOMEPAGE" stroke="none" stroke-width="1" fill="none" fill-rule="evenodd" stroke-linecap="round" stroke-linejoin="round">
        <g id="Home-Page---1.0" transform="translate(-967.000000, -1401.000000)" stroke="#FF836F">
            <g id="Group-17" transform="translate(0.000000, 1024.000000)">
                <g id="Page-1" transform="translate(968.000000, 378.000000)">
                    <path d="M8.68609286,4.60058065 C8.68609286,2.32767742 6.84945,0.483806452 4.58466429,0.483806452 C2.31795,0.483806452 0.48195,2.32767742 0.48195,4.60058065 C0.48195,6.17154839 1.35945,7.53670968 2.64902143,8.23090323 L2.64902143,10.2592903 L4.49402143,12.1109032 L2.77695,13.8354194 L4.49402143,15.5599355 L2.64902143,17.4115484 L2.64902143,17.8534839 L2.65480714,17.8534839 L4.58273571,19.7889677 L6.51323571,17.8534839 L6.51773571,17.8534839 L6.51773571,8.23090323 C7.80795,7.538 8.68609286,6.17154839 8.68609286,4.60058065 Z" id="Stroke-1" stroke-width="1.5"></path>
                    <path d="M5.47997143,3.59187097 C5.47997143,4.08929032 5.07947143,4.49122581 4.58447143,4.49122581 C4.08882857,4.49122581 3.68832857,4.08929032 3.68832857,3.59187097 C3.68832857,3.09445161 4.08882857,2.69251613 4.58447143,2.69251613 C5.07947143,2.69251613 5.47997143,3.09445161 5.47997143,3.59187097 Z" id="Stroke-3"></path>
                </g>
            </g>
        </g>
    </g>
</svg>