<svg xmlns="http://www.w3.org/2000/svg" xmlns:xlink="http://www.w3.org/1999/xlink" width="160" height="33" viewBox="0 0 160 33">
    <defs>
        <path id="a" d="M0 33.784h160V1H0z"/>
    </defs>
    <g fill="none" fill-rule="evenodd" transform="translate(0 -1)">
        <path fill="#FEFEFE" d="M6.465 25.926a9.402 9.402 0 0 1 1.219-1.141c.214.004.333-.097.34-.316.37-.48.838-.772 1.439-.924 1.369-.344 2.723-.748 4.082-1.127.136-.03.273-.053.405-.086 6.496-1.693 12.993-3.392 19.49-5.076 2.177-.564 4.363-1.09 6.546-1.635a.483.483 0 0 1 .159.309l-2.077.97c-.121-.072-.173-.005-.21.1a47.494 47.494 0 0 1-3.634 1.67c-.174-.111-.263-.041-.302.14l-.413.177c-.272-.125-.475-.108-.52.246-2.2 1.006-4.41 1.988-6.664 2.867-.168-.11-.26-.047-.302.133-.14.066-.278.138-.42.2a378.83 378.83 0 0 1-11.127 4.436c-1.63.62-3.258 1.248-4.887 1.873-1.53.536-3.06 1.077-4.593 1.606-1.304.45-2.615.887-3.924 1.326a30.82 30.82 0 0 1-.216-.445c.473-.522.983-1.006 1.528-1.453.292.009.445-.125.443-.424.44-.485.917-.93 1.425-1.344.189-.008.306-.086.3-.291.465-.486.944-.957 1.469-1.377.437.17.439-.125.444-.414z"/>
        <path fill="#53E0BB" d="M26.325 22.1c2.254-.88 4.465-1.862 6.664-2.868l.52-.246.413-.176.301-.14A47.144 47.144 0 0 0 37.857 17l.21-.1 2.077-.97.523-.173c-.043.264-.274.346-.456.467a1841.583 1841.583 0 0 1-21.773 14.254 377.152 377.152 0 0 0-4.786 3.12c-.422.28-.67.263-.96-.186-1.015-1.569-2.065-3.116-3.103-4.67 1.63-.625 3.257-1.252 4.886-1.873a379.42 379.42 0 0 0 11.128-4.436c.142-.063.28-.135.42-.2.1-.046.2-.089.302-.134"/>
        <path fill="#F98470" d="M10.519 21.492c-.761 0-1.447.01-2.134-.004-.288-.006-.323-.29-.411-.48-1.978-4.293-1.922-8.563.318-12.727 2.73-5.08 8.549-7.978 14.12-7.137 6.078.92 10.706 5.221 11.874 11.08.252 1.27.387 1.102-.893 1.118-.894.01-.894.004-1.094-.887-1.243-5.557-6.096-9.46-11.745-9.449-5.681.01-10.536 3.93-11.728 9.521-.617 2.891-.158 5.643 1.268 8.231.126.226.259.45.425.734"/>
        <path fill="#FFD93B" d="M12.071 20.861c-2.46-3.143-2.53-8.119-.162-11.65 2.314-3.455 6.542-5.278 10.58-4.42 4.368.927 7.121 3.615 8.241 7.96.12.46.008.585-.447.54-.464-.045-1.004.1-1.379-.09-.373-.19-.318-.795-.476-1.207-1.366-3.574-5.086-5.84-8.826-5.358-3.954.51-6.977 3.537-7.39 7.43-.136 1.272-.002 2.525.468 3.725.12.3.101.478-.167.7-.922.761-.91.774-.53 1.886.053.158.158.312.078.496l.01-.012z"/>
        <path fill="#FDFCFC" d="M40.667 15.758l-.522.172a.483.483 0 0 0-.159-.31c-.007-.061.28-.055.044-.157-.079-.035-.198.029-.301.047-1.579.29-3.158.578-4.737.87-5.702 1.058-11.403 2.12-17.105 3.179-1.63.3-3.262.59-4.893.883 1.553-1.557 3.2-3.014 4.806-4.514.157-.15.337-.154.528-.156 6.684-.114 13.364-.352 20.046-.534 1.072-.027 2.145-.001 3.205-.001-.229.228-.628.285-.912.52"/>
        <path fill="#C15EEA" d="M25.565 13.144c-.12-.006-.242-.023-.363-.012-.513.043-.822-.166-1.118-.619-1.01-1.535-2.942-2.193-4.702-1.685-1.796.52-3.056 2.1-3.114 3.966-.012.385-.108.651-.419.873-.308.221-.586.487-.879.731-.454.38-.47.373-.586-.229-.252-1.312-.143-2.597.444-3.798 1.17-2.397 3.108-3.69 5.782-3.672 2.653.017 4.556 1.33 5.711 3.705.37.758.347.77-.496.748-.086-.002-.172 0-.26 0v-.008z"/>
        <path fill="#53E0BB" d="M12.994 20.441c1.631-.293 3.263-.582 4.893-.883 5.702-1.058 11.403-2.12 17.105-3.178 1.58-.293 3.158-.58 4.736-.87.104-.018.223-.083.302-.048.235.102-.052.096-.044.16-2.183.544-4.369 1.07-6.546 1.633-6.498 1.684-12.994 3.383-19.49 5.077-.133.033-.269.056-.405.086-.058-.536-.343-.995-.49-1.5-.044-.155-.187-.299-.06-.477"/>
        <path fill="#FDFCFC" d="M.856 31.228c.07.15.144.3.217.445L0 32.085c.302-.394.568-.636.856-.857M6.465 25.926c-.005.289-.007.584-.444.414a1.45 1.45 0 0 1 .444-.414M2.827 29.351c.002.3-.15.434-.443.424a1.36 1.36 0 0 1 .443-.424M8.024 24.469c-.007.219-.126.32-.34.316.111-.105.226-.211.34-.316M4.553 27.717c.005.205-.112.283-.301.29l.3-.29M12.062 20.873c.024.004.05.006.072.008-.01.006-.02.013-.027.012-.013-.006-.024-.022-.035-.032l-.01.012zM33.509 18.986l-.52.246c.045-.353.249-.37.52-.246M34.224 18.67l-.302.14c.039-.181.128-.251.302-.14M26.325 22.1c-.103.044-.202.087-.303.133.042-.18.135-.242.303-.134M38.067 16.9l-.21.1c.037-.106.09-.172.21-.1"/>
        <path fill="#FFF" d="M64.824 18.924v7.275a10.536 10.536 0 0 1-3.016 1.514c-1.064.332-2.225.5-3.48.5-1.507 0-2.869-.234-4.086-.701-1.218-.47-2.255-1.121-3.11-1.963a8.571 8.571 0 0 1-1.984-3.012c-.463-1.17-.694-2.457-.694-3.86 0-1.411.223-2.704.668-3.876.448-1.174 1.086-2.18 1.917-3.016.832-.836 1.838-1.484 3.02-1.95 1.183-.462 2.51-.692 3.983-.692.745 0 1.434.054 2.071.168a9.506 9.506 0 0 1 1.774.48 8.622 8.622 0 0 1 2.807 1.729l-.794 1.246a.79.79 0 0 1-.479.377c-.2.052-.416.006-.65-.145a18.668 18.668 0 0 1-.748-.453 5.49 5.49 0 0 0-.974-.48 8.169 8.169 0 0 0-1.319-.377 8.873 8.873 0 0 0-1.779-.157c-1.023 0-1.944.168-2.768.5a5.807 5.807 0 0 0-2.104 1.438c-.58.623-1.026 1.375-1.338 2.254-.312.877-.468 1.863-.468 2.955 0 1.142.163 2.168.494 3.072.328.904.794 1.672 1.397 2.299a5.894 5.894 0 0 0 2.195 1.436c.861.328 1.824.494 2.891.494.416 0 .803-.024 1.163-.071a8.645 8.645 0 0 0 1.032-.201c.33-.088.648-.197.955-.326.307-.131.612-.273.916-.428V21.04h-2.755a.588.588 0 0 1-.422-.154.524.524 0 0 1-.163-.391v-1.572h5.848z"/>
        <mask id="b" fill="#fff">
            <use xlink:href="#a"/>
        </mask>
        <path fill="#FFF" d="M67.978 28.006h2.548V8.83h-2.548zM74.255 28.006h2.533V14.805h-2.533v13.201zm3.015-17.28c0 .233-.048.457-.144.67a1.849 1.849 0 0 1-.383.557c-.16.162-.349.287-.565.377a1.712 1.712 0 0 1-1.891-.377 1.747 1.747 0 0 1-.377-.557 1.707 1.707 0 0 1-.136-.67c0-.242.046-.47.136-.681a1.778 1.778 0 0 1 .93-.936 1.71 1.71 0 0 1 1.338 0c.216.09.405.217.565.377.159.16.287.346.383.559.096.211.144.439.144.681zM88.975 18.002c-.416-.545-.864-.926-1.346-1.145a3.925 3.925 0 0 0-1.616-.324c-1.16 0-2.06.418-2.696 1.254-.637.836-.955 2.055-.955 3.656 0 .842.072 1.559.214 2.15.143.596.352 1.079.624 1.458.273.375.609.654 1.006.83.4.178.849.267 1.352.267.736 0 1.372-.166 1.91-.494.536-.33 1.039-.793 1.507-1.39v-6.262zm2.547-9.172v19.176h-1.534c-.356 0-.576-.17-.661-.508l-.222-1.52a6.996 6.996 0 0 1-1.916 1.606c-.716.402-1.54.604-2.476.604a4.672 4.672 0 0 1-2.046-.442 4.32 4.32 0 0 1-1.565-1.293c-.433-.566-.767-1.27-1.001-2.111-.233-.84-.35-1.805-.35-2.9 0-.977.13-1.885.389-2.725.259-.84.637-1.57 1.13-2.184a5.353 5.353 0 0 1 1.793-1.45c.702-.35 1.495-.524 2.378-.524.797 0 1.475.13 2.034.388a4.854 4.854 0 0 1 1.5 1.106V8.83h2.547zM103.81 19.937a4.35 4.35 0 0 0-.212-1.389 3.178 3.178 0 0 0-.631-1.105 2.873 2.873 0 0 0-1.013-.729c-.4-.172-.857-.259-1.377-.259-1.067 0-1.905.308-2.515.923-.61.614-1 1.467-1.163 2.56h6.912zm2.094 6.184a5.004 5.004 0 0 1-1.08.941c-.407.266-.84.48-1.298.645a7.96 7.96 0 0 1-1.423.363 9.204 9.204 0 0 1-1.448.117c-.91 0-1.752-.154-2.528-.46a5.634 5.634 0 0 1-2.013-1.353c-.57-.593-1.01-1.33-1.325-2.208-.317-.879-.475-1.89-.475-3.034 0-.918.143-1.773.43-2.566a6.17 6.17 0 0 1 1.226-2.072 5.698 5.698 0 0 1 1.955-1.39c.77-.337 1.638-.507 2.599-.507.806 0 1.548.131 2.228.397.68.263 1.268.648 1.76 1.15.494.502.882 1.121 1.163 1.857.282.737.422 1.577.422 2.52 0 .391-.042.652-.13.787-.086.135-.246.201-.48.201h-8.653c.027.787.139 1.475.338 2.06.2.585.475 1.07.826 1.46.348.39.768.681 1.253.871a4.401 4.401 0 0 0 1.624.285c.563 0 1.05-.064 1.46-.193.414-.13.768-.27 1.068-.422.299-.153.55-.293.753-.424.203-.129.383-.193.539-.193.207 0 .368.076.48.232l.729.936zM119.14 12.637a1.206 1.206 0 0 1-.33.395.731.731 0 0 1-.436.125c-.182 0-.38-.067-.59-.202a16.272 16.272 0 0 0-.76-.45 6.361 6.361 0 0 0-1.033-.446c-.394-.135-.86-.203-1.397-.203-.485 0-.91.058-1.273.176a2.643 2.643 0 0 0-.915.488 1.934 1.934 0 0 0-.553.746 2.444 2.444 0 0 0-.182.955c0 .44.123.81.37 1.104.246.294.575.546.982.753.406.209.869.397 1.389.559.52.166 1.053.342 1.599.527.545.186 1.078.403 1.598.649.519.248.982.558 1.389.937.407.377.735.838.98 1.383.248.545.372 1.207.372 1.988 0 .848-.147 1.643-.437 2.383a5.487 5.487 0 0 1-1.272 1.936c-.56.55-1.242.982-2.047 1.3-.804.315-1.728.473-2.767.473a9.207 9.207 0 0 1-4.936-1.455 7.254 7.254 0 0 1-1.248-1.012l1.026-1.677c.088-.121.2-.223.339-.305a.853.853 0 0 1 .442-.123c.216 0 .449.088.7.266.253.177.552.375.897.59.347.218.75.413 1.215.59.463.179 1.02.267 1.668.267.997 0 1.768-.235 2.314-.707.546-.471.819-1.15.819-2.033 0-.493-.124-.897-.371-1.207a2.971 2.971 0 0 0-.981-.788 7.298 7.298 0 0 0-1.39-.54 41.84 41.84 0 0 1-1.585-.48 13.922 13.922 0 0 1-1.585-.622 5.108 5.108 0 0 1-1.39-.95c-.407-.388-.733-.876-.981-1.46-.246-.586-.37-1.305-.37-2.164 0-.684.135-1.35.41-2a5.14 5.14 0 0 1 1.188-1.727c.52-.504 1.16-.906 1.924-1.21.76-.302 1.636-.454 2.624-.454 1.107 0 2.13.174 3.065.52.936.347 1.733.832 2.39 1.455l-.87 1.65zM125.845 24.549c.364.443.76.754 1.189.936.427.18.894.273 1.396.273.486 0 .922-.092 1.313-.273.389-.182.72-.46.994-.832.27-.372.482-.84.628-1.41.148-.565.223-1.235.223-2.007 0-.78-.063-1.44-.19-1.98-.125-.541-.305-.98-.537-1.318a2.164 2.164 0 0 0-.852-.743 2.659 2.659 0 0 0-1.137-.232c-.668 0-1.234.14-1.702.422-.468.28-.91.678-1.325 1.187v5.977zm-.17-8.055A6.989 6.989 0 0 1 127.534 15c.693-.381 1.508-.57 2.443-.57.728 0 1.392.15 1.994.455a4.47 4.47 0 0 1 1.56 1.318c.435.576.775 1.285 1.012 2.13.24.845.359 1.812.359 2.903 0 .997-.135 1.92-.404 2.768-.268.848-.651 1.584-1.15 2.207a5.293 5.293 0 0 1-1.806 1.463c-.706.35-1.496.525-2.37.525-.745 0-1.383-.115-1.911-.343-.53-.23-1-.547-1.415-.953v5.455h-3.21V14.676h1.962c.416 0 .689.195.819.586l.26 1.232zM143.292 25.732c1.109 0 1.93-.373 2.462-1.117.532-.746.799-1.836.799-3.276 0-1.437-.267-2.533-.799-3.287-.532-.752-1.353-1.129-2.462-1.129-1.126 0-1.96.377-2.501 1.137-.543.758-.812 1.85-.812 3.28 0 1.43.269 2.517.812 3.267.541.75 1.375 1.125 2.501 1.125m0-11.264c.987 0 1.886.16 2.695.48.81.321 1.503.776 2.079 1.364.577.59 1.021 1.31 1.332 2.156.313.85.467 1.8.467 2.846 0 1.057-.154 2.01-.467 2.857-.311.85-.755 1.575-1.332 2.17a5.809 5.809 0 0 1-2.079 1.377c-.809.321-1.708.481-2.695.481-.996 0-1.901-.16-2.716-.48a5.807 5.807 0 0 1-2.085-1.378c-.575-.595-1.021-1.32-1.337-2.17-.318-.847-.474-1.8-.474-2.857 0-1.047.156-1.996.474-2.846.316-.847.762-1.566 1.337-2.156a5.94 5.94 0 0 1 2.085-1.365c.815-.319 1.72-.479 2.716-.479M156.505 28.213c-1.161 0-2.051-.326-2.67-.98-.62-.655-.93-1.557-.93-2.71V17.08h-1.363a.619.619 0 0 1-.441-.17c-.122-.111-.184-.281-.184-.506V15.13l2.145-.352.675-3.636a.724.724 0 0 1 .247-.405.753.753 0 0 1 .468-.142h1.663v4.197h3.56v2.287h-3.56v7.223c0 .416.102.74.305.974.203.233.482.352.838.352.198 0 .365-.025.5-.072.135-.047.252-.098.35-.15.1-.053.189-.1.268-.15a.431.431 0 0 1 .233-.071c.095 0 .172.023.235.072.06.049.125.119.194.215L160 27.03a4.887 4.887 0 0 1-1.612.883 6.003 6.003 0 0 1-1.883.299" mask="url(#b)"/>
    </g>
</svg>
