<?xml version="1.0" encoding="UTF-8"?>
<svg width="492px" height="286px" viewBox="0 0 492 286" version="1.1" xmlns="http://www.w3.org/2000/svg" xmlns:xlink="http://www.w3.org/1999/xlink">
    <!-- Generator: sketchtool 49 (51002) - http://www.bohemiancoding.com/sketch -->
    <title>6723B29D-8694-4404-80E5-E34E6C5CD6D6</title>
    <desc>Created with sketchtool.</desc>
    <defs>
        <polygon id="path-1" points="0 0 491.550274 0 491.550274 285.455342 0 285.455342"></polygon>
    </defs>
    <g id="HOMEPAGE" stroke="none" stroke-width="1" fill="none" fill-rule="evenodd">
        <g id="Home-Page---1.0" transform="translate(-783.000000, -1762.000000)">
            <g id="Group-18" transform="translate(0.000000, 1655.000000)">
                <g id="Page-1" transform="translate(783.000000, 107.489990)">
                    <mask id="mask-2" fill="white">
                        <use xlink:href="#path-1"></use>
                    </mask>
                    <g id="Clip-2"></g>
                    <path d="M1.34917733,284.106165 L490.201097,284.106165 L490.201097,1.34917733 L1.34917733,1.34917733 L1.34917733,284.106165 Z M490.875686,285.455342 L0.674588665,285.455342 C0.301316271,285.455342 0,285.153126 0,284.780753 L0,0.674588665 C0,0.302215722 0.301316271,0 0.674588665,0 L490.875686,0 C491.247159,0 491.550274,0.302215722 491.550274,0.674588665 L491.550274,284.780753 C491.550274,285.153126 491.247159,285.455342 490.875686,285.455342 Z" id="Fill-1" fill="#FF836F" mask="url(#mask-2)"></path>
                    <path d="M163.686151,245.284846 L0.674948446,245.284846 C0.301676051,245.284846 0.000359780622,244.98263 0.000359780622,244.610257 L0.000359780622,0.67449872 C0.000359780622,0.302125777 0.301676051,-8.99451554e-05 0.674948446,-8.99451554e-05 L163.686151,-8.99451554e-05 C164.057625,-8.99451554e-05 164.359841,0.302125777 164.359841,0.67449872 L164.359841,108.776883 C164.359841,109.149256 164.057625,109.451471 163.686151,109.451471 C163.312879,109.451471 163.010663,109.149256 163.010663,108.776883 L163.010663,1.34908739 L1.34953711,1.34908739 L1.34953711,243.935669 L163.010663,243.935669 L163.010663,238.495786 C163.010663,238.123413 163.312879,237.821197 163.686151,237.821197 C164.057625,237.821197 164.359841,238.123413 164.359841,238.495786 L164.359841,244.610257 C164.359841,244.98263 164.057625,245.284846 163.686151,245.284846" id="Fill-3" fill="#FF836F" mask="url(#mask-2)"></path>
                    <path d="M163.686151,207.441052 C163.312879,207.441052 163.010663,207.138836 163.010663,206.766463 L163.010663,140.507465 C163.010663,140.135092 163.312879,139.832876 163.686151,139.832876 C164.057625,139.832876 164.359841,140.135092 164.359841,140.507465 L164.359841,206.766463 C164.359841,207.138836 164.057625,207.441052 163.686151,207.441052" id="Fill-4" fill="#FF836F" mask="url(#mask-2)"></path>
                    <path d="M422.178274,145.73121 L201.528417,145.73121 C201.156044,145.73121 200.853828,145.428994 200.853828,145.056621 L200.853828,137.682018 C200.853828,137.309645 201.156044,137.007429 201.528417,137.007429 C201.90079,137.007429 202.203005,137.309645 202.203005,137.682018 L202.203005,144.382032 L422.178274,144.382032 C422.549748,144.382032 422.852863,144.684248 422.852863,145.056621 C422.852863,145.428994 422.549748,145.73121 422.178274,145.73121" id="Fill-5" fill="#FF836F" mask="url(#mask-2)"></path>
                    <path d="M490.875686,145.73121 L453.905528,145.73121 C453.533155,145.73121 453.23094,145.428994 453.23094,145.056621 C453.23094,144.684248 453.533155,144.382032 453.905528,144.382032 L490.201097,144.382032 L490.201097,1.34944717 L202.203005,1.34944717 L202.203005,18.5280724 C202.203005,18.9004453 201.90079,19.2026611 201.528417,19.2026611 C201.156044,19.2026611 200.853828,18.9004453 200.853828,18.5280724 L200.853828,0.674858501 C200.853828,0.301586106 201.156044,0.000269835466 201.528417,0.000269835466 L490.875686,0.000269835466 C491.247159,0.000269835466 491.550274,0.301586106 491.550274,0.674858501 L491.550274,145.056621 C491.550274,145.428994 491.247159,145.73121 490.875686,145.73121" id="Fill-6" fill="#FF836F" mask="url(#mask-2)"></path>
                    <path d="M201.528057,109.63361 C201.155684,109.63361 200.853468,109.331395 200.853468,108.959022 L200.853468,56.1774055 C200.853468,55.8050325 201.155684,55.5028168 201.528057,55.5028168 C201.90043,55.5028168 202.202646,55.8050325 202.202646,56.1774055 L202.202646,108.959022 C202.202646,109.331395 201.90043,109.63361 201.528057,109.63361" id="Fill-7" fill="#FF836F" mask="url(#mask-2)"></path>
                    <path d="M201.528057,96.8270391 L163.686331,96.8270391 C163.313059,96.8270391 163.010843,96.5248234 163.010843,96.1524505 C163.010843,95.7800775 163.313059,95.4778618 163.686331,95.4778618 L201.528057,95.4778618 C201.90043,95.4778618 202.202646,95.7800775 202.202646,96.1524505 C202.202646,96.5248234 201.90043,96.8270391 201.528057,96.8270391" id="Fill-8" fill="#FF836F" mask="url(#mask-2)"></path>
                    <path d="M163.686151,145.73121 L0.674948446,145.73121 C0.301676051,145.73121 0.000359780622,145.428994 0.000359780622,145.056621 C0.000359780622,144.684248 0.301676051,144.382032 0.674948446,144.382032 L163.686151,144.382032 C164.057625,144.382032 164.359841,144.684248 164.359841,145.056621 C164.359841,145.428994 164.057625,145.73121 163.686151,145.73121" id="Fill-9" fill="#FF836F" mask="url(#mask-2)"></path>
                    <path d="M381.424574,145.73121 C381.052201,145.73121 380.749985,145.428994 380.749985,145.056621 L380.749985,53.8495349 C380.749985,53.477162 381.052201,53.1749463 381.424574,53.1749463 C381.796048,53.1749463 382.099163,53.477162 382.099163,53.8495349 L382.099163,145.056621 C382.099163,145.428994 381.796048,145.73121 381.424574,145.73121" id="Fill-10" fill="#FF836F" mask="url(#mask-2)"></path>
                    <path d="M381.424574,22.1136461 C381.052201,22.1136461 380.749985,21.8114303 380.749985,21.4390574 L380.749985,0.67431883 C380.749985,0.301945887 381.052201,-0.000269835466 381.424574,-0.000269835466 C381.796048,-0.000269835466 382.099163,0.301945887 382.099163,0.67431883 L382.099163,21.4390574 C382.099163,21.8114303 381.796048,22.1136461 381.424574,22.1136461" id="Fill-11" fill="#FF836F" mask="url(#mask-2)"></path>
                    <path d="M490.875686,66.5539283 L381.424124,66.5539283 C381.051751,66.5539283 380.749536,66.2517126 380.749536,65.8793397 C380.749536,65.5069667 381.051751,65.204751 381.424124,65.204751 L490.875686,65.204751 C491.247159,65.204751 491.550274,65.5069667 491.550274,65.8793397 C491.550274,66.2517126 491.247159,66.5539283 490.875686,66.5539283" id="Fill-12" fill="#FF836F" mask="url(#mask-2)"></path>
                    <path d="M290.601914,242.373052 L282.450184,242.373052 C282.078711,242.373052 281.776495,242.070836 281.776495,241.698463 C281.776495,241.32609 282.078711,241.023874 282.450184,241.023874 L289.927325,241.023874 L289.927325,145.731479 L202.202916,145.731479 L202.202916,241.023874 L250.72293,241.023874 C251.096203,241.023874 251.396619,241.32609 251.396619,241.698463 C251.396619,242.070836 251.096203,242.373052 250.72293,242.373052 L201.528327,242.373052 C201.155954,242.373052 200.853738,242.070836 200.853738,241.698463 L200.853738,145.056891 C200.853738,144.684518 201.155954,144.382302 201.528327,144.382302 L290.601914,144.382302 C290.974287,144.382302 291.276502,144.684518 291.276502,145.056891 L291.276502,241.698463 C291.276502,242.070836 290.974287,242.373052 290.601914,242.373052" id="Fill-13" fill="#FF836F" mask="url(#mask-2)"></path>
                    <path d="M117.331027,196.982319 C117.331027,210.439014 106.421579,221.348461 92.9648841,221.348461 C79.5072899,221.348461 68.5987415,210.439014 68.5987415,196.982319 C68.5987415,183.524725 79.5072899,172.617076 92.9648841,172.617076 C106.421579,172.617076 117.331027,183.524725 117.331027,196.982319" id="Fill-14" fill="#FF836F" mask="url(#mask-2)"></path>
                    <path d="M92.6505258,217.787443 C83.3645879,217.788342 74.8800614,211.513768 72.4884197,202.110902 C72.427257,201.870748 72.5729682,201.626097 72.8131218,201.564935 C73.0541748,201.501073 73.2979261,201.650382 73.3590888,201.889637 C76.066438,212.524752 86.9228183,218.979216 97.5534362,216.270967 C108.188551,213.564518 114.641217,202.709936 111.933868,192.074821 C109.806665,183.705424 102.591264,177.696189 93.983513,177.11964 C91.8904892,176.976627 89.7911693,177.172708 87.7395203,177.692591 C87.4975678,177.755552 87.2556154,177.607143 87.1944527,177.367889 C87.1323905,177.126836 87.2781016,176.881286 87.5191547,176.821022 C89.6625477,176.276854 91.8599079,176.075377 94.0437762,176.221988 C103.04099,176.82462 110.581992,183.10549 112.807235,191.853556 C115.63601,202.968978 108.892822,214.31466 97.7765002,217.142536 C96.0621455,217.57877 94.3423941,217.787443 92.6505258,217.787443" id="Fill-15" fill="#D86F5D" mask="url(#mask-2)"></path>
                    <path d="M108.336511,200.598564 C108.308628,200.598564 108.278047,200.595865 108.247465,200.589569 C108.004614,200.540999 107.84631,200.303544 107.897579,200.058893 C108.361696,197.761694 108.303231,195.435712 107.722186,193.146608 C105.607575,184.835675 97.1239481,179.796048 88.8103174,181.90886 C85.6991144,182.701277 82.9476921,184.403939 80.8582662,186.833357 C80.6963649,187.023141 80.4130377,187.042929 80.2241528,186.881028 C80.0370669,186.719127 80.0145806,186.4349 80.1764819,186.246915 C82.3873338,183.677182 85.297959,181.87558 88.5899517,181.037291 C97.3757945,178.797657 106.355019,184.132304 108.593754,192.925343 C109.20808,195.345767 109.270142,197.806666 108.777242,200.238783 C108.734968,200.451054 108.546083,200.598564 108.336511,200.598564" id="Fill-16" fill="#D86F5D" mask="url(#mask-2)"></path>
                    <path d="M103.502769,195.425008 C103.272509,195.425008 103.042249,195.336862 102.866856,195.161469 C100.222469,192.516182 96.7047137,191.059071 92.9647941,191.059071 C89.2248746,191.059071 85.708019,192.516182 83.062732,195.161469 C82.7119459,195.513155 82.1425931,195.513155 81.7909075,195.161469 C81.4401214,194.809784 81.4401214,194.24133 81.7909075,193.889645 C84.7761872,190.905264 88.7445675,189.260167 92.9647941,189.260167 C97.1859203,189.260167 101.154301,190.905264 104.138681,193.889645 C104.490366,194.24133 104.490366,194.809784 104.138681,195.161469 C103.963288,195.336862 103.733028,195.425008 103.502769,195.425008" id="Fill-17" fill="#53E0BB" mask="url(#mask-2)"></path>
                    <path d="M85.5884819,198.249826 C85.3582223,198.249826 85.1279627,198.16168 84.9525697,197.986287 C84.6008841,197.634601 84.6008841,197.066148 84.9525697,196.714462 C87.0923649,194.572868 89.9382296,193.394586 92.9648841,193.394586 C95.9915386,193.394586 98.8374033,194.572868 100.976299,196.714462 C101.327985,197.066148 101.327985,197.634601 100.976299,197.986287 C100.625513,198.337972 100.05616,198.337972 99.7044746,197.986287 C97.904672,196.185585 95.5112314,195.19349 92.9648841,195.19349 C90.4185367,195.19349 88.0250962,196.185585 86.2243941,197.986287 C86.0490011,198.16168 85.8187415,198.249826 85.5884819,198.249826" id="Fill-18" fill="#FFD93B" mask="url(#mask-2)"></path>
                    <path d="M97.1802537,201.406721 C96.9499941,201.406721 96.7197346,201.318575 96.5443415,201.143182 C94.5700453,199.170684 91.3599027,199.170684 89.3856066,201.143182 C89.033921,201.494867 88.4654676,201.494867 88.1137821,201.143182 C87.7620965,200.791496 87.7620965,200.223043 88.1137821,199.871357 C90.7896505,197.195489 95.1402976,197.195489 97.816166,199.871357 C98.1678516,200.223043 98.1678516,200.791496 97.816166,201.143182 C97.6407729,201.318575 97.4105133,201.406721 97.1802537,201.406721" id="Fill-19" fill="#C15EEA" mask="url(#mask-2)"></path>
                    <path d="M94.6215839,204.70411 C94.3913243,204.70411 94.1610647,204.615964 93.9856717,204.440571 C93.5314486,203.987248 92.7390318,203.987248 92.2857082,204.440571 C91.9349221,204.792257 91.3655693,204.792257 91.0138837,204.440571 C90.6630976,204.088886 90.6630976,203.520432 91.0138837,203.168747 C92.1840702,202.000359 94.0873097,201.99856 95.2574962,203.168747 C95.6091817,203.520432 95.6091817,204.088886 95.2574962,204.440571 C95.0821031,204.615964 94.8518435,204.70411 94.6215839,204.70411" id="Fill-20" fill="#53E0BB" mask="url(#mask-2)"></path>
                    <path d="M272.364274,195.858904 C272.364274,209.315599 261.455726,220.224147 247.999931,220.224147 C234.543236,220.224147 223.631989,209.315599 223.631989,195.858904 C223.631989,182.40041 234.543236,171.493661 247.999931,171.493661 C261.455726,171.493661 272.364274,182.40041 272.364274,195.858904" id="Fill-21" fill="#FF836F" mask="url(#mask-2)"></path>
                    <path d="M247.686472,216.663128 C238.401433,216.663128 229.915108,210.388554 227.522567,200.986587 C227.460505,200.746434 227.605316,200.501783 227.846369,200.44062 C228.088322,200.37586 228.331174,200.525169 228.392336,200.765322 C231.099686,211.399538 241.952468,217.854002 252.589382,215.146653 C263.224497,212.441103 269.675364,201.586521 266.970713,190.950507 C264.840812,182.58201 257.62721,176.572774 249.019459,175.996225 C246.921938,175.855011 244.826216,176.047494 242.776366,176.569176 C242.531715,176.630339 242.289762,176.484627 242.229499,176.243574 C242.166537,176.003421 242.313148,175.757871 242.553302,175.697607 C244.698494,175.153439 246.894055,174.95556 249.079722,175.098573 C258.076936,175.701205 265.616139,181.982075 267.841382,190.729242 C270.670157,201.844664 263.928768,213.190346 252.811547,216.018222 C251.098091,216.455355 249.37834,216.663128 247.686472,216.663128" id="Fill-22" fill="#D86F5D" mask="url(#mask-2)"></path>
                    <path d="M263.373267,199.474249 C263.343585,199.474249 263.314802,199.471551 263.280623,199.465255 C263.03957,199.416684 262.882166,199.17833 262.931636,198.934578 C263.396652,196.640977 263.338188,194.314995 262.755343,192.023193 C260.639833,183.71226 252.158005,178.673533 243.846173,180.785445 C240.732272,181.576962 237.983548,183.279624 235.894122,185.709043 C235.73402,185.897928 235.448894,185.919514 235.260009,185.756714 C235.071124,185.594812 235.050437,185.311485 235.212338,185.1226 C237.42229,182.552867 240.332016,180.751266 243.625808,179.913876 C252.417947,177.67694 261.389076,183.010688 263.627811,191.801928 C264.243036,194.22595 264.305098,196.68505 263.813098,199.114469 C263.769025,199.327639 263.581939,199.474249 263.373267,199.474249" id="Fill-23" fill="#D86F5D" mask="url(#mask-2)"></path>
                    <path d="M258.536106,194.301503 C258.305846,194.301503 258.075587,194.213357 257.900194,194.037964 C255.255806,191.392677 251.738051,189.935566 247.998132,189.935566 C244.258212,189.935566 240.741356,191.392677 238.096069,194.037964 C237.745283,194.38965 237.175931,194.38965 236.824245,194.037964 C236.473459,193.686279 236.473459,193.117825 236.824245,192.76614 C239.809525,189.78086 243.777905,188.136663 247.998132,188.136663 C252.219258,188.136663 256.187638,189.78086 259.172018,192.76614 C259.523704,193.117825 259.523704,193.686279 259.172018,194.037964 C258.996625,194.213357 258.766366,194.301503 258.536106,194.301503" id="Fill-24" fill="#53E0BB" mask="url(#mask-2)"></path>
                    <path d="M240.621729,197.125512 C240.39147,197.125512 240.16121,197.037365 239.985817,196.861972 C239.634132,196.510287 239.634132,195.941833 239.985817,195.590148 C242.125612,193.449453 244.971477,192.271171 247.998132,192.271171 C251.024786,192.271171 253.870651,193.449453 256.009547,195.590148 C256.361232,195.941833 256.361232,196.511186 256.009547,196.861972 C255.658761,197.213658 255.089408,197.213658 254.737722,196.861972 C252.93792,195.06127 250.544479,194.070075 247.998132,194.070075 C245.451784,194.070075 243.058344,195.06127 241.257642,196.861972 C241.082249,197.037365 240.851989,197.125512 240.621729,197.125512" id="Fill-25" fill="#FFD93B" mask="url(#mask-2)"></path>
                    <path d="M252.213591,200.283216 C251.983332,200.283216 251.753072,200.19507 251.577679,200.019677 C249.603383,198.04718 246.39324,198.04718 244.418944,200.019677 C244.067259,200.371362 243.498805,200.371362 243.14712,200.019677 C242.795434,199.667991 242.795434,199.099538 243.14712,198.747852 C245.822988,196.071984 250.173635,196.071984 252.849503,198.747852 C253.201189,199.099538 253.201189,199.667991 252.849503,200.019677 C252.67411,200.19507 252.443851,200.283216 252.213591,200.283216" id="Fill-26" fill="#C15EEA" mask="url(#mask-2)"></path>
                    <path d="M249.654921,203.580695 C249.424662,203.580695 249.194402,203.492549 249.019009,203.317156 C248.564786,202.862933 247.772369,202.862933 247.319046,203.317156 C246.96826,203.668842 246.398907,203.668842 246.047221,203.317156 C245.696435,202.965471 245.696435,202.397017 246.047221,202.045332 C247.217408,200.876045 249.120647,200.874246 250.290834,202.045332 C250.642519,202.397017 250.642519,202.965471 250.290834,203.317156 C250.115441,203.492549 249.885181,203.580695 249.654921,203.580695" id="Fill-27" fill="#53E0BB" mask="url(#mask-2)"></path>
                    <path d="M314.968776,77.6925565 C314.968776,91.1492512 304.058429,102.059599 290.603533,102.059599 C277.146838,102.059599 266.23739,91.1492512 266.23739,77.6925565 C266.23739,64.2358618 277.146838,53.3273133 290.603533,53.3273133 C304.058429,53.3273133 314.968776,64.2358618 314.968776,77.6925565" id="Fill-28" fill="#FF836F" mask="url(#mask-2)"></path>
                    <path d="M290.289174,98.4976804 C281.003237,98.4985799 272.51961,92.2240059 270.127068,82.8211393 C270.065906,82.5809857 270.211617,82.3363349 270.45177,82.2751722 C270.696421,82.2095122 270.936575,82.3597207 270.998637,82.5998742 C273.705986,93.2349894 284.558769,99.6885543 295.192984,96.9812051 C305.828099,94.2747554 312.279865,83.4192746 309.573416,72.7850589 C307.442615,64.4165616 300.230812,58.4073258 291.623061,57.8298779 C289.528238,57.6877645 287.428019,57.8829455 285.377269,58.4046274 C285.133518,58.467589 284.892465,58.3191795 284.831302,58.079026 C284.77014,57.8388724 284.914951,57.5942216 285.156904,57.5330589 C287.299397,56.9879912 289.496758,56.7874135 291.684224,56.9322252 C300.678739,57.5357572 308.219741,63.8166274 310.444984,72.5637938 C313.273759,83.6783166 306.531471,95.0239985 295.41335,97.8527737 C293.701694,98.2890077 291.982842,98.4976804 290.289174,98.4976804" id="Fill-29" fill="#D86F5D" mask="url(#mask-2)"></path>
                    <path d="M290.286566,94.4088636 C281.068087,94.4088636 273.56846,86.910136 273.56846,77.6925565 C273.56846,75.8720665 273.861681,74.0767612 274.440029,72.3561104 C274.520979,72.1213536 274.773725,71.992732 275.009381,72.0736826 C275.244138,72.1528344 275.370961,72.4073792 275.29091,72.6430355 C274.745842,74.2701433 274.467912,75.9692073 274.467912,77.6925565 C274.467912,86.4136388 281.565484,93.5094121 290.286566,93.5094121 C293.207985,93.5094121 296.061944,92.7062018 298.537235,91.1879276 C303.274646,88.2853974 306.102522,83.2412731 306.102522,77.6925565 C306.102522,77.4443079 306.303999,77.2428307 306.552248,77.2428307 C306.800497,77.2428307 307.001974,77.4443079 307.001974,77.6925565 C307.001974,83.5569806 304.014895,88.88803 299.007648,91.9551598 C296.390244,93.5606808 293.374383,94.4088636 290.286566,94.4088636" id="Fill-30" fill="#D86F5D" mask="url(#mask-2)"></path>
                    <path d="M301.140608,76.1361455 C300.910348,76.1361455 300.680088,76.0479993 300.504695,75.8726062 C297.861207,73.2273192 294.343452,71.7702077 290.603533,71.7702077 C286.863613,71.7702077 283.346758,73.2273192 280.700571,75.8726062 C280.349785,76.2242918 279.780432,76.2242918 279.428747,75.8726062 C279.077961,75.5209207 279.077961,74.9524673 279.428747,74.6007817 C282.414026,71.615502 286.382407,69.9713046 290.603533,69.9713046 C294.823759,69.9713046 298.79214,71.615502 301.77652,74.6007817 C302.128205,74.9524673 302.128205,75.5209207 301.77652,75.8726062 C301.601127,76.0479993 301.370867,76.1361455 301.140608,76.1361455" id="Fill-31" fill="#53E0BB" mask="url(#mask-2)"></path>
                    <path d="M283.227131,78.9600636 C282.996871,78.9600636 282.766611,78.8719174 282.591218,78.6965243 C282.239533,78.3448388 282.239533,77.7763854 282.591218,77.4246998 C284.731014,75.2840051 287.576878,74.1057236 290.603533,74.1057236 C293.630187,74.1057236 296.476052,75.2840051 298.614048,77.4246998 C298.965734,77.7763854 298.965734,78.3457382 298.614048,78.6965243 C298.263262,79.0482099 297.693909,79.0482099 297.342224,78.6965243 C295.543321,76.8958223 293.148981,75.9046267 290.603533,75.9046267 C288.056286,75.9046267 285.663745,76.8958223 283.863043,78.6965243 C283.68765,78.8719174 283.45739,78.9600636 283.227131,78.9600636" id="Fill-32" fill="#FFD93B" mask="url(#mask-2)"></path>
                    <path d="M294.818093,82.1177682 C294.587833,82.1177682 294.357574,82.0296219 294.182181,81.8542289 C292.207884,79.8817316 288.997742,79.8817316 287.023446,81.8542289 C286.67176,82.2059144 286.103307,82.2059144 285.751621,81.8542289 C285.399936,81.5025433 285.399936,80.9340899 285.751621,80.5824044 C288.42749,77.906536 292.778137,77.906536 295.454005,80.5824044 C295.805691,80.9340899 295.805691,81.5025433 295.454005,81.8542289 C295.278612,82.0296219 295.048352,82.1177682 294.818093,82.1177682" id="Fill-33" fill="#C15EEA" mask="url(#mask-2)"></path>
                    <path d="M292.260233,85.4152475 C292.029973,85.4152475 291.799713,85.3271013 291.62432,85.1517082 C291.169198,84.6974852 290.376781,84.6974852 289.923457,85.1517082 C289.572671,85.5033938 289.003318,85.5033938 288.651633,85.1517082 C288.300847,84.8000227 288.300847,84.2315693 288.651633,83.8798837 C289.821819,82.7105967 291.725958,82.7087978 292.896145,83.8798837 C293.24783,84.2315693 293.24783,84.8000227 292.896145,85.1517082 C292.720752,85.3271013 292.490492,85.4152475 292.260233,85.4152475" id="Fill-34" fill="#53E0BB" mask="url(#mask-2)"></path>
                    <path d="M114.262008,69.7889857 C114.262008,83.2456804 103.35256,94.1560278 89.8967649,94.1560278 C76.4409697,94.1560278 65.5306223,83.2456804 65.5306223,69.7889857 C65.5306223,56.332291 76.4409697,45.4228431 89.8967649,45.4228431 C103.35256,45.4228431 114.262008,56.332291 114.262008,69.7889857" id="Fill-35" fill="#FF836F" mask="url(#mask-2)"></path>
                    <path d="M89.583306,90.5932102 C80.2973682,90.5941097 71.8119422,84.3195356 69.4203005,74.9175686 C69.3591378,74.677415 69.5039495,74.4327642 69.7450026,74.3716015 C69.9896534,74.3086399 70.2307064,74.4570494 70.2918691,74.6963035 C72.9983188,85.3305192 83.8511013,91.785883 94.4862165,89.0776344 C105.123131,86.3711846 111.573098,75.5157038 108.868447,64.8805887 C106.738546,56.5129909 99.5249441,50.503755 90.9153938,49.9263071 C88.82237,49.7859927 86.7230501,49.9793748 84.6740995,50.5010567 C84.4258508,50.5631188 84.1892951,50.4156088 84.1281324,50.1754552 C84.0660702,49.9353016 84.2117814,49.6906508 84.4519349,49.6294881 C86.5926296,49.0844205 88.7908892,48.8829433 90.9747576,49.0286545 C99.9746698,49.6321865 107.514772,55.9130567 109.739116,64.6593236 C112.566992,75.7747459 105.824703,87.1204278 94.708381,89.9492029 C92.9958252,90.3854369 91.2760739,90.5932102 89.583306,90.5932102" id="Fill-36" fill="#D86F5D" mask="url(#mask-2)"></path>
                    <path d="M89.5806077,86.5052929 C80.3621287,86.5052929 72.8625016,79.0065653 72.8625016,69.7889857 C72.8625016,67.9684958 73.1557229,66.1731905 73.7340702,64.4525397 C73.8123225,64.2177828 74.0713645,64.0891612 74.303423,64.1701119 C74.5399788,64.2492636 74.6641031,64.5038084 74.5858508,64.7394647 C74.0398837,66.3665726 73.7619532,68.0656366 73.7619532,69.7889857 C73.7619532,78.510068 80.858626,85.6058413 89.5806077,85.6058413 C92.5020263,85.6058413 95.3541872,84.8026311 97.8321762,83.2843569 C102.568688,80.3818267 105.396564,75.3368029 105.396564,69.7889857 C105.396564,69.5407371 105.598041,69.33926 105.84629,69.33926 C106.096337,69.33926 106.296015,69.5407371 106.296015,69.7889857 C106.296015,75.6525104 103.308037,80.9835598 98.3016899,84.051589 C95.6842859,85.6571101 92.6684249,86.5052929 89.5806077,86.5052929" id="Fill-37" fill="#D86F5D" mask="url(#mask-2)"></path>
                    <path d="M100.116693,68.2316753 C99.8864336,68.2316753 99.656174,68.1435291 99.480781,67.968136 C96.8363934,65.322849 93.3186384,63.8657375 89.5787188,63.8657375 C85.8387993,63.8657375 82.3219437,65.322849 79.6766567,67.968136 C79.3258706,68.3198216 78.7565177,68.3198216 78.4048322,67.968136 C78.0540461,67.6164505 78.0540461,67.0479971 78.4048322,66.6963115 C81.3901119,63.7110318 85.3584921,62.0668344 89.5787188,62.0668344 C93.799845,62.0668344 97.7682252,63.7110318 100.752605,66.6963115 C101.104291,67.0479971 101.104291,67.6164505 100.752605,67.968136 C100.577212,68.1435291 100.346953,68.2316753 100.116693,68.2316753" id="Fill-38" fill="#53E0BB" mask="url(#mask-2)"></path>
                    <path d="M82.2023166,71.0555934 C81.972057,71.0555934 81.7417974,70.9674472 81.5664044,70.7920541 C81.2147188,70.4403686 81.2147188,69.8719152 81.5664044,69.5202296 C83.7061996,67.3795349 86.5520644,66.2012534 89.5787188,66.2012534 C92.6053733,66.2012534 95.451238,67.3795349 97.5901338,69.5202296 C97.9418194,69.8719152 97.9418194,70.441268 97.5901338,70.7920541 C97.2393477,71.1437397 96.6699949,71.1437397 96.3183093,70.7920541 C94.5185068,68.9913521 92.1250662,68.0001565 89.5787188,68.0001565 C87.0323715,68.0001565 84.6389309,68.9913521 82.8382289,70.7920541 C82.6628358,70.9674472 82.4325762,71.0555934 82.2023166,71.0555934" id="Fill-39" fill="#FFD93B" mask="url(#mask-2)"></path>
                    <path d="M93.7941784,74.2133879 C93.5639188,74.2133879 93.3336592,74.1252417 93.1582662,73.9498486 C91.18397,71.9773514 87.9738274,71.9773514 85.9995313,73.9498486 C85.6478457,74.3015342 85.0793923,74.3015342 84.7277068,73.9498486 C84.3760212,73.5981631 84.3760212,73.0297097 84.7277068,72.6780241 C87.4035751,70.0021558 91.7542223,70.0021558 94.4300907,72.6780241 C94.7817762,73.0297097 94.7817762,73.5981631 94.4300907,73.9498486 C94.2546976,74.1252417 94.024438,74.2133879 93.7941784,74.2133879" id="Fill-40" fill="#C15EEA" mask="url(#mask-2)"></path>
                    <path d="M91.2355086,77.5107773 C91.005249,77.5107773 90.7749894,77.4226311 90.5995963,77.247238 C90.1453733,76.793015 89.3529565,76.793015 88.8996329,77.247238 C88.5488468,77.5989236 87.979494,77.5989236 87.6278084,77.247238 C87.2770223,76.8955525 87.2770223,76.3270991 87.6278084,75.9754135 C88.7979949,74.8061265 90.7012344,74.8043276 91.8714208,75.9754135 C92.2231064,76.3270991 92.2231064,76.8955525 91.8714208,77.247238 C91.6960278,77.4226311 91.4657682,77.5107773 91.2355086,77.5107773" id="Fill-41" fill="#53E0BB" mask="url(#mask-2)"></path>
                    <path d="M453.88664,104.951965 C453.88664,118.409559 442.978091,129.319007 429.519598,129.319007 C416.062903,129.319007 405.152556,118.409559 405.152556,104.951965 C405.152556,91.4952702 416.062903,80.5867218 429.519598,80.5867218 C442.978091,80.5867218 453.88664,91.4952702 453.88664,104.951965" id="Fill-42" fill="#FF836F" mask="url(#mask-2)"></path>
                    <path d="M429.167552,125.763205 C425.472605,125.763205 421.834324,124.770211 418.574712,122.833691 C413.797724,119.994123 410.413088,115.465384 409.043223,110.080368 C408.98296,109.840214 409.127772,109.594664 409.368825,109.534401 C409.608079,109.471439 409.853629,109.618949 409.914792,109.859103 C411.226192,115.011161 414.464218,119.343819 419.033432,122.061063 C423.604445,124.776507 428.960679,125.550935 434.110039,124.241333 C444.744254,121.533084 451.19602,110.678503 448.49047,100.044287 C446.361468,91.677589 439.146967,85.6674537 430.538317,85.0900059 C428.444393,84.9496914 426.346872,85.1430735 424.293424,85.6638559 C424.052371,85.7259181 423.80862,85.578408 423.748357,85.3391539 C423.685395,85.0981009 423.831106,84.8543495 424.073059,84.7922874 C426.217351,84.2472197 428.405717,84.046642 430.59858,84.1923532 C439.596693,84.7958852 447.137695,91.0776548 449.361139,99.8230223 C452.190814,110.938445 445.446726,122.283227 434.331304,125.112002 C432.622346,125.548236 430.888203,125.762306 429.167552,125.763205" id="Fill-43" fill="#D86F5D" mask="url(#mask-2)"></path>
                    <path d="M429.201732,121.668182 C419.984152,121.668182 412.485424,114.169454 412.485424,104.951875 C412.485424,103.129586 412.777746,101.334281 413.354295,99.6163283 C413.435245,99.3815715 413.693388,99.2556483 413.924547,99.3339005 C414.160203,99.4130523 414.285227,99.6675971 414.206975,99.9032534 C413.661907,101.527663 413.384876,103.226727 413.384876,104.951875 C413.384876,113.672957 420.480649,120.768731 429.201732,120.768731 C432.12315,120.768731 434.976211,119.96642 437.455099,118.448146 C442.190712,115.544716 445.017688,110.499692 445.017688,104.951875 C445.017688,104.703626 445.220064,104.502149 445.469212,104.502149 C445.716562,104.502149 445.917139,104.703626 445.917139,104.951875 C445.917139,110.8154 442.930061,116.147348 437.924613,119.215378 C435.30541,120.819999 432.289549,121.668182 429.201732,121.668182" id="Fill-44" fill="#D86F5D" mask="url(#mask-2)"></path>
                    <path d="M440.057572,103.395464 C439.827313,103.395464 439.597053,103.307318 439.42166,103.131925 C436.777272,100.486638 433.259517,99.0295261 429.519598,99.0295261 C425.779678,99.0295261 422.262823,100.486638 419.617536,103.131925 C419.26675,103.48361 418.697397,103.48361 418.345711,103.131925 C417.994925,102.780239 417.994925,102.211786 418.345711,101.8601 C421.330991,98.8748205 425.299371,97.230623 429.519598,97.230623 C433.740724,97.230623 437.709104,98.8748205 440.693484,101.8601 C441.04517,102.211786 441.04517,102.780239 440.693484,103.131925 C440.518091,103.307318 440.287832,103.395464 440.057572,103.395464" id="Fill-45" fill="#53E0BB" mask="url(#mask-2)"></path>
                    <path d="M422.143196,106.219382 C421.912936,106.219382 421.682676,106.131236 421.507283,105.955843 C421.155598,105.604157 421.155598,105.035704 421.507283,104.684018 C423.647079,102.543324 426.492943,101.365042 429.519598,101.365042 C432.546252,101.365042 435.392117,102.543324 437.531013,104.684018 C437.882698,105.035704 437.882698,105.605057 437.531013,105.955843 C437.180227,106.307528 436.610874,106.307528 436.259188,105.955843 C434.459386,104.155141 432.065945,103.163945 429.519598,103.163945 C426.97325,103.163945 424.57981,104.155141 422.779108,105.955843 C422.603715,106.131236 422.373455,106.219382 422.143196,106.219382" id="Fill-46" fill="#FFD93B" mask="url(#mask-2)"></path>
                    <path d="M433.735057,109.377177 C433.504798,109.377177 433.274538,109.28903 433.099145,109.113637 C431.124849,107.14114 427.914706,107.14114 425.94041,109.113637 C425.588725,109.465323 425.020271,109.465323 424.668586,109.113637 C424.3169,108.761952 424.3169,108.193498 424.668586,107.841813 C427.344454,105.165944 431.695101,105.165944 434.37097,107.841813 C434.722655,108.193498 434.722655,108.761952 434.37097,109.113637 C434.195577,109.28903 433.965317,109.377177 433.735057,109.377177" id="Fill-47" fill="#C15EEA" mask="url(#mask-2)"></path>
                    <path d="M431.176388,112.674566 C430.946128,112.674566 430.715868,112.58642 430.540475,112.411027 C430.086252,111.956804 429.293835,111.956804 428.840512,112.411027 C428.489726,112.762712 427.920373,112.762712 427.568687,112.411027 C427.217901,112.059341 427.217901,111.490888 427.568687,111.139202 C428.738874,109.969915 430.642113,109.968116 431.8123,111.139202 C432.163985,111.490888 432.163985,112.059341 431.8123,112.411027 C431.636907,112.58642 431.406647,112.674566 431.176388,112.674566" id="Fill-48" fill="#53E0BB" mask="url(#mask-2)"></path>
                    <g id="Group-59" mask="url(#mask-2)" fill="#FF836F">
                        <g transform="translate(36.877514, 35.407810)">
                            <path d="M21.9241316,15.4707466 C10.8284973,15.4707466 1.79890311,24.4985419 1.79890311,35.5950757 C1.79890311,46.6916095 10.8284973,55.7194048 21.9241316,55.7194048 L73.2369433,55.7194048 C84.3343766,55.7194048 93.3612724,46.6916095 93.3612724,35.5950757 C93.3612724,24.4985419 84.3343766,15.4707466 73.2369433,15.4707466 L21.9241316,15.4707466 Z M73.2369433,57.0685821 L21.9241316,57.0685821 C10.0828519,57.0685821 0.449725777,47.4354559 0.449725777,35.5950757 C0.449725777,23.7546954 10.0828519,14.1215693 21.9241316,14.1215693 L73.2369433,14.1215693 C85.0773236,14.1215693 94.7095503,23.7546954 94.7095503,35.5950757 C94.7095503,47.4354559 85.0773236,57.0685821 73.2369433,57.0685821 Z" id="Fill-49"></path>
                            <path d="M36.3083408,15.3029989 C35.9368673,15.3029989 35.6346516,15.0007832 35.6346516,14.6284102 L35.6346516,5.17697331 C35.6346516,3.465317 34.2423005,2.072966 32.5306442,2.072966 L24.7602823,2.072966 C23.0504249,2.072966 21.6607722,3.465317 21.6607722,5.17697331 L21.6607722,14.3747649 C21.6607722,14.7471378 21.357657,15.0493536 20.9861835,15.0493536 C20.6120117,15.0493536 20.3115949,14.7471378 20.3115949,14.3747649 L20.3115949,5.17697331 C20.3115949,2.72147057 22.3074779,0.723788665 24.7602823,0.723788665 L32.5306442,0.723788665 C34.986147,0.723788665 36.9838289,2.72147057 36.9838289,5.17697331 L36.9838289,14.6284102 C36.9838289,15.0007832 36.6816132,15.3029989 36.3083408,15.3029989" id="Fill-50"></path>
                            <path d="M57.1748973,15.3029989 C56.8025243,15.3029989 56.5003086,15.0007832 56.5003086,14.6284102 L56.5003086,5.17697331 C56.5003086,3.465317 55.1070581,2.072966 53.3945024,2.072966 L45.6268388,2.072966 C43.9133835,2.072966 42.5201331,3.465317 42.5201331,5.17697331 L42.5201331,14.3747649 C42.5201331,14.7471378 42.2179174,15.0493536 41.8464439,15.0493536 C41.4731715,15.0493536 41.1709558,14.7471378 41.1709558,14.3747649 L41.1709558,5.17697331 C41.1709558,2.72147057 43.1722355,0.723788665 45.6268388,0.723788665 L53.3945024,0.723788665 C55.8509046,0.723788665 57.8494859,2.72147057 57.8494859,5.17697331 L57.8494859,14.6284102 C57.8494859,15.0007832 57.5454713,15.3029989 57.1748973,15.3029989" id="Fill-51"></path>
                            <path d="M78.0362369,15.3029989 C77.6647634,15.3029989 77.3625477,15.0007832 77.3625477,14.6284102 L77.3625477,5.17697331 C77.3625477,3.465317 75.9692973,2.072966 74.2585404,2.072966 L66.4908768,2.072966 C64.778321,2.072966 63.3850706,3.465317 63.3850706,5.17697331 L63.3850706,14.3747649 C63.3850706,14.7471378 63.0828548,15.0493536 62.7104819,15.0493536 C62.338109,15.0493536 62.0358932,14.7471378 62.0358932,14.3747649 L62.0358932,5.17697331 C62.0358932,2.72147057 64.0344746,0.723788665 66.4908768,0.723788665 L74.2585404,0.723788665 C76.7149426,0.723788665 78.711725,2.72147057 78.711725,5.17697331 L78.711725,14.6284102 C78.711725,15.0007832 78.4095093,15.3029989 78.0362369,15.3029989" id="Fill-52"></path>
                            <path d="M74.25917,70.1238516 L66.4906069,70.1238516 C64.0342048,70.1238516 62.0356234,68.1252702 62.0356234,65.6697675 L62.0356234,56.2183305 C62.0356234,55.8459576 62.3378391,55.5437419 62.7102121,55.5437419 C63.082585,55.5437419 63.3848007,55.8459576 63.3848007,56.2183305 L63.3848007,65.6697675 C63.3848007,67.3814238 64.7780512,68.7746742 66.4906069,68.7746742 L74.25917,68.7746742 C75.9708263,68.7746742 77.3622779,67.3814238 77.3622779,65.6697675 L77.3622779,56.4710764 C77.3622779,56.0987035 77.6644936,55.7964878 78.0359671,55.7964878 C78.4092395,55.7964878 78.7114552,56.0987035 78.7114552,56.4710764 L78.7114552,65.6697675 C78.7114552,68.1252702 76.7146728,70.1238516 74.25917,70.1238516" id="Fill-53"></path>
                            <path d="M53.3944124,70.1238516 L45.6267488,70.1238516 C43.1721455,70.1238516 41.1708658,68.1252702 41.1708658,65.6697675 L41.1708658,56.2183305 C41.1708658,55.8459576 41.4730815,55.5437419 41.8463539,55.5437419 C42.2178274,55.5437419 42.5200431,55.8459576 42.5200431,56.2183305 L42.5200431,65.6697675 C42.5200431,67.3814238 43.9132936,68.7746742 45.6267488,68.7746742 L53.3944124,68.7746742 C55.1069682,68.7746742 56.5002186,67.3814238 56.5002186,65.6697675 L56.5002186,56.4710764 C56.5002186,56.0987035 56.8024344,55.7964878 57.1748073,55.7964878 C57.5453814,55.7964878 57.849396,56.0987035 57.849396,56.4710764 L57.849396,65.6697675 C57.849396,68.1252702 55.8508146,70.1238516 53.3944124,70.1238516" id="Fill-54"></path>
                            <path d="M32.5304644,70.1238516 L24.7637002,70.1238516 C22.307298,70.1238516 20.311415,68.1252702 20.311415,65.6697675 L20.311415,56.2183305 C20.311415,55.8459576 20.6118318,55.5437419 20.9860037,55.5437419 C21.3574771,55.5437419 21.6605923,55.8459576 21.6605923,56.2183305 L21.6605923,65.6697675 C21.6605923,67.3814238 23.0520439,68.7746742 24.7637002,68.7746742 L32.5304644,68.7746742 C34.2421207,68.7746742 35.6344717,67.3814238 35.6344717,65.6697675 L35.6344717,56.4710764 C35.6344717,56.0987035 35.9366874,55.7964878 36.3081609,55.7964878 C36.6814333,55.7964878 36.983649,56.0987035 36.983649,56.4710764 L36.983649,65.6697675 C36.983649,68.1252702 34.9859671,70.1238516 32.5304644,70.1238516" id="Fill-55"></path>
                            <path d="M94.0339722,3.91756124 C93.0949448,3.91756124 92.2125828,4.28363803 91.5460892,4.94833272 L87.0974018,9.39702011 C85.7257382,10.7686837 85.7257382,13.0029214 87.0974018,14.374585 L91.5460892,18.8214735 C92.8772775,20.1517623 95.1960636,20.1517623 96.5245536,18.8214735 L100.970543,14.374585 C101.636137,13.7098903 102.002214,12.8257294 102.002214,11.8858026 C102.002214,10.9458757 101.636137,10.0617148 100.970543,9.39702011 L96.5218552,4.94833272 C95.8571605,4.28363803 94.9747985,3.91756124 94.0339722,3.91756124 M94.0357711,21.2023218 C92.7351642,21.2023218 91.5119101,20.6950311 90.59357,19.7757916 L86.1439832,15.3289031 C84.2479393,13.4301609 84.2479393,10.3414442 86.1439832,8.44270201 L90.59357,3.99491408 C91.5119101,3.07477514 92.7351642,2.56838391 94.0339722,2.56838391 C95.3345792,2.56838391 96.5578333,3.07477514 97.4761733,3.99491408 L101.923961,8.44270201 C102.843201,9.36284095 103.350491,10.5851956 103.351391,11.8849031 C103.351391,13.1864095 102.845,14.4096636 101.923961,15.3289031 L97.4779722,19.7757916 C96.5596322,20.6950311 95.3363781,21.2023218 94.0357711,21.2023218" id="Fill-56"></path>
                            <path d="M100.787774,28.9300497 C98.847657,28.9300497 97.2691196,30.5094867 97.2691196,32.4496037 L97.2691196,38.7403678 C97.270019,40.6804848 98.8503554,42.2590223 100.789573,42.2590223 L107.080337,42.2590223 C109.019555,42.2590223 110.598092,40.6795854 110.598092,38.7394684 L110.598092,32.4496037 C110.598092,30.5094867 109.019555,28.9300497 107.080337,28.9300497 L100.787774,28.9300497 Z M107.080337,43.6081996 L100.789573,43.6081996 C98.106509,43.6081996 95.9208417,41.4252307 95.9199422,38.7412673 L95.9199422,32.4496037 C95.9199422,29.7656402 98.1038106,27.5808724 100.787774,27.5808724 L107.080337,27.5808724 C109.763401,27.5808724 111.947269,29.7656402 111.947269,32.4496037 L111.947269,38.7394684 C111.947269,41.4243313 109.763401,43.6081996 107.080337,43.6081996 Z" id="Fill-57"></path>
                            <path d="M94.0357711,51.1325616 C93.0958442,51.1325616 92.2134823,51.4977389 91.5487876,52.1633331 L87.1009996,56.611121 C86.4363049,57.2758157 86.0702282,58.1599766 86.0702282,59.0999035 C86.0702282,60.0398303 86.4363049,60.9239912 87.1009996,61.5886859 L91.5487876,66.034675 C92.8772775,67.3667627 95.1933653,67.3667627 96.5245536,66.034675 L100.970543,61.5877865 C101.636137,60.9239912 102.003113,60.0398303 102.003113,59.1008029 C102.003113,58.1599766 101.637936,57.2767152 100.970543,56.611121 L96.5245536,52.1633331 C95.8598589,51.4986384 94.9765974,51.1325616 94.0357711,51.1325616 M94.0339722,68.4164227 C92.7342647,68.4164227 91.5119101,67.909132 90.59357,66.9880936 L86.1466815,62.543004 C85.227442,61.6237645 84.7210508,60.4014099 84.7210508,59.0999035 C84.7210508,57.800196 85.227442,56.5778413 86.1466815,55.6568029 L90.5953689,51.209015 C91.5119101,50.2897755 92.7351642,49.7833843 94.0357711,49.7833843 C95.3363781,49.7833843 96.5596322,50.2897755 97.4779722,51.209015 L101.924861,55.6568029 C102.845899,56.5769419 103.35229,57.800196 103.35229,59.1008029 C103.35229,60.4023093 102.845,61.6237645 101.923961,62.543004 L97.4779722,66.9889931 C96.5587327,67.909132 95.3354786,68.4164227 94.0339722,68.4164227" id="Fill-58"></path>
                        </g>
                    </g>
                    <path d="M3.74009945,27.1765689 C2.42150347,27.1765689 1.34935722,28.2496146 1.34935722,29.5691101 L1.34935722,112.092891 C1.34935722,113.411487 2.42150347,114.484532 3.74009945,114.484532 C5.05959488,114.484532 6.13264059,113.411487 6.13264059,112.092891 L6.13264059,29.5691101 C6.13264059,28.2496146 5.05959488,27.1765689 3.74009945,27.1765689 M3.74009945,115.83371 C1.67585814,115.83371 0.000179890311,114.155333 0.000179890311,112.092891 L0.000179890311,29.5691101 C0.000179890311,27.5057682 1.67585814,25.8273916 3.74009945,25.8273916 C5.80254186,25.8273916 7.48181792,27.5057682 7.48181792,29.5691101 L7.48181792,112.092891 C7.48181792,114.155333 5.80254186,115.83371 3.74009945,115.83371" id="Fill-60" fill="#FF836F" mask="url(#mask-2)"></path>
                    <g id="Group-70" mask="url(#mask-2)" fill="#FF836F">
                        <g transform="translate(329.199269, 168.526640)">
                            <path d="M18.7585119,1.77084022 C16.4505192,1.77084022 14.569766,3.64979452 14.569766,5.95868665 L14.569766,27.1020943 C14.569766,29.4109865 16.4505192,31.2899408 18.7585119,31.2899408 L107.264545,31.2899408 C109.573437,31.2899408 111.451492,29.4109865 111.451492,27.1020943 L111.451492,5.95868665 C111.451492,3.64979452 109.573437,1.77084022 107.264545,1.77084022 L18.7585119,1.77084022 Z M107.264545,32.6391181 L18.7585119,32.6391181 C15.7039744,32.6391181 13.2205887,30.1557324 13.2205887,27.1020943 L13.2205887,5.95868665 C13.2205887,2.90594808 15.7039744,0.421662888 18.7585119,0.421662888 L107.264545,0.421662888 C110.317283,0.421662888 112.800669,2.90594808 112.800669,5.95868665 L112.800669,27.1020943 C112.800669,30.1557324 110.317283,32.6391181 107.264545,32.6391181 Z" id="Fill-61"></path>
                            <path d="M22.8658574,31.2901207 L103.1563,31.2901207 L103.1563,11.2809214 L22.8658574,11.2809214 L22.8658574,31.2901207 Z M103.829989,32.639298 L22.1912687,32.639298 C21.8188958,32.639298 21.5166801,32.3370823 21.5166801,31.9647093 L21.5166801,10.6063327 C21.5166801,10.2339598 21.8188958,9.93174406 22.1912687,9.93174406 L103.829989,9.93174406 C104.203261,9.93174406 104.504578,10.2339598 104.504578,10.6063327 L104.504578,31.9647093 C104.504578,32.3370823 104.203261,32.639298 103.829989,32.639298 Z" id="Fill-62"></path>
                            <path d="M49.4039956,32.6393879 C49.0316227,32.6393879 48.7285075,32.3371722 48.7285075,31.9647993 L48.7285075,10.6064227 C48.7285075,10.2340497 49.0316227,9.931834 49.4039956,9.931834 C49.7754691,9.931834 50.0776848,10.2340497 50.0776848,10.6064227 L50.0776848,31.9647993 C50.0776848,32.3371722 49.7754691,32.6393879 49.4039956,32.6393879" id="Fill-63"></path>
                            <path d="M76.6194208,32.6393879 C76.2461484,32.6393879 75.9439327,32.3371722 75.9439327,31.9647993 L75.9439327,10.6064227 C75.9439327,10.2340497 76.2461484,9.931834 76.6194208,9.931834 C76.9908943,9.931834 77.2931101,10.2340497 77.2931101,10.6064227 L77.2931101,31.9647993 C77.2931101,32.3371722 76.9908943,32.6393879 76.6194208,32.6393879" id="Fill-64"></path>
                            <path d="M32.4233397,11.2809214 C31.6624037,11.2809214 30.9464402,11.576841 30.4094676,12.1156124 L23.6977601,18.8273199 C23.1607876,19.3642925 22.8639686,20.0793565 22.8639686,20.8402925 C22.8639686,21.6012285 23.1607876,22.3153931 23.6977601,22.8523656 C24.7753031,23.9299086 26.6497601,23.9299086 27.7264037,22.8523656 L34.4354128,16.1406581 C34.9741843,15.6027861 35.2701038,14.8886216 35.2701038,14.1276856 C35.2701038,13.367649 34.9741843,12.652585 34.4354128,12.1156124 C33.8984402,11.576841 33.1833762,11.2809214 32.4233397,11.2809214 M25.7125316,25.036234 C24.5909155,25.036234 23.5367583,24.6 22.7461404,23.8066837 C21.9519247,23.0151664 21.5147912,21.9610091 21.5147912,20.8402925 C21.5147912,19.7195759 21.9519247,18.6654186 22.7461404,17.8730018 L29.4569484,11.1612943 C30.2484658,10.3679781 31.3017236,9.93174406 32.4233397,9.93174406 C33.5440563,9.93174406 34.5973141,10.3679781 35.3906303,11.1612943 C36.1830472,11.9537112 36.6192812,13.0069689 36.6192812,14.1276856 C36.6192812,15.2484022 36.1830472,16.3025594 35.3897309,17.0949762 L28.6807218,23.8066837 C27.8883049,24.6 26.8341477,25.036234 25.7125316,25.036234" id="Fill-65"></path>
                            <path d="M124.610918,71.2560812 L1.41123949,71.2560812 C1.03796709,71.2560812 0.735751371,70.9538654 0.735751371,70.5814925 L0.735751371,14.8199934 C0.735751371,14.4476205 1.03796709,14.1454048 1.41123949,14.1454048 L13.897426,14.1454048 C14.268,14.1454048 14.5720146,14.4476205 14.5720146,14.8199934 C14.5720146,15.1923664 14.268,15.4945821 13.897426,15.4945821 L2.0849287,15.4945821 L2.0849287,69.9069038 L123.936329,69.9069038 L123.936329,15.4945821 L112.12653,15.4945821 C111.755057,15.4945821 111.451042,15.1923664 111.451042,14.8199934 C111.451042,14.4476205 111.755057,14.1454048 112.12653,14.1454048 L124.610918,14.1454048 C124.982391,14.1454048 125.285506,14.4476205 125.285506,14.8199934 L125.285506,70.5814925 C125.285506,70.9538654 124.982391,71.2560812 124.610918,71.2560812" id="Fill-66"></path>
                            <path d="M35.0443415,43.3756914 C30.226879,43.3756914 26.3070691,47.2955013 26.3070691,52.1147627 C26.3070691,56.9340241 30.226879,60.8556329 35.0443415,60.8556329 L90.9794347,60.8556329 C95.7968973,60.8556329 99.7158077,56.9340241 99.7158077,52.1147627 C99.7158077,47.2955013 95.7968973,43.3756914 90.9794347,43.3756914 L35.0443415,43.3756914 Z M90.9794347,62.2048102 L35.0443415,62.2048102 C29.4812336,62.2048102 24.9578918,57.6778706 24.9578918,52.1147627 C24.9578918,46.5516548 29.4812336,42.0265141 35.0443415,42.0265141 L90.9794347,42.0265141 C96.5407437,42.0265141 101.065884,46.5516548 101.065884,52.1147627 C101.065884,57.6778706 96.5407437,62.2048102 90.9794347,62.2048102 Z" id="Fill-67"></path>
                            <path d="M85.4944892,48.8005536 L88.8476446,55.402528 L93.565268,53.0054896 L90.2121126,46.4044146 L85.4944892,48.8005536 Z M88.5508256,56.9846633 C88.4815678,56.9846633 88.4096117,56.9729704 88.3412534,56.9513835 C88.1721565,56.8956176 88.031842,56.7741916 87.9490925,56.6149887 L83.986109,48.8104475 C83.9033594,48.6503452 83.8907671,48.4650581 83.9474325,48.2950618 C84.0013996,48.1250654 84.1219261,47.9838516 84.2811291,47.9029009 L90.204917,44.8951349 C90.362321,44.8141843 90.5494069,44.801592 90.7194033,44.855559 C90.8885002,44.911325 91.0306135,45.032751 91.1115642,45.1910545 L95.0727488,52.9955956 C95.2418457,53.3274932 95.1087269,53.7340453 94.7777287,53.9031422 L88.8575386,56.9118077 C88.7612973,56.9594786 88.6560614,56.9846633 88.5508256,56.9846633 Z" id="Fill-68"></path>
                            <path d="M74.9786413,54.5502976 L80.2692154,54.6582318 L80.4203232,47.2548461 L75.1297492,47.1478113 L74.9786413,54.5502976 Z M80.9294128,56.0218004 L80.9168205,56.0218004 L74.2752702,55.8850837 C73.9046962,55.8778881 73.6078771,55.5693762 73.6141733,55.1970033 L73.7940636,46.4453397 C73.8021587,46.0783634 74.1025755,45.7851422 74.4695517,45.7851422 L74.4821441,45.7851422 L81.1236943,45.9191605 C81.3017857,45.9227583 81.4744804,45.9974128 81.5950069,46.1269338 C81.7200307,46.2555554 81.7874896,46.4291495 81.7838918,46.6081404 L81.6049009,55.3607035 C81.6013031,55.5396943 81.5266486,55.7096907 81.3989265,55.833815 C81.2721038,55.9543415 81.1048059,56.0218004 80.9294128,56.0218004 Z" id="Fill-69"></path>
                        </g>
                    </g>
                    <g id="Group-107" mask="url(#mask-2)" fill="#FF836F">
                        <g transform="translate(230.259598, 12.022069)">
                            <path d="M1.36986472,35.5751079 L47.0485119,35.5751079 L47.0485119,14.7105302 L1.36986472,14.7105302 L1.36986472,35.5751079 Z M47.7248995,36.9242852 L0.695276051,36.9242852 C0.322903108,36.9242852 0.0206873857,36.6220695 0.0206873857,36.2496965 L0.0206873857,14.035042 C0.0206873857,13.6626691 0.322903108,13.3604534 0.695276051,13.3604534 L47.7248995,13.3604534 C48.0963729,13.3604534 48.3985887,13.6626691 48.3985887,14.035042 L48.3985887,36.2496965 C48.3985887,36.6220695 48.0963729,36.9242852 47.7248995,36.9242852 Z" id="Fill-71"></path>
                            <path d="M38.6790252,14.7100804 C38.3057528,14.7100804 38.0035371,14.4078647 38.0035371,14.0354918 L38.0035371,5.11383181 C38.0035371,3.5191042 36.7056285,2.22119561 35.109102,2.22119561 L27.7785718,2.22119561 C26.1820453,2.22119561 24.8850362,3.5191042 24.8850362,5.11383181 L24.8850362,13.7953382 C24.8850362,14.1677112 24.5837199,14.4699269 24.2095481,14.4699269 C23.8380746,14.4699269 23.5358589,14.1677112 23.5358589,13.7953382 L23.5358589,5.11383181 C23.5358589,2.77435832 25.4381989,0.872018282 27.7785718,0.872018282 L35.109102,0.872018282 C37.449475,0.872018282 39.3527144,2.77435832 39.3527144,5.11383181 L39.3527144,14.0354918 C39.3527144,14.4078647 39.0504987,14.7100804 38.6790252,14.7100804" id="Fill-72"></path>
                            <path d="M14.3939232,31.729053 L23.2202413,31.729053 L23.2202413,30.2719415 L14.3939232,30.2719415 L14.3939232,31.729053 Z M23.6681682,32.6285046 L13.9441974,32.6285046 C13.6959488,32.6285046 13.4944717,32.4279269 13.4944717,32.1787788 L13.4944717,29.8222157 C13.4944717,29.5739671 13.6959488,29.3724899 13.9441974,29.3724899 L23.6681682,29.3724899 C23.9182157,29.3724899 24.1187934,29.5739671 24.1187934,29.8222157 L24.1187934,32.1787788 C24.1187934,32.4279269 23.9182157,32.6285046 23.6681682,32.6285046 Z" id="Fill-73"></path>
                            <path d="M7.71549543,29.3598976 L29.8977697,29.3598976 L29.8977697,28.3875905 L7.71549543,28.3875905 L7.71549543,29.3598976 Z M30.3474954,30.2593492 L7.26576965,30.2593492 C7.01842048,30.2593492 6.81604388,30.057872 6.81604388,29.8096234 L6.81604388,27.9378647 C6.81604388,27.6887166 7.01842048,27.4881389 7.26576965,27.4881389 L30.3474954,27.4881389 C30.5966435,27.4881389 30.7972212,27.6887166 30.7972212,27.9378647 L30.7972212,29.8096234 C30.7972212,30.057872 30.5966435,30.2593492 30.3474954,30.2593492 Z" id="Fill-74"></path>
                            <path d="M10.8284973,27.4881389 L26.7856673,27.4881389 L26.7856673,23.55034 L10.8284973,23.55034 L10.8284973,27.4881389 Z M27.2344936,28.3875905 L10.3787715,28.3875905 C10.1296234,28.3875905 9.9290457,28.1861133 9.9290457,27.9378647 L9.9290457,23.1006143 C9.9290457,22.8514662 10.1296234,22.6508885 10.3787715,22.6508885 L27.2344936,22.6508885 C27.4845411,22.6508885 27.6851188,22.8514662 27.6851188,23.1006143 L27.6851188,27.9378647 C27.6851188,28.1861133 27.4845411,28.3875905 27.2344936,28.3875905 Z" id="Fill-75"></path>
                            <path d="M5.70854918,17.8801075 C5.09782157,17.8801075 4.60312322,18.3766048 4.60312322,18.9855335 L4.60312322,22.5716468 C4.60312322,23.1823744 5.09782157,23.6779722 5.70854918,23.6779722 C6.31927678,23.6779722 6.81577404,23.1823744 6.81577404,22.5716468 L6.81577404,18.9855335 C6.81577404,18.3766048 6.31927678,17.8801075 5.70854918,17.8801075 M5.70854918,24.5774238 C4.60312322,24.5774238 3.70367166,23.6770728 3.70367166,22.5716468 L3.70367166,18.9855335 C3.70367166,17.8801075 4.60312322,16.9806559 5.70854918,16.9806559 C6.81577404,16.9806559 7.71522559,17.8801075 7.71522559,18.9855335 L7.71522559,22.5716468 C7.71522559,23.6770728 6.81577404,24.5774238 5.70854918,24.5774238" id="Fill-76"></path>
                            <path d="M71.6557075,35.5751079 L117.337053,35.5751079 L117.337053,14.7105302 L71.6557075,14.7105302 L71.6557075,35.5751079 Z M118.010742,36.9242852 L70.9811188,36.9242852 C70.606947,36.9242852 70.3065302,36.6220695 70.3065302,36.2496965 L70.3065302,14.035042 C70.3065302,13.6626691 70.606947,13.3604534 70.9811188,13.3604534 L118.010742,13.3604534 C118.384015,13.3604534 118.68623,13.6626691 118.68623,14.035042 L118.68623,36.2496965 C118.68623,36.6220695 118.384015,36.9242852 118.010742,36.9242852 Z" id="Fill-77"></path>
                            <path d="M108.963609,14.7100804 C108.591236,14.7100804 108.28992,14.4078647 108.28992,14.0354918 L108.28992,5.11383181 C108.28992,3.5191042 106.991112,2.22119561 105.396384,2.22119561 L98.0658537,2.22119561 C96.4693272,2.22119561 95.1696197,3.5191042 95.1696197,5.11383181 L95.1696197,13.7953382 C95.1696197,14.1677112 94.867404,14.4699269 94.4959305,14.4699269 C94.1226581,14.4699269 93.8204424,14.1677112 93.8204424,13.7953382 L93.8204424,5.11383181 C93.8204424,2.77435832 95.7254808,0.872018282 98.0658537,0.872018282 L105.396384,0.872018282 C107.735857,0.872018282 109.639097,2.77435832 109.639097,5.11383181 L109.639097,14.0354918 C109.639097,14.4078647 109.336881,14.7100804 108.963609,14.7100804" id="Fill-78"></path>
                            <path d="M84.6788665,31.729053 L93.5060841,31.729053 L93.5060841,30.2719415 L84.6788665,30.2719415 L84.6788665,31.729053 Z M93.9558099,32.6285046 L84.2291408,32.6285046 C83.9808921,32.6285046 83.779415,32.4279269 83.779415,32.1787788 L83.779415,29.8222157 C83.779415,29.5739671 83.9808921,29.3724899 84.2291408,29.3724899 L93.9558099,29.3724899 C94.203159,29.3724899 94.4055356,29.5739671 94.4055356,29.8222157 L94.4055356,32.1787788 C94.4055356,32.4279269 94.203159,32.6285046 93.9558099,32.6285046 Z" id="Fill-79"></path>
                            <path d="M78.0013382,29.3598976 L100.182713,29.3598976 L100.182713,28.3875905 L78.0013382,28.3875905 L78.0013382,29.3598976 Z M100.631539,30.2593492 L77.5516124,30.2593492 C77.3024644,30.2593492 77.1018867,30.057872 77.1018867,29.8096234 L77.1018867,27.9378647 C77.1018867,27.6887166 77.3024644,27.4881389 77.5516124,27.4881389 L100.631539,27.4881389 C100.880687,27.4881389 101.082165,27.6887166 101.082165,27.9378647 L101.082165,29.8096234 C101.082165,30.057872 100.880687,30.2593492 100.631539,30.2593492 Z" id="Fill-80"></path>
                            <path d="M81.1134406,27.4881389 L97.0715101,27.4881389 L97.0715101,23.55034 L81.1134406,23.55034 L81.1134406,27.4881389 Z M97.5212358,28.3875905 L80.6637148,28.3875905 C80.4145667,28.3875905 80.213989,28.1861133 80.213989,27.9378647 L80.213989,23.1006143 C80.213989,22.8514662 80.4145667,22.6508885 80.6637148,22.6508885 L97.5212358,22.6508885 C97.768585,22.6508885 97.9709616,22.8514662 97.9709616,23.1006143 L97.9709616,27.9378647 C97.9709616,28.1861133 97.768585,28.3875905 97.5212358,28.3875905 Z" id="Fill-81"></path>
                            <path d="M75.9948417,17.8801075 C75.3841141,17.8801075 74.8885163,18.3766048 74.8885163,18.9855335 L74.8885163,22.5716468 C74.8885163,23.1823744 75.3841141,23.6779722 75.9948417,23.6779722 C76.6064687,23.6779722 77.1011671,23.1823744 77.1011671,22.5716468 L77.1011671,18.9855335 C77.1011671,18.3766048 76.6064687,17.8801075 75.9948417,17.8801075 M75.9948417,24.5774238 C74.8885163,24.5774238 73.9890647,23.6770728 73.9890647,22.5716468 L73.9890647,18.9855335 C73.9890647,17.8801075 74.8885163,16.9806559 75.9948417,16.9806559 C77.1011671,16.9806559 78.0006186,17.8801075 78.0006186,18.9855335 L78.0006186,22.5716468 C78.0006186,23.6770728 77.1011671,24.5774238 75.9948417,24.5774238" id="Fill-82"></path>
                            <path d="M1.36986472,78.144351 L47.0485119,78.144351 L47.0485119,57.2806728 L1.36986472,57.2806728 L1.36986472,78.144351 Z M47.7248995,79.4935283 L0.695276051,79.4935283 C0.322903108,79.4935283 0.0206873857,79.1913126 0.0206873857,78.8189397 L0.0206873857,56.6060841 C0.0206873857,56.2337112 0.322903108,55.9314954 0.695276051,55.9314954 L47.7248995,55.9314954 C48.0963729,55.9314954 48.3985887,56.2337112 48.3985887,56.6060841 L48.3985887,78.8189397 C48.3985887,79.1913126 48.0963729,79.4935283 47.7248995,79.4935283 Z" id="Fill-83"></path>
                            <path d="M38.6790252,57.280313 C38.3057528,57.280313 38.0035371,56.9780973 38.0035371,56.6057243 L38.0035371,47.6840644 C38.0035371,46.0893367 36.7056285,44.7914282 35.109102,44.7914282 L27.7785718,44.7914282 C26.1820453,44.7914282 24.8850362,46.0893367 24.8850362,47.6840644 L24.8850362,56.3655707 C24.8850362,56.7379437 24.5837199,57.0401594 24.2095481,57.0401594 C23.8380746,57.0401594 23.5358589,56.7379437 23.5358589,56.3655707 L23.5358589,47.6840644 C23.5358589,45.3445909 25.4381989,43.4422508 27.7785718,43.4422508 L35.109102,43.4422508 C37.449475,43.4422508 39.3527144,45.3445909 39.3527144,47.6840644 L39.3527144,56.6057243 C39.3527144,56.9780973 39.0504987,57.280313 38.6790252,57.280313" id="Fill-84"></path>
                            <path d="M14.3939232,74.2982962 L23.2202413,74.2982962 L23.2202413,72.8420841 L14.3939232,72.8420841 L14.3939232,74.2982962 Z M23.6681682,75.1977477 L13.9441974,75.1977477 C13.6959488,75.1977477 13.4944717,74.99717 13.4944717,74.7480219 L13.4944717,72.3923583 C13.4944717,72.1441097 13.6959488,71.9426325 13.9441974,71.9426325 L23.6681682,71.9426325 C23.9182157,71.9426325 24.1187934,72.1441097 24.1187934,72.3923583 L24.1187934,74.7480219 C24.1187934,74.99717 23.9182157,75.1977477 23.6681682,75.1977477 Z" id="Fill-85"></path>
                            <path d="M7.71549543,71.9282413 L29.8977697,71.9282413 L29.8977697,70.9568336 L7.71549543,70.9568336 L7.71549543,71.9282413 Z M30.3474954,72.8276929 L7.26576965,72.8276929 C7.01842048,72.8276929 6.81604388,72.6262157 6.81604388,72.3779671 L6.81604388,70.5071079 C6.81604388,70.2579598 7.01842048,70.0573821 7.26576965,70.0573821 L30.3474954,70.0573821 C30.5966435,70.0573821 30.7972212,70.2579598 30.7972212,70.5071079 L30.7972212,72.3779671 C30.7972212,72.6262157 30.5966435,72.8276929 30.3474954,72.8276929 Z" id="Fill-86"></path>
                            <path d="M10.8284973,70.0573821 L26.7856673,70.0573821 L26.7856673,66.1204826 L10.8284973,66.1204826 L10.8284973,70.0573821 Z M27.2344936,70.9568336 L10.3787715,70.9568336 C10.1296234,70.9568336 9.9290457,70.7553565 9.9290457,70.5071079 L9.9290457,65.6707569 C9.9290457,65.4216088 10.1296234,65.2210311 10.3787715,65.2210311 L27.2344936,65.2210311 C27.4845411,65.2210311 27.6851188,65.4216088 27.6851188,65.6707569 L27.6851188,70.5071079 C27.6851188,70.7553565 27.4845411,70.9568336 27.2344936,70.9568336 Z" id="Fill-87"></path>
                            <path d="M5.70854918,60.4486311 C5.09782157,60.4486311 4.60312322,60.9451283 4.60312322,61.5549565 L4.60312322,65.1419693 C4.60312322,65.7517974 5.09782157,66.2482947 5.70854918,66.2482947 C6.31927678,66.2482947 6.81577404,65.7517974 6.81577404,65.1419693 L6.81577404,61.5549565 C6.81577404,60.9451283 6.31927678,60.4486311 5.70854918,60.4486311 M5.70854918,67.1477463 C4.60312322,67.1477463 3.70367166,66.2473952 3.70367166,65.1419693 L3.70367166,61.5549565 C3.70367166,60.4495305 4.60312322,59.5491795 5.70854918,59.5491795 C6.81577404,59.5491795 7.71522559,60.4495305 7.71522559,61.5549565 L7.71522559,65.1419693 C7.71522559,66.2473952 6.81577404,67.1477463 5.70854918,67.1477463" id="Fill-88"></path>
                            <path d="M71.6557075,78.144351 L117.337053,78.144351 L117.337053,57.2806728 L71.6557075,57.2806728 L71.6557075,78.144351 Z M118.010742,79.4935283 L70.9811188,79.4935283 C70.606947,79.4935283 70.3065302,79.1913126 70.3065302,78.8189397 L70.3065302,56.6060841 C70.3065302,56.2337112 70.606947,55.9314954 70.9811188,55.9314954 L118.010742,55.9314954 C118.384015,55.9314954 118.68623,56.2337112 118.68623,56.6060841 L118.68623,78.8189397 C118.68623,79.1913126 118.384015,79.4935283 118.010742,79.4935283 Z" id="Fill-89"></path>
                            <path d="M108.963609,57.280313 C108.591236,57.280313 108.28992,56.9780973 108.28992,56.6057243 L108.28992,47.6840644 C108.28992,46.0893367 106.991112,44.7914282 105.396384,44.7914282 L98.0658537,44.7914282 C96.4693272,44.7914282 95.1696197,46.0893367 95.1696197,47.6840644 L95.1696197,56.3655707 C95.1696197,56.7379437 94.867404,57.0401594 94.4959305,57.0401594 C94.1226581,57.0401594 93.8204424,56.7379437 93.8204424,56.3655707 L93.8204424,47.6840644 C93.8204424,45.3445909 95.7254808,43.4422508 98.0658537,43.4422508 L105.396384,43.4422508 C107.735857,43.4422508 109.639097,45.3445909 109.639097,47.6840644 L109.639097,56.6057243 C109.639097,56.9780973 109.336881,57.280313 108.963609,57.280313" id="Fill-90"></path>
                            <path d="M84.6788665,74.2982962 L93.5060841,74.2982962 L93.5060841,72.8420841 L84.6788665,72.8420841 L84.6788665,74.2982962 Z M93.9558099,75.1977477 L84.2291408,75.1977477 C83.9808921,75.1977477 83.779415,74.99717 83.779415,74.7480219 L83.779415,72.3923583 C83.779415,72.1441097 83.9808921,71.9426325 84.2291408,71.9426325 L93.9558099,71.9426325 C94.203159,71.9426325 94.4055356,72.1441097 94.4055356,72.3923583 L94.4055356,74.7480219 C94.4055356,74.99717 94.203159,75.1977477 93.9558099,75.1977477 Z" id="Fill-91"></path>
                            <path d="M78.0013382,71.9282413 L100.182713,71.9282413 L100.182713,70.9568336 L78.0013382,70.9568336 L78.0013382,71.9282413 Z M100.631539,72.8276929 L77.5516124,72.8276929 C77.3024644,72.8276929 77.1018867,72.6262157 77.1018867,72.3779671 L77.1018867,70.5071079 C77.1018867,70.2579598 77.3024644,70.0573821 77.5516124,70.0573821 L100.631539,70.0573821 C100.880687,70.0573821 101.082165,70.2579598 101.082165,70.5071079 L101.082165,72.3779671 C101.082165,72.6262157 100.880687,72.8276929 100.631539,72.8276929 Z" id="Fill-92"></path>
                            <path d="M81.1134406,70.0573821 L97.0715101,70.0573821 L97.0715101,66.1204826 L81.1134406,66.1204826 L81.1134406,70.0573821 Z M97.5212358,70.9568336 L80.6637148,70.9568336 C80.4145667,70.9568336 80.213989,70.7553565 80.213989,70.5071079 L80.213989,65.6707569 C80.213989,65.4216088 80.4145667,65.2210311 80.6637148,65.2210311 L97.5212358,65.2210311 C97.768585,65.2210311 97.9709616,65.4216088 97.9709616,65.6707569 L97.9709616,70.5071079 C97.9709616,70.7553565 97.768585,70.9568336 97.5212358,70.9568336 Z" id="Fill-93"></path>
                            <path d="M75.9948417,60.4486311 C75.3841141,60.4486311 74.8885163,60.9451283 74.8885163,61.5549565 L74.8885163,65.1419693 C74.8885163,65.7517974 75.3841141,66.2482947 75.9948417,66.2482947 C76.6064687,66.2482947 77.1011671,65.7517974 77.1011671,65.1419693 L77.1011671,61.5549565 C77.1011671,60.9451283 76.6064687,60.4486311 75.9948417,60.4486311 M75.9948417,67.1477463 C74.8885163,67.1477463 73.9890647,66.2473952 73.9890647,65.1419693 L73.9890647,61.5549565 C73.9890647,60.4495305 74.8885163,59.5491795 75.9948417,59.5491795 C77.1011671,59.5491795 78.0006186,60.4495305 78.0006186,61.5549565 L78.0006186,65.1419693 C78.0006186,66.2473952 77.1011671,67.1477463 75.9948417,67.1477463" id="Fill-94"></path>
                            <path d="M1.36986472,120.715393 L47.0485119,120.715393 L47.0485119,99.8508154 L1.36986472,99.8508154 L1.36986472,120.715393 Z M47.7248995,122.06457 L0.695276051,122.06457 C0.322903108,122.06457 0.0206873857,121.762355 0.0206873857,121.389982 L0.0206873857,99.1762267 C0.0206873857,98.8038537 0.322903108,98.501638 0.695276051,98.501638 L47.7248995,98.501638 C48.0963729,98.501638 48.3985887,98.8038537 48.3985887,99.1762267 L48.3985887,121.389982 C48.3985887,121.762355 48.0963729,122.06457 47.7248995,122.06457 Z" id="Fill-95"></path>
                            <path d="M38.6790252,99.8505455 C38.3057528,99.8505455 38.0035371,99.5483298 38.0035371,99.1759569 L38.0035371,90.2542969 C38.0035371,88.6586698 36.7056285,87.3598618 35.109102,87.3598618 L27.7785718,87.3598618 C26.1820453,87.3598618 24.8850362,88.6586698 24.8850362,90.2542969 L24.8850362,98.9349038 C24.8850362,99.3072768 24.5837199,99.6094925 24.2095481,99.6094925 C23.8380746,99.6094925 23.5358589,99.3072768 23.5358589,98.9349038 L23.5358589,90.2542969 C23.5358589,87.9139239 25.4381989,86.0106845 27.7785718,86.0106845 L35.109102,86.0106845 C37.449475,86.0106845 39.3527144,87.9139239 39.3527144,90.2542969 L39.3527144,99.1759569 C39.3527144,99.5483298 39.0504987,99.8505455 38.6790252,99.8505455" id="Fill-96"></path>
                            <path d="M14.3939232,116.868439 L23.2202413,116.868439 L23.2202413,115.411327 L14.3939232,115.411327 L14.3939232,116.868439 Z M23.6681682,117.76789 L13.9441974,117.76789 C13.6959488,117.76789 13.4944717,117.566413 13.4944717,117.318165 L13.4944717,114.961601 C13.4944717,114.712453 13.6959488,114.511876 13.9441974,114.511876 L23.6681682,114.511876 C23.9182157,114.511876 24.1187934,114.712453 24.1187934,114.961601 L24.1187934,117.318165 C24.1187934,117.566413 23.9182157,117.76789 23.6681682,117.76789 Z" id="Fill-97"></path>
                            <path d="M7.71549543,114.498384 L29.8977697,114.498384 L29.8977697,113.526077 L7.71549543,113.526077 L7.71549543,114.498384 Z M30.3474954,115.397835 L7.26576965,115.397835 C7.01842048,115.397835 6.81604388,115.196358 6.81604388,114.94811 L6.81604388,113.076351 C6.81604388,112.827203 7.01842048,112.626625 7.26576965,112.626625 L30.3474954,112.626625 C30.5966435,112.626625 30.7972212,112.827203 30.7972212,113.076351 L30.7972212,114.94811 C30.7972212,115.196358 30.5966435,115.397835 30.3474954,115.397835 Z" id="Fill-98"></path>
                            <path d="M10.8284973,112.626625 L26.7856673,112.626625 L26.7856673,108.690625 L10.8284973,108.690625 L10.8284973,112.626625 Z M27.2344936,113.526077 L10.3787715,113.526077 C10.1296234,113.526077 9.9290457,113.3246 9.9290457,113.076351 L9.9290457,108.240899 C9.9290457,107.991751 10.1296234,107.791174 10.3787715,107.791174 L27.2344936,107.791174 C27.4845411,107.791174 27.6851188,107.991751 27.6851188,108.240899 L27.6851188,113.076351 C27.6851188,113.3246 27.4845411,113.526077 27.2344936,113.526077 Z" id="Fill-99"></path>
                            <path d="M5.70854918,103.018864 C5.09782157,103.018864 4.60312322,103.515361 4.60312322,104.125189 L4.60312322,107.712202 C4.60312322,108.32203 5.09782157,108.818527 5.70854918,108.818527 C6.31927678,108.818527 6.81577404,108.32203 6.81577404,107.712202 L6.81577404,104.125189 C6.81577404,103.515361 6.31927678,103.018864 5.70854918,103.018864 M5.70854918,109.717979 C4.60312322,109.717979 3.70367166,108.817628 3.70367166,107.712202 L3.70367166,104.125189 C3.70367166,103.019763 4.60312322,102.119412 5.70854918,102.119412 C6.81577404,102.119412 7.71522559,103.019763 7.71522559,104.125189 L7.71522559,107.712202 C7.71522559,108.817628 6.81577404,109.717979 5.70854918,109.717979" id="Fill-100"></path>
                            <path d="M71.6557075,120.715393 L117.337053,120.715393 L117.337053,99.8508154 L71.6557075,99.8508154 L71.6557075,120.715393 Z M118.010742,122.06457 L70.9811188,122.06457 C70.606947,122.06457 70.3065302,121.762355 70.3065302,121.389982 L70.3065302,99.1762267 C70.3065302,98.8038537 70.606947,98.501638 70.9811188,98.501638 L118.010742,98.501638 C118.384015,98.501638 118.68623,98.8038537 118.68623,99.1762267 L118.68623,121.389982 C118.68623,121.762355 118.384015,122.06457 118.010742,122.06457 Z" id="Fill-101"></path>
                            <path d="M108.963609,99.8505455 C108.591236,99.8505455 108.28992,99.5483298 108.28992,99.1759569 L108.28992,90.2542969 C108.28992,88.6586698 106.991112,87.3598618 105.396384,87.3598618 L98.0658537,87.3598618 C96.4693272,87.3598618 95.1696197,88.6586698 95.1696197,90.2542969 L95.1696197,98.9349038 C95.1696197,99.3072768 94.867404,99.6094925 94.4959305,99.6094925 C94.1226581,99.6094925 93.8204424,99.3072768 93.8204424,98.9349038 L93.8204424,90.2542969 C93.8204424,87.9139239 95.7254808,86.0106845 98.0658537,86.0106845 L105.396384,86.0106845 C107.735857,86.0106845 109.639097,87.9139239 109.639097,90.2542969 L109.639097,99.1759569 C109.639097,99.5483298 109.336881,99.8505455 108.963609,99.8505455" id="Fill-102"></path>
                            <path d="M84.6788665,116.868439 L93.5060841,116.868439 L93.5060841,115.411327 L84.6788665,115.411327 L84.6788665,116.868439 Z M93.9558099,117.76789 L84.2291408,117.76789 C83.9808921,117.76789 83.779415,117.566413 83.779415,117.318165 L83.779415,114.961601 C83.779415,114.712453 83.9808921,114.511876 84.2291408,114.511876 L93.9558099,114.511876 C94.203159,114.511876 94.4055356,114.712453 94.4055356,114.961601 L94.4055356,117.318165 C94.4055356,117.566413 94.203159,117.76789 93.9558099,117.76789 Z" id="Fill-103"></path>
                            <path d="M78.0013382,114.498384 L100.182713,114.498384 L100.182713,113.526077 L78.0013382,113.526077 L78.0013382,114.498384 Z M100.631539,115.397835 L77.5516124,115.397835 C77.3024644,115.397835 77.1018867,115.196358 77.1018867,114.94811 L77.1018867,113.076351 C77.1018867,112.827203 77.3024644,112.626625 77.5516124,112.626625 L100.631539,112.626625 C100.880687,112.626625 101.082165,112.827203 101.082165,113.076351 L101.082165,114.94811 C101.082165,115.196358 100.880687,115.397835 100.631539,115.397835 Z" id="Fill-104"></path>
                            <path d="M81.1134406,112.626625 L97.0715101,112.626625 L97.0715101,108.690625 L81.1134406,108.690625 L81.1134406,112.626625 Z M97.5212358,113.526077 L80.6637148,113.526077 C80.4145667,113.526077 80.213989,113.3246 80.213989,113.076351 L80.213989,108.240899 C80.213989,107.991751 80.4145667,107.791174 80.6637148,107.791174 L97.5212358,107.791174 C97.768585,107.791174 97.9709616,107.991751 97.9709616,108.240899 L97.9709616,113.076351 C97.9709616,113.3246 97.768585,113.526077 97.5212358,113.526077 Z" id="Fill-105"></path>
                            <path d="M75.9948417,103.018864 C75.3841141,103.018864 74.8885163,103.515361 74.8885163,104.125189 L74.8885163,107.712202 C74.8885163,108.32203 75.3841141,108.818527 75.9948417,108.818527 C76.6064687,108.818527 77.1011671,108.32203 77.1011671,107.712202 L77.1011671,104.125189 C77.1011671,103.515361 76.6064687,103.018864 75.9948417,103.018864 M75.9948417,109.717979 C74.8885163,109.717979 73.9890647,108.817628 73.9890647,107.712202 L73.9890647,104.125189 C73.9890647,103.019763 74.8885163,102.119412 75.9948417,102.119412 C77.1011671,102.119412 78.0006186,103.019763 78.0006186,104.125189 L78.0006186,107.712202 C78.0006186,108.817628 77.1011671,109.717979 75.9948417,109.717979" id="Fill-106"></path>
                        </g>
                    </g>
                    <path d="M270.728801,199.315316 C263.373087,199.315316 257.389935,205.299367 257.389935,212.655082 C257.389935,220.009898 263.373087,225.993049 270.728801,225.993049 C278.084516,225.993049 284.066769,220.009898 284.066769,212.655082 C284.066769,205.299367 278.084516,199.315316 270.728801,199.315316 M270.728801,227.342227 C262.62924,227.342227 256.040758,220.753744 256.040758,212.655082 C256.040758,204.555521 262.62924,197.966139 270.728801,197.966139 C278.828363,197.966139 285.415946,204.555521 285.415946,212.655082 C285.415946,220.753744 278.828363,227.342227 270.728801,227.342227" id="Fill-108" fill="#FF836F" mask="url(#mask-2)"></path>
                    <path d="M202.202646,214.148352 L219.748247,214.148352 L219.748247,163.952659 C219.748247,163.580286 220.050463,163.27807 220.422836,163.27807 L270.053673,163.27807 L270.053673,145.731569 L202.202646,145.731569 L202.202646,214.148352 Z M220.422836,215.497529 L201.528057,215.497529 C201.155684,215.497529 200.853468,215.195313 200.853468,214.82294 L200.853468,145.056981 C200.853468,144.684608 201.155684,144.382392 201.528057,144.382392 L270.729161,144.382392 C271.100635,144.382392 271.40285,144.684608 271.40285,145.056981 L271.40285,163.952659 C271.40285,164.325032 271.100635,164.627248 270.729161,164.627248 L221.097424,164.627248 L221.097424,214.82294 C221.097424,215.195313 220.794309,215.497529 220.422836,215.497529 Z" id="Fill-109" fill="#FF836F" mask="url(#mask-2)"></path>
                    <g id="Group-119" mask="url(#mask-2)" fill="#FF836F">
                        <g transform="translate(9.893967, 143.341996)">
                            <path d="M14.3687386,73.9690969 L35.2333163,73.9690969 L35.2333163,28.2895503 L14.3687386,28.2895503 L14.3687386,73.9690969 Z M35.9079049,75.3182742 L13.6941499,75.3182742 C13.321777,75.3182742 13.0195612,75.0160585 13.0195612,74.6436856 L13.0195612,27.6149616 C13.0195612,27.2425887 13.321777,26.9403729 13.6941499,26.9403729 L35.9079049,26.9403729 C36.2802779,26.9403729 36.5824936,27.2425887 36.5824936,27.6149616 L36.5824936,74.6436856 C36.5824936,75.0160585 36.2802779,75.3182742 35.9079049,75.3182742 Z" id="Fill-110"></path>
                            <path d="M13.4548958,51.802743 L4.77159049,51.802743 C2.43481536,51.802743 0.528877514,49.8995035 0.528877514,47.56003 L0.528877514,40.2286004 C0.528877514,37.8891269 2.43481536,35.9858874 4.77159049,35.9858874 L13.6941499,35.9858874 C14.0665229,35.9858874 14.3687386,36.2881031 14.3687386,36.6604761 C14.3687386,37.032849 14.0665229,37.3350647 13.6941499,37.3350647 L4.77159049,37.3350647 C3.17686289,37.3350647 1.87805484,38.6329733 1.87805484,40.2286004 L1.87805484,47.56003 C1.87805484,49.155657 3.17686289,50.4535656 4.77159049,50.4535656 L13.4548958,50.4535656 C13.8272687,50.4535656 14.1294845,50.7557814 14.1294845,51.1281543 C14.1294845,51.5005272 13.8272687,51.802743 13.4548958,51.802743" id="Fill-111"></path>
                            <path d="M29.9301499,60.9468373 L31.386362,60.9468373 L31.386362,52.1205192 L29.9301499,52.1205192 L29.9301499,60.9468373 Z M31.8369872,61.8462888 L29.4804241,61.8462888 C29.2321755,61.8462888 29.0306984,61.6448117 29.0306984,61.3965631 L29.0306984,51.669894 C29.0306984,51.4216453 29.2321755,51.2201682 29.4804241,51.2201682 L31.8369872,51.2201682 C32.0852358,51.2201682 32.286713,51.4216453 32.286713,51.669894 L32.286713,61.3965631 C32.286713,61.6448117 32.0852358,61.8462888 31.8369872,61.8462888 Z" id="Fill-112"></path>
                            <path d="M28.0457989,67.6234662 L29.0163071,67.6234662 L29.0163071,45.4420914 L28.0457989,45.4420914 L28.0457989,67.6234662 Z M29.4660329,68.5229177 L27.5960731,68.5229177 C27.346925,68.5229177 27.1463473,68.3214406 27.1463473,68.073192 L27.1463473,44.9914662 C27.1463473,44.7432176 27.346925,44.5417404 27.5960731,44.5417404 L29.4660329,44.5417404 C29.7169799,44.5417404 29.9157587,44.7432176 29.9157587,44.9914662 L29.9157587,68.073192 C29.9157587,68.3214406 29.7169799,68.5229177 29.4660329,68.5229177 Z" id="Fill-113"></path>
                            <path d="M23.2067495,64.5122633 L27.1463473,64.5122633 L27.1463473,48.5532943 L23.2067495,48.5532943 L23.2067495,64.5122633 Z M27.5960731,65.4117148 L22.7570238,65.4117148 C22.5087751,65.4117148 22.307298,65.2102377 22.307298,64.961989 L22.307298,48.1026691 C22.307298,47.8544205 22.5087751,47.6529433 22.7570238,47.6529433 L27.5960731,47.6529433 C27.8443218,47.6529433 28.0457989,47.8544205 28.0457989,48.1026691 L28.0457989,64.961989 C28.0457989,65.2102377 27.8443218,65.4117148 27.5960731,65.4117148 Z" id="Fill-114"></path>
                            <path d="M18.6433821,68.522558 C18.0326545,68.522558 17.5388556,69.0190552 17.5388556,69.6288834 C17.5388556,70.239611 18.0326545,70.7361082 18.6433821,70.7361082 L22.2303949,70.7361082 C22.8411225,70.7361082 23.3376197,70.239611 23.3376197,69.6288834 C23.3376197,69.0190552 22.8411225,68.522558 22.2303949,68.522558 L18.6433821,68.522558 Z M22.2303949,71.6355598 L18.6433821,71.6355598 C17.5388556,71.6355598 16.639404,70.7352088 16.639404,69.6288834 C16.639404,68.5234574 17.5388556,67.6231064 18.6433821,67.6231064 L22.2303949,67.6231064 C23.3358208,67.6231064 24.2370713,68.5234574 24.2370713,69.6288834 C24.2370713,70.7352088 23.3358208,71.6355598 22.2303949,71.6355598 Z" id="Fill-115"></path>
                            <path d="M90.7897404,22.0194735 L133.965214,22.0194735 L133.965214,2.12450457 L90.7897404,2.12450457 L90.7897404,22.0194735 Z M134.640702,23.3686508 L90.1151517,23.3686508 C89.7427788,23.3686508 89.4405631,23.0673346 89.4405631,22.6940622 L89.4405631,1.4499159 C89.4405631,1.07754296 89.7427788,0.775327239 90.1151517,0.775327239 L134.640702,0.775327239 C135.012176,0.775327239 135.314391,1.07754296 135.314391,1.4499159 L135.314391,22.6940622 C135.314391,23.0673346 135.012176,23.3686508 134.640702,23.3686508 Z" id="Fill-116"></path>
                            <path d="M119.204314,100.593762 L140.116563,100.593762 L140.116563,80.6987934 L119.204314,80.6987934 L119.204314,100.593762 Z M140.791152,101.94294 L118.529726,101.94294 C118.157353,101.94294 117.855137,101.640724 117.855137,101.268351 L117.855137,80.0242048 C117.855137,79.6518318 118.157353,79.3496161 118.529726,79.3496161 L140.791152,79.3496161 C141.163525,79.3496161 141.464841,79.6518318 141.464841,80.0242048 L141.464841,101.268351 C141.464841,101.640724 141.163525,101.94294 140.791152,101.94294 Z" id="Fill-117"></path>
                            <path d="M48.0398874,36.1115408 C46.1015693,36.1124402 44.5230318,37.6909777 44.5230318,39.6310947 L44.5230318,45.9218589 C44.5230318,47.8637748 46.1024687,49.4432117 48.0452841,49.4432117 L54.3324505,49.4414128 C56.271668,49.4414128 57.8511049,47.8619759 57.8511049,45.9218589 L57.8511049,39.6301952 C57.8511049,37.6900782 56.271668,36.1115408 54.3324505,36.1115408 L48.0398874,36.1115408 Z M48.0452841,50.792389 C45.3577229,50.792389 43.1738545,48.6085207 43.1738545,45.9218589 L43.1738545,39.6310947 C43.1738545,36.9480307 45.3568234,34.7632629 48.0398874,34.7623634 L54.3324505,34.7623634 C57.0173133,34.7623634 59.2002823,36.9462318 59.2002823,39.6301952 L59.2002823,45.9218589 C59.2002823,48.6067218 57.0173133,50.7905901 54.3342494,50.7905901 L48.0452841,50.792389 Z" id="Fill-118"></path>
                        </g>
                    </g>
                    <g id="Group-125" mask="url(#mask-2)" fill="#FF836F">
                        <g transform="translate(396.658135, -0.570252)">
                            <path d="M76.6070984,13.744789 C72.0504768,13.744789 68.3438369,17.4523283 68.3438369,22.0089499 C68.3438369,26.5673704 72.0504768,30.2749097 76.6070984,30.2749097 L93.5428717,30.2749097 L93.5428717,13.744789 L76.6070984,13.744789 Z M94.2174603,31.624087 L76.6070984,31.624087 C71.3048314,31.624087 66.9937601,27.3112168 66.9937601,22.0089499 C66.9937601,16.7084819 71.3048314,12.3956117 76.6070984,12.3956117 L94.2174603,12.3956117 C94.5889338,12.3956117 94.892049,12.6978274 94.892049,13.0702004 L94.892049,30.9494984 C94.892049,31.3218713 94.5889338,31.624087 94.2174603,31.624087 Z" id="Fill-120"></path>
                            <path d="M87.1712468,31.6239971 C86.7997733,31.6239971 86.4975576,31.3217814 86.4975576,30.9494084 L86.4975576,13.0701104 C86.4975576,12.6977375 86.7997733,12.3955218 87.1712468,12.3955218 C87.5454186,12.3955218 87.8467349,12.6977375 87.8467349,13.0701104 L87.8467349,30.9494084 C87.8467349,31.3217814 87.5454186,31.6239971 87.1712468,31.6239971" id="Fill-121"></path>
                            <path d="M11.6146179,65.7750932 L57.1745375,65.7750932 L57.1745375,45.4456892 L11.6146179,45.4456892 L11.6146179,65.7750932 Z M57.8500256,67.1242706 L10.9400293,67.1242706 C10.5685558,67.1242706 10.2654406,66.8220548 10.2654406,66.4496819 L10.2654406,44.7711005 C10.2654406,44.3987276 10.5685558,44.0965119 10.9400293,44.0965119 L57.8500256,44.0965119 C58.2214991,44.0965119 58.5237148,44.3987276 58.5237148,44.7711005 L58.5237148,66.4496819 C58.5237148,66.8220548 58.2214991,67.1242706 57.8500256,67.1242706 Z" id="Fill-122"></path>
                            <path d="M32.3662245,48.5379137 C28.5777346,48.5379137 25.4962135,51.6194347 25.4962135,55.4079247 C25.4962135,59.1964146 28.5777346,62.2779356 32.3662245,62.2779356 L36.4263488,62.2779356 C40.2139393,62.2779356 43.292762,59.1964146 43.292762,55.4079247 C43.292762,51.6194347 40.2139393,48.5379137 36.4263488,48.5379137 L32.3662245,48.5379137 Z M36.4263488,63.627113 L32.3662245,63.627113 C27.8347876,63.627113 24.1461367,59.9402611 24.1461367,55.4079247 C24.1461367,50.8764878 27.8347876,47.1887364 32.3662245,47.1887364 L36.4263488,47.1887364 C40.9568863,47.1887364 44.6419393,50.8764878 44.6419393,55.4079247 C44.6419393,59.9402611 40.9568863,63.627113 36.4263488,63.627113 Z" id="Fill-123"></path>
                            <path d="M2.06873857,25.9527751 L32.2570311,25.9527751 L32.2570311,1.91853016 L2.06873857,1.91853016 L2.06873857,25.9527751 Z M32.9325192,27.3019525 L1.39504936,27.3019525 C1.02177697,27.3019525 0.719561243,27.0006362 0.719561243,26.6273638 L0.719561243,1.24484095 C0.719561243,0.872468007 1.02177697,0.570252285 1.39504936,0.570252285 L32.9325192,0.570252285 C33.3048921,0.570252285 33.6071079,0.872468007 33.6071079,1.24484095 L33.6071079,26.6273638 C33.6071079,27.0006362 33.3048921,27.3019525 32.9325192,27.3019525 Z" id="Fill-124"></path>
                        </g>
                    </g>
                    <path d="M382.098713,131.06898 L394.774684,131.06898 L394.774684,78.8342303 L382.098713,78.8342303 L382.098713,131.06898 Z M395.450172,132.418157 L381.424124,132.418157 C381.051751,132.418157 380.749536,132.116841 380.749536,131.743569 L380.749536,78.1596417 C380.749536,77.7872687 381.051751,77.485053 381.424124,77.485053 L395.450172,77.485053 C395.821645,77.485053 396.123861,77.7872687 396.123861,78.1596417 L396.123861,131.743569 C396.123861,132.116841 395.821645,132.418157 395.450172,132.418157 Z" id="Fill-126" fill="#FF836F" mask="url(#mask-2)"></path>
                    <g id="Group-130" mask="url(#mask-2)" fill="#FF836F">
                        <g transform="translate(420.043876, 83.978194)">
                            <path d="M48.3385053,6.17761316 C46.3920921,6.17761316 44.808158,7.7624468 44.808158,9.71065887 L44.808158,32.2410208 C44.808158,34.1883335 46.3920921,35.7713682 48.3385053,35.7713682 L66.6252548,35.7713682 C68.5725675,35.7713682 70.1574011,34.1883335 70.1574011,32.2410208 L70.1574011,9.71065887 C70.1574011,7.7624468 68.5725675,6.17761316 66.6252548,6.17761316 L48.3385053,6.17761316 Z M66.6252548,37.1205455 L48.3385053,37.1205455 C45.6482457,37.1205455 43.4589806,34.9321799 43.4589806,32.2410208 L43.4589806,9.71065887 C43.4589806,7.01860037 45.6482457,4.82843583 48.3385053,4.82843583 L66.6252548,4.82843583 C69.3164139,4.82843583 71.5065784,7.01860037 71.5065784,9.71065887 L71.5065784,32.2410208 C71.5065784,34.9321799 69.3164139,37.1205455 66.6252548,37.1205455 Z" id="Fill-127"></path>
                            <path d="M44.8079781,28.5953638 L61.9299378,28.5953638 L61.9299378,13.3532578 L44.8079781,13.3532578 L44.8079781,28.5953638 Z M62.605426,29.9445411 L44.1324899,29.9445411 C43.7610165,29.9445411 43.4588007,29.6423254 43.4588007,29.2699525 L43.4588007,12.6786691 C43.4588007,12.3062962 43.7610165,12.0040804 44.1324899,12.0040804 L62.605426,12.0040804 C62.9777989,12.0040804 63.2800146,12.3062962 63.2800146,12.6786691 L63.2800146,29.2699525 C63.2800146,29.6423254 62.9777989,29.9445411 62.605426,29.9445411 Z" id="Fill-128"></path>
                            <path d="M53.3030282,41.8947444 L1.4361543,41.8947444 C1.0628819,41.8947444 0.760666179,41.5925287 0.760666179,41.2201558 L0.760666179,0.728645704 C0.760666179,0.356272761 1.0628819,0.0540570384 1.4361543,0.0540570384 L53.3030282,0.0540570384 C53.6754011,0.0540570384 53.9776168,0.356272761 53.9776168,0.728645704 L53.9776168,4.65385229 C53.9776168,5.02622523 53.6754011,5.32844095 53.3030282,5.32844095 C52.9315547,5.32844095 52.6284395,5.02622523 52.6284395,4.65385229 L52.6284395,1.40323437 L2.11074296,1.40323437 L2.11074296,40.5455671 L52.6284395,40.5455671 L52.6284395,36.4395707 C52.6284395,36.0671978 52.9315547,35.7649821 53.3030282,35.7649821 C53.6754011,35.7649821 53.9776168,36.0671978 53.9776168,36.4395707 L53.9776168,41.2201558 C53.9776168,41.5925287 53.6754011,41.8947444 53.3030282,41.8947444" id="Fill-129"></path>
                        </g>
                    </g>
                    <path d="M414.091125,213.840919 C414.091125,227.297614 403.180778,238.206162 389.724083,238.206162 C376.269188,238.206162 365.35884,227.297614 365.35884,213.840919 C365.35884,200.383325 376.269188,189.474777 389.724083,189.474777 C403.180778,189.474777 414.091125,200.383325 414.091125,213.840919" id="Fill-131" fill="#FF836F" mask="url(#mask-2)"></path>
                    <path d="M389.373837,234.65126 C385.679789,234.65126 382.040608,233.658265 378.781895,231.721746 C374.004908,228.883077 370.619373,224.354339 369.250407,218.968423 C369.188345,218.728269 369.335855,218.483618 369.57421,218.422456 C369.817062,218.356796 370.059014,218.507004 370.122875,218.747158 C371.432477,223.899216 374.670502,228.231874 379.240616,230.949117 C383.80983,233.665461 389.166064,234.439889 394.315424,233.129388 C399.469281,231.818887 403.80104,228.579063 406.517384,224.008949 C409.233727,219.438836 410.005457,214.084401 408.695855,208.932342 C406.564155,200.564744 399.351453,194.554609 390.744601,193.978061 C388.653376,193.837746 386.554956,194.029329 384.502407,194.551011 C384.255058,194.613973 384.017603,194.465563 383.95644,194.226309 C383.893479,193.985256 384.040089,193.740605 384.280243,193.679443 C386.427234,193.134375 388.621895,192.935596 390.805764,193.080408 C399.801179,193.683041 407.342181,199.96481 409.567424,208.711077 C410.937288,214.095194 410.128682,219.691582 407.290912,224.468569 C404.453142,229.245556 399.922605,232.631092 394.537588,234.000057 C392.826831,234.436291 391.094488,234.65126 389.373837,234.65126" id="Fill-132" fill="#D86F5D" mask="url(#mask-2)"></path>
                    <path d="M389.409815,230.557136 C380.191336,230.557136 372.69081,223.058409 372.69081,213.840829 C372.69081,212.01854 372.983131,210.223235 373.562378,208.504383 C373.64153,208.269626 373.896075,208.144603 374.13353,208.221955 C374.366488,208.301107 374.49331,208.555652 374.414159,208.791308 C373.869091,210.416617 373.590261,212.115681 373.590261,213.840829 C373.590261,222.561912 380.686034,229.657685 389.409815,229.657685 C392.330334,229.657685 395.183395,228.854475 397.663182,227.3362 C402.397895,224.430972 405.225771,219.385948 405.225771,213.840829 C405.225771,213.592581 405.428148,213.391103 405.675497,213.391103 C405.924645,213.391103 406.125223,213.592581 406.125223,213.840829 C406.125223,219.701656 403.137245,225.032705 398.132696,228.102533 C395.512594,229.708954 392.496733,230.557136 389.409815,230.557136" id="Fill-133" fill="#D86F5D" mask="url(#mask-2)"></path>
                    <path d="M400.262957,212.282709 C400.032698,212.282709 399.802438,212.194563 399.627045,212.01917 C396.982657,209.373883 393.464902,207.916771 389.724983,207.916771 C385.985063,207.916771 382.468208,209.373883 379.822921,212.01917 C379.472135,212.370856 378.902782,212.370856 378.551096,212.01917 C378.20031,211.667484 378.20031,211.099031 378.551096,210.747346 C381.536376,207.762965 385.504756,206.117868 389.724983,206.117868 C393.946109,206.117868 397.914489,207.762965 400.898869,210.747346 C401.250555,211.099031 401.250555,211.667484 400.898869,212.01917 C400.723476,212.194563 400.493217,212.282709 400.262957,212.282709" id="Fill-134" fill="#53E0BB" mask="url(#mask-2)"></path>
                    <path d="M382.348581,215.107527 C382.118321,215.107527 381.888061,215.019381 381.712668,214.843988 C381.360983,214.492302 381.360983,213.923849 381.712668,213.572163 C383.852464,211.430569 386.698328,210.252287 389.724983,210.252287 C392.751637,210.252287 395.597502,211.430569 397.736398,213.572163 C398.088083,213.923849 398.088083,214.492302 397.736398,214.843988 C397.385612,215.195673 396.816259,215.195673 396.464573,214.843988 C394.664771,213.043286 392.27133,212.05119 389.724983,212.05119 C387.178635,212.05119 384.785195,213.043286 382.984493,214.843988 C382.8091,215.019381 382.57884,215.107527 382.348581,215.107527" id="Fill-135" fill="#FFD93B" mask="url(#mask-2)"></path>
                    <path d="M393.940442,218.264422 C393.710183,218.264422 393.479923,218.176276 393.30453,218.000883 C391.330234,216.028385 388.120091,216.028385 386.145795,218.000883 C385.79411,218.352568 385.225656,218.352568 384.873971,218.000883 C384.522285,217.649197 384.522285,217.080744 384.873971,216.729058 C387.549839,214.05319 391.900486,214.05319 394.576355,216.729058 C394.92804,217.080744 394.92804,217.649197 394.576355,218.000883 C394.400962,218.176276 394.170702,218.264422 393.940442,218.264422" id="Fill-136" fill="#C15EEA" mask="url(#mask-2)"></path>
                    <path d="M391.381773,221.561811 C391.151513,221.561811 390.921253,221.473665 390.74586,221.298272 C390.291637,220.844948 389.49922,220.844948 389.045897,221.298272 C388.695111,221.649958 388.125758,221.649958 387.774072,221.298272 C387.423286,220.946586 387.423286,220.378133 387.774072,220.026448 C388.944259,218.85806 390.847498,218.856261 392.017685,220.026448 C392.36937,220.378133 392.36937,220.946586 392.017685,221.298272 C391.842292,221.473665 391.612032,221.561811 391.381773,221.561811" id="Fill-137" fill="#53E0BB" mask="url(#mask-2)"></path>
                </g>
            </g>
        </g>
    </g>
</svg>