<svg xmlns="http://www.w3.org/2000/svg" width="17" height="18" viewBox="0 0 17 18">
    <path fill="#FFF" fill-rule="evenodd" d="M12.518 11.918c2.313.764 3.62 1.287 3.62 2.508V17.25H.709v-2.824c0-1.221 1.31-1.744 3.622-2.508 2.313-.764 2.067-2.541 2.067-2.541-.627-.615-1.152-1.445-1.486-2.242l.164.556s-.752-.07-1.073-1.177c-.318-1.104.385-1.133.385-1.133s.11.02.11-.324C4.498 2.486 5 .402 8.425.402c3.422 0 3.926 2.084 3.926 4.655 0 .345.11.324.11.324s.706.029.384 1.133c-.318 1.107-1.072 1.177-1.072 1.177l.168-.556c-.338.797-.861 1.627-1.502 2.242.014 0-.233 1.777 2.08 2.54z"/>
</svg>
