<?xml version="1.0" encoding="UTF-8"?>
<svg width="130px" height="35px" viewBox="0 0 130 35" version="1.1" xmlns="http://www.w3.org/2000/svg" xmlns:xlink="http://www.w3.org/1999/xlink">
    <!-- Generator: sketchtool 49 (51002) - http://www.bohemiancoding.com/sketch -->
    <title>6B3E86DA-C34E-455E-980A-CACEF7253228</title>
    <desc>Created with sketchtool.</desc>
    <defs>
        <polygon id="path-1" points="0.240464286 0.00578571429 32.8640357 0.00578571429 32.8640357 18.9285714 0.240464286 18.9285714"></polygon>
        <polygon id="path-3" points="0.26201578 0.227857143 29.5537819 0.227857143 29.5537819 21.7424371 0.26201578 21.7424371"></polygon>
        <polygon id="path-5" points="0 34.77225 129.566786 34.77225 129.566786 0.35725 0 0.35725"></polygon>
    </defs>
    <g id="01_Symbols---Main" stroke="none" stroke-width="1" fill="none" fill-rule="evenodd">
        <g id="top-navi-/-main" transform="translate(-35.000000, -18.000000)">
            <g id="Page-1" transform="translate(35.000000, 18.000000)">
                <path d="M5.88971429,26.5213571 C6.2815,26.0863571 6.7065,25.6867143 7.16828571,25.3256429 C7.39328571,25.3285 7.51757143,25.2224286 7.52578571,24.9920714 C7.91435714,24.4902857 8.40578571,24.1838571 9.03721429,24.0252857 C10.4736429,23.6627857 11.8947143,23.2388571 13.3225714,22.8402857 C13.464,22.8102857 13.6068571,22.786 13.7465,22.7495714 C20.5665,20.9731429 27.3847143,19.1899286 34.2061429,17.4217143 C36.4922143,16.8292143 38.7868571,16.2763571 41.0775714,15.706 C41.1761429,15.7917143 41.2286429,15.9017143 41.2443571,16.0302857 C40.5175714,16.3692143 39.7915,16.7088571 39.064,17.0481429 C38.9382857,16.9724286 38.8815,17.0413571 38.844,17.1527857 C37.5961429,17.7881429 36.3268571,18.3777857 35.0286429,18.9056429 C34.8461429,18.7899286 34.7522143,18.8635 34.7129286,19.0535 C34.5675714,19.1152857 34.4232857,19.1770714 34.2782857,19.2385 C33.9932857,19.1074286 33.7800714,19.1263571 33.7325714,19.4963571 C31.4236429,20.5524286 29.1036429,21.5842143 26.7368571,22.5070714 C26.5604286,22.3917143 26.4632857,22.4574286 26.4193571,22.6456429 C26.2729286,22.716 26.129,22.7927857 25.9793571,22.8556429 C22.1129286,24.4767143 18.2136429,26.0167143 14.2975714,27.5131429 C12.5872143,28.166 10.8782857,28.8231429 9.169,29.4777857 C7.56221429,30.0406429 5.95685714,30.6099286 4.34757143,31.1649286 C2.97757143,31.6374286 1.6015,32.0942143 0.228642857,32.5574286 C0.152571429,32.4017143 0.0761428571,32.246 7.14285714e-05,32.0902857 C0.497214286,31.5420714 1.03328571,31.0338571 1.60507143,30.5635 C1.91185714,30.5752857 2.07221429,30.4320714 2.07042857,30.1199286 C2.53292857,29.611 3.03292857,29.1420714 3.56578571,28.7077857 C3.76328571,28.701 3.88757143,28.6181429 3.88185714,28.4017143 C4.37007143,27.8931429 4.87114286,27.3985 5.42257143,26.9577857 C5.88185714,27.1367143 5.88292857,26.8263571 5.88971429,26.5213571" id="Fill-1" fill="#FEFEFE"></path>
                <g id="Group-5" transform="translate(8.928571, 15.843679)">
                    <mask id="mask-2" fill="white">
                        <use xlink:href="#path-1"></use>
                    </mask>
                    <g id="Clip-4"></g>
                    <path d="M17.8083214,6.66328571 C20.1751071,5.74042857 22.4951071,4.70864286 24.8040357,3.65257143 C24.9858214,3.5665 25.1676071,3.48114286 25.34975,3.39507143 C25.4943929,3.33328571 25.6390357,3.2715 25.7843929,3.20971429 C25.8893929,3.16042857 25.99475,3.11114286 26.1001071,3.06185714 C27.3983214,2.534 28.6676071,1.94435714 29.9154643,1.309 C29.9886786,1.27364286 30.06225,1.239 30.1354643,1.20435714 C30.8629643,0.865428571 31.5890357,0.525428571 32.3158214,0.1865 C32.4986786,0.126142857 32.6811786,0.0657857143 32.8640357,0.00578571429 C32.8201071,0.281142857 32.5761786,0.367214286 32.3851071,0.493642857 C24.8018929,5.53507143 17.18475,10.5250714 9.52903571,15.4572143 C7.84867857,16.5397143 6.16903571,17.6250714 4.50546429,18.7336429 C4.06332143,19.0282857 3.80117857,19.0086429 3.49760714,18.5386429 C2.43189286,16.8907857 1.32867857,15.2672143 0.240464286,13.6343571 C1.94975,12.9797143 3.65867857,12.3225714 5.36903571,11.6697143 C9.28510714,10.1729286 13.1843929,8.63328571 17.0508214,7.01221429 C17.2004643,6.949 17.3443929,6.87221429 17.4908214,6.80221429 C17.5965357,6.75542857 17.7026071,6.70935714 17.8083214,6.66328571" id="Fill-3" fill="#FFB2B0" mask="url(#mask-2)"></path>
                </g>
                <g id="Group-8" transform="translate(5.714286, 0.129393)">
                    <mask id="mask-4" fill="white">
                        <use xlink:href="#path-3"></use>
                    </mask>
                    <g id="Clip-7"></g>
                    <path d="M4.42975,21.7393214 C3.63225,21.7393214 2.91082143,21.7489643 2.19010714,21.7343214 C1.88760714,21.7286071 1.85046429,21.4293214 1.75903571,21.2296786 C-0.318107143,16.7239643 -0.258107143,12.2425357 2.09189286,7.87075 C4.95867857,2.53753571 11.06725,-0.505321429 16.9154643,0.379678571 C23.2951071,1.34503571 28.1526071,5.85967857 29.3783214,12.0114643 C29.6443929,13.3428929 29.7858214,13.1668214 28.4429643,13.18325 C27.5026071,13.1950357 27.5026071,13.1864643 27.2940357,12.2521786 C25.9890357,6.42075 20.89475,2.32146429 14.9651071,2.33253571 C8.99975,2.34360714 3.90439286,6.45967857 2.65260714,12.3296786 C2.00582143,15.3639643 2.48760714,18.2514643 3.98582143,20.9678929 C4.11653571,21.2053929 4.25617857,21.4386071 4.42975,21.7393214" id="Fill-6" fill="#53E0BB" mask="url(#mask-4)"></path>
                </g>
                <path d="M11.7738571,21.2071071 C9.191,17.9078214 9.11814286,12.6835357 11.6035,8.97603571 C14.0352857,5.34960714 18.4717143,3.43496429 22.7099286,4.33567857 C27.2970714,5.30996429 30.186,8.13139286 31.3624286,12.69175 C31.4870714,13.1760357 31.3702857,13.30675 30.8920714,13.2599643 C30.4056429,13.2128214 29.8402857,13.3653214 29.4442143,13.1638929 C29.0542143,12.9660357 29.1113571,12.33175 28.9456429,11.8981786 C27.511,8.14639286 23.6049286,5.76639286 19.6799286,6.27353571 C15.5313571,6.80889286 12.3563571,9.98746429 11.9217143,14.0728214 C11.7795714,15.4078214 11.9199286,16.72425 12.4149286,17.9835357 C12.5377857,18.2960357 12.5188571,18.4863929 12.2392143,18.7171071 C11.271,19.5178214 11.2831429,19.5303214 11.6802857,20.6978214 C11.7367143,20.8649643 11.8485,21.0271071 11.7642143,21.2188929 L11.7738571,21.2071071 Z" id="Fill-9" fill="#FFD93B"></path>
                <path d="M41.7926786,15.8496071 C41.6094643,15.9096071 41.4273214,15.9699643 41.2444643,16.0303214 C41.22875,15.90175 41.1758929,15.79175 41.0776786,15.7060357 C41.0708929,15.6403214 41.3723214,15.6449643 41.1244643,15.5381786 C41.0416071,15.5028214 40.9151786,15.5703214 40.8083929,15.5896071 C39.15125,15.89425 37.4930357,16.1953214 35.83625,16.5024643 C29.8501786,17.6131786 23.8651786,18.7281786 17.87875,19.83675 C16.1683929,20.1538929 14.4551786,20.45675 12.7433929,20.7663929 C14.3730357,19.1310357 16.1019643,17.6021071 17.7876786,16.02675 C17.9526786,15.8721071 18.1416071,15.8649643 18.3426786,15.86175 C25.35875,15.7438929 32.3708929,15.49425 39.3855357,15.3046071 C40.5105357,15.27425 41.6369643,15.3003214 42.7505357,15.3003214 C42.5091071,15.5424643 42.0905357,15.60175 41.7926786,15.8496071" id="Fill-11" fill="#FDFCFC"></path>
                <path d="M25.9402857,13.1065 C25.8135,13.1007857 25.6849286,13.0815 25.5595714,13.0922143 C25.0199286,13.1382857 24.6967143,12.9193571 24.3849286,12.4447143 C23.3245714,10.8325714 21.2974286,10.1411429 19.4495714,10.6747143 C17.5642143,11.2197143 16.2417143,12.8775714 16.181,14.8386429 C16.1685,15.2425714 16.0667143,15.5215 15.7402857,15.7554286 C15.4163571,15.9868571 15.1263571,16.2654286 14.8192143,16.5218571 C14.3420714,16.9193571 14.3238571,16.9125714 14.2031429,16.2825714 C13.9388571,14.9043571 14.0531429,13.5547143 14.6681429,12.2936429 C15.8956429,9.77792857 17.9317143,8.4215 20.7392143,8.43971429 C23.5238571,8.45721429 25.5192143,9.83507143 26.7342143,12.3297143 C27.1220714,13.1261429 27.0981429,13.1375714 26.2131429,13.1143571 C26.1220714,13.1118571 26.0313571,13.114 25.9402857,13.114 L25.9402857,13.1065 Z" id="Fill-13" fill="#C15EEA"></path>
                <path d="M12.7434286,20.76625 C14.4552143,20.4569643 16.1684286,20.15375 17.8787857,19.8366071 C23.8652143,18.7280357 29.8498571,17.6133929 35.8362857,16.5026786 C37.4930714,16.1951786 39.1509286,15.8941071 40.8084286,15.5898214 C40.9152143,15.5701786 41.0416429,15.5030357 41.1245,15.5380357 C41.3723571,15.6448214 41.0705714,15.6401786 41.0777143,15.7058929 C38.787,16.2766071 36.492,16.8294643 34.2062857,17.4216071 C27.3845,19.1898214 20.5662857,20.9730357 13.7466429,22.7498214 C13.607,22.7858929 13.4641429,22.8105357 13.3223571,22.8405357 C13.2612857,22.2794643 12.9609286,21.7969643 12.8077143,21.2666071 C12.7605714,21.1044643 12.6105714,20.9523214 12.7434286,20.76625" id="Fill-15" fill="#FFB2B0"></path>
                <path d="M67.2506429,18.8919643 L67.2506429,26.6333929 C66.246,27.3519643 65.1774286,27.8883929 64.0438571,28.24375 C62.9102857,28.5980357 61.6752857,28.7758929 60.3388571,28.7758929 C58.7352857,28.7758929 57.286,28.5273214 55.9913571,28.0294643 C54.6967143,27.5316071 53.5931429,26.8358929 52.681,25.9419643 C51.7681429,25.0483929 51.0656429,23.97875 50.5727857,22.7351786 C50.0795714,21.4905357 49.8331429,20.1223214 49.8331429,18.6294643 C49.8331429,17.1273214 50.0702857,15.7519643 50.5452857,14.5030357 C51.0199286,13.2541071 51.6992143,12.1851786 52.5845714,11.2958929 C53.4685,10.4066071 54.5402857,9.71553571 55.7981429,9.22232143 C57.056,8.72982143 58.4681429,8.48267857 60.0349286,8.48267857 C60.8274286,8.48267857 61.5624286,8.54267857 62.2399286,8.66232143 C62.9170714,8.78232143 63.546,8.95303571 64.1267143,9.17410714 C64.7074286,9.39517857 65.2442143,9.65982143 65.7374286,9.96910714 C66.2302857,10.2776786 66.6888571,10.6255357 67.1127857,11.0123214 L66.2695714,12.3394643 C66.1406429,12.5519643 65.9699286,12.6851786 65.7574286,12.7405357 C65.5463571,12.7958929 65.3152857,12.7448214 65.0663571,12.5883929 C64.8270714,12.4501786 64.5620714,12.2891071 64.2717143,12.1044643 C63.9817143,11.9201786 63.6363571,11.7501786 63.2352857,11.5930357 C62.8342143,11.4366071 62.3663571,11.3026786 61.8317143,11.1919643 C61.2974286,11.0816071 60.666,11.0266071 59.9377857,11.0266071 C58.8502857,11.0266071 57.8692143,11.2041071 56.9938571,11.5583929 C56.1181429,11.9133929 55.3717143,12.4226786 54.7542143,13.0858929 C54.1363571,13.7498214 53.6620714,14.5494643 53.3302857,15.4844643 C52.9988571,16.4198214 52.8327857,17.4680357 52.8327857,18.6294643 C52.8327857,19.8458929 53.0077857,20.9358929 53.3581429,21.89875 C53.7081429,22.8616071 54.2038571,23.6773214 54.8445714,24.3451786 C55.4845714,25.01375 56.2631429,25.5223214 57.1806429,25.8726786 C58.0970714,26.2230357 59.1224286,26.3980357 60.256,26.3980357 C60.6985,26.3980357 61.1113571,26.3726786 61.4935,26.3219643 C61.8756429,26.2716071 62.2420714,26.1998214 62.5924286,26.1080357 C62.9424286,26.0155357 63.281,25.9001786 63.6085,25.7623214 C63.9356429,25.6244643 64.2602857,25.4719643 64.5827857,25.3058929 L64.5827857,21.1455357 L61.6520714,21.1455357 C61.4677857,21.1455357 61.3185,21.0898214 61.2027857,20.9794643 C61.0877857,20.86875 61.0302857,20.7305357 61.0302857,20.5648214 L61.0302857,18.8919643 L67.2506429,18.8919643 Z" id="Fill-33" fill="#FFFFFF"></path>
                <mask id="mask-6" fill="white">
                    <use xlink:href="#path-5"></use>
                </mask>
                <g id="Clip-36"></g>
                <polygon id="Fill-35" fill="#FFFFFF" mask="url(#mask-6)" points="70.61 28.55475 73.3192857 28.55475 73.3192857 8.15117857 70.61 8.15117857"></polygon>
                <path d="M77.2864286,28.55475 L79.9817857,28.55475 L79.9817857,14.50975 L77.2864286,14.50975 L77.2864286,28.55475 Z M80.4939286,10.1690357 C80.4939286,10.4183214 80.4428571,10.6554643 80.3417857,10.8811786 C80.24,11.10725 80.1039286,11.3054643 79.9335714,11.4758214 C79.7632143,11.6461786 79.5625,11.77975 79.3325,11.8768929 C79.1021429,11.9733214 78.8621429,12.0218929 78.6139286,12.0218929 C78.365,12.0218929 78.13,11.9733214 77.9089286,11.8768929 C77.6871429,11.77975 77.4917857,11.6461786 77.3210714,11.4758214 C77.1503571,11.3054643 77.0167857,11.10725 76.9203571,10.8811786 C76.8232143,10.6554643 76.775,10.4183214 76.775,10.1690357 C76.775,9.91153571 76.8232143,9.66939286 76.9203571,9.44332143 C77.0167857,9.21796429 77.1503571,9.02010714 77.3210714,8.84903571 C77.4917857,8.67832143 77.6871429,8.54475 77.9089286,8.44796429 C78.13,8.35117857 78.365,8.30296429 78.6139286,8.30296429 C78.8621429,8.30296429 79.1021429,8.35117857 79.3325,8.44796429 C79.5625,8.54475 79.7632143,8.67832143 79.9335714,8.84903571 C80.1039286,9.02010714 80.24,9.21796429 80.3417857,9.44332143 C80.4428571,9.66939286 80.4939286,9.91153571 80.4939286,10.1690357 Z" id="Fill-37" fill="#FFFFFF" mask="url(#mask-6)"></path>
                <path d="M92.9485357,17.9101429 C92.5060357,17.3301429 92.02925,16.9240714 91.5178214,16.6940714 C91.00675,16.4637143 90.4328214,16.3483571 89.79675,16.3483571 C88.56175,16.3483571 87.6060357,16.7933571 86.9285357,17.6822857 C86.2506786,18.5719286 85.9124643,19.8687143 85.9124643,21.5737143 C85.9124643,22.468 85.9885357,23.2301429 86.1406786,23.8615714 C86.2924643,24.493 86.5135357,25.0087143 86.8038929,25.4097857 C87.09425,25.8105 87.4510357,26.1058571 87.8753214,26.2947857 C88.29925,26.4837143 88.7781786,26.578 89.3128214,26.578 C90.0963929,26.578 90.7731786,26.4026429 91.3449643,26.0526429 C91.9163929,25.7022857 92.4510357,25.2094286 92.9485357,24.5733571 L92.9485357,17.9101429 Z M95.6578214,8.15121429 L95.6578214,28.5547857 L94.0271071,28.5547857 C93.6488929,28.5547857 93.4138929,28.3747857 93.32175,28.0155 L93.08675,26.398 C92.4878214,27.108 91.8081786,27.6769286 91.0478214,28.1055 C90.2874643,28.5337143 89.4096071,28.7483571 88.41425,28.7483571 C87.6124643,28.7483571 86.88675,28.5915714 86.2371071,28.278 C85.5878214,27.9647857 85.0321071,27.5065714 84.5713929,26.903 C84.1106786,26.2994286 83.7560357,25.5505 83.50675,24.6565714 C83.2581786,23.7626429 83.13425,22.7351429 83.13425,21.5737143 C83.13425,20.5326429 83.2721071,19.5647857 83.5485357,18.6708571 C83.8253214,17.7769286 84.2260357,17.003 84.7510357,16.3483571 C85.2763929,15.6940714 85.9124643,15.1805 86.6588929,14.8072857 C87.4053214,14.4337143 88.2485357,14.2472857 89.1885357,14.2472857 C90.0363929,14.2472857 90.7574643,14.3855 91.35175,14.6619286 C91.9460357,14.9387143 92.4785357,15.3297857 92.9485357,15.8369286 L92.9485357,8.15121429 L95.6578214,8.15121429 Z" id="Fill-38" fill="#FFFFFF" mask="url(#mask-6)"></path>
                <path d="M108.735357,19.97 C108.735357,19.4357143 108.659286,18.9428571 108.506786,18.4907143 C108.354643,18.0396429 108.131429,17.6478571 107.836429,17.3160714 C107.541071,16.9842857 107.182143,16.7264286 106.758214,16.5417857 C106.334286,16.3578571 105.846071,16.2653571 105.292857,16.2653571 C104.159286,16.2653571 103.267857,16.5925 102.617857,17.2471429 C101.968571,17.9014286 101.555357,18.8089286 101.380714,19.97 L108.735357,19.97 Z M110.960357,26.5503571 C110.629286,26.9375 110.246071,27.2710714 109.813571,27.5521429 C109.38,27.8339286 108.919643,28.0617857 108.431071,28.2364286 C107.942143,28.4117857 107.437857,28.5407143 106.917143,28.6235714 C106.396429,28.7067857 105.882857,28.7482143 105.376071,28.7482143 C104.407857,28.7482143 103.511429,28.5842857 102.687143,28.2575 C101.8625,27.9303571 101.148214,27.4510714 100.544286,26.82 C99.9407143,26.1882143 99.4710714,25.4053571 99.1342857,24.47 C98.7982143,23.5342857 98.63,22.4585714 98.63,21.2421429 C98.63,20.2653571 98.7821429,19.3546429 99.0860714,18.5117857 C99.3903571,17.6689286 99.8257143,16.9335714 100.392857,16.3067857 C100.959286,15.6803571 101.6525,15.1867857 102.472857,14.8282143 C103.293214,14.4685714 104.215,14.2885714 105.237857,14.2885714 C106.094286,14.2885714 106.884643,14.4292857 107.608214,14.7103571 C108.331429,14.9914286 108.956071,15.3992857 109.481429,15.9339286 C110.007143,16.4682143 110.419286,17.1271429 110.718571,17.91 C111.017857,18.6939286 111.167857,19.5878571 111.167857,20.5921429 C111.167857,21.0064286 111.121786,21.2860714 111.029643,21.4285714 C110.9375,21.5714286 110.766786,21.6428571 110.518214,21.6428571 L101.312143,21.6428571 C101.339286,22.4814286 101.458929,23.2117857 101.671429,23.8335714 C101.882857,24.4557143 102.175714,24.9742857 102.548929,25.3889286 C102.922143,25.8035714 103.366429,26.1125 103.882857,26.3157143 C104.398929,26.5178571 104.975,26.6192857 105.611071,26.6192857 C106.21,26.6192857 106.727857,26.5503571 107.166071,26.4121429 C107.603214,26.2735714 107.981786,26.1239286 108.299286,25.9628571 C108.6175,25.8017857 108.884643,25.6514286 109.101429,25.5135714 C109.317857,25.3753571 109.509286,25.3057143 109.675,25.3057143 C109.896071,25.3057143 110.066429,25.3889286 110.186071,25.555 L110.960357,26.5503571 Z" id="Fill-39" fill="#FFFFFF" mask="url(#mask-6)"></path>
                <path d="M129.566821,28.5546786 L126.650393,28.5546786 C126.43825,28.5546786 126.267536,28.4975357 126.138964,28.3821786 C126.009679,28.2664643 125.908607,28.1450357 125.835036,28.0153929 L120.706464,19.84575 C120.632179,20.0764643 120.544679,20.2739643 120.443607,20.4400357 L115.45325,28.0153929 C115.361107,28.1450357 115.254679,28.2664643 115.135393,28.3821786 C115.015393,28.4975357 114.86325,28.5546786 114.678964,28.5546786 L111.92825,28.5546786 L118.71575,18.3389643 L112.218964,8.70396429 L115.135393,8.70396429 C115.347536,8.70396429 115.503607,8.73610714 115.605393,8.80039286 C115.706464,8.86539286 115.794321,8.96217857 115.867893,9.09110714 L120.88575,16.8736071 C120.959321,16.6343214 121.061107,16.4128929 121.190036,16.2100357 L125.890036,9.14646429 C125.972893,8.99896429 126.065036,8.88860714 126.166464,8.81467857 C126.267536,8.74075 126.396821,8.70396429 126.55325,8.70396429 L129.359679,8.70396429 L122.821464,18.2150357 L129.566821,28.5546786 Z" id="Fill-40" fill="#FFFFFF" mask="url(#mask-6)"></path>
            </g>
        </g>
    </g>
</svg>