<?xml version="1.0" encoding="UTF-8"?>
<svg width="22px" height="22px" viewBox="0 0 22 22" version="1.1" xmlns="http://www.w3.org/2000/svg" xmlns:xlink="http://www.w3.org/1999/xlink">
    <!-- Generator: sketchtool 48.2 (47327) - http://www.bohemiancoding.com/sketch -->
    <title>DC880D46-F30F-4434-9A57-3AA9CC78BA4B</title>
    <desc>Created with sketchtool.</desc>
    <defs></defs>
    <g id="icon-/-key" stroke="none" stroke-width="1" fill="none" fill-rule="evenodd" transform="translate(-9.000000, -9.000000)">
        <g id="key-icon" transform="translate(10.000000, 10.000000)" stroke="#6D6E71">
            <path d="M17.9780952,2.02095238 C15.9171429,-0.039047619 12.5771429,-0.039047619 10.5161905,2.02095238 C9.09238095,3.4447619 8.65333333,5.48095238 9.19809524,7.28285714 L7.36095238,9.12190476 L7.35904762,12.4771429 L4.23333333,12.4790476 L4.23238095,15.6038095 L0.877142857,15.6057143 L0.476190476,16.0057143 L0.48,16.0095238 L0.48,19.5152381 L3.98952381,19.5190476 L3.99428571,19.5238095 L12.7161905,10.8019048 C14.5171429,11.3457143 16.5552381,10.907619 17.9780952,9.48380952 C20.0390476,7.42380952 20.0390476,4.08190476 17.9780952,2.02095238 Z" id="Stroke-1"></path>
            <path d="M15.975619,5.65285714 C15.5251429,6.10238095 14.7965714,6.10428571 14.3460952,5.65285714 C13.8946667,5.20142857 13.8946667,4.47190476 14.3460952,4.02238095 C14.7965714,3.57095238 15.5251429,3.57095238 15.9765714,4.02238095 C16.4270476,4.47380952 16.4260952,5.20142857 15.975619,5.65285714 Z" id="Stroke-3"></path>
        </g>
    </g>
</svg>