<svg xmlns="http://www.w3.org/2000/svg" xmlns:xlink="http://www.w3.org/1999/xlink" width="20" height="22" viewBox="0 0 20 22">
    <defs>
        <path id="a" d="M0 0h20v21.67H0z"/>
    </defs>
    <g fill="none" fill-rule="evenodd">
        <mask id="b" fill="#fff">
            <use xlink:href="#a"/>
        </mask>
        <path fill="#6D6E71" d="M10 0C4.715 0 4.476 4.084 4.465 6.118a1.474 1.474 0 0 0-.374.364c-.34.472-.398 1.105-.175 1.88.347 1.2 1.095 1.753 1.666 1.953.328.562.709 1.08 1.123 1.526-.05.42-.339 1.286-1.814 1.775C2.375 14.446 0 15.23 0 17.434v4.237h20v-4.238c0-2.203-2.375-2.987-4.89-3.817-1.47-.486-1.762-1.346-1.813-1.777a8.757 8.757 0 0 0 1.121-1.524c.572-.201 1.32-.754 1.664-1.953.225-.773.168-1.407-.171-1.878a1.473 1.473 0 0 0-.376-.366C15.524 4.083 15.284 0 10 0m0 .91c4.033 0 4.626 2.455 4.626 5.484 0 .361.103.381.127.381h.003s.831.035.452 1.336c-.375 1.304-1.263 1.387-1.263 1.387l.198-.655c-.398.939-1.016 1.916-1.77 2.642h.016s-.29 2.094 2.436 2.994c2.724.9 4.266 1.516 4.266 2.955v3.328H.909v-3.328c0-1.439 1.542-2.056 4.266-2.955 2.726-.9 2.436-2.994 2.436-2.994h.016c-.754-.726-1.373-1.703-1.768-2.642l.194.655s-.886-.083-1.263-1.387c-.376-1.301.454-1.336.454-1.336h.003c.024 0 .127-.02.127-.381 0-3.03.592-5.485 4.626-5.485" mask="url(#b)"/>
    </g>
</svg>
