<?xml version="1.0" encoding="UTF-8"?>
<svg width="19px" height="32px" viewBox="0 0 19 32" version="1.1" xmlns="http://www.w3.org/2000/svg" xmlns:xlink="http://www.w3.org/1999/xlink">
    <!-- Generator: sketchtool 48.2 (47327) - http://www.bohemiancoding.com/sketch -->
    <title>C91B058B-33DA-467B-956F-D17FDB46FE78</title>
    <desc>Created with sketchtool.</desc>
    <defs></defs>
    <g id="icon-/-iphone" stroke="none" stroke-width="1" fill="none" fill-rule="evenodd" transform="translate(-11.000000, -4.000000)">
        <g id="Page-1" transform="translate(12.000000, 5.000000)" stroke="#6D6E71">
            <polygon id="Stroke-1" points="0 24 17 24 17 5 0 5"></polygon>
            <path d="M17,25.5216528 C17,27.9847438 15.0781309,30 12.7291798,30 L4.27082025,30 C1.92186911,30 0,27.9847438 0,25.5216528 L0,4.47834719 C0,2.01525624 1.92186911,0 4.27082025,0 L12.7291798,0 C15.0781309,0 17,2.01525624 17,4.47834719 L17,25.5216528 Z" id="Stroke-3"></path>
            <path d="M10.5,2.5 C10.5,3.02010121 10.2791469,3.5 9.76989619,3.5 L7.23010381,3.5 C6.72131816,3.5 6.5,3.01971436 6.5,2.5 C6.5,1.98028564 6.72131816,1.5 7.23010381,1.5 L9.76989619,1.5 C10.2791469,1.5 10.5,1.97989879 10.5,2.5 Z" id="Stroke-5"></path>
        </g>
    </g>
</svg>