<?xml version="1.0" encoding="UTF-8"?>
<svg width="338px" height="226px" viewBox="0 0 338 226" version="1.1" xmlns="http://www.w3.org/2000/svg" xmlns:xlink="http://www.w3.org/1999/xlink">
    <!-- Generator: sketchtool 48.2 (47327) - http://www.bohemiancoding.com/sketch -->
    <title>86983C9F-68B9-4312-8E3A-3CAB24E6344C</title>
    <desc>Created with sketchtool.</desc>
    <defs>
        <polygon id="path-1" points="0 225.031081 337.94453 225.031081 337.94453 0 0 0"></polygon>
    </defs>
    <g id="M-HomePage---1.0" stroke="none" stroke-width="1" fill="none" fill-rule="evenodd" transform="translate(-417.000000, -2440.000000)">
        <g id="Page-1" transform="translate(417.000000, 2440.000000)">
            <path d="M159.562774,1.77690372 C98.2154039,1.77690372 48.3045637,51.6862648 48.3045637,113.034374 C48.3045637,174.381744 98.2154039,224.291105 159.562774,224.291105 C220.909404,224.291105 270.819505,174.381744 270.819505,113.034374 C270.819505,51.6862648 220.909404,1.77690372 159.562774,1.77690372 M159.562774,225.030711 C97.8071414,225.030711 47.5649575,174.789267 47.5649575,113.034374 C47.5649575,51.2794814 97.8071414,1.03729759 159.562774,1.03729759 C221.317667,1.03729759 271.559111,51.2794814 271.559111,113.034374 C271.559111,174.789267 221.317667,225.030711 159.562774,225.030711" id="Fill-1" fill="#4DBEA4"></path>
            <path d="M163.467376,120.148572 L163.467376,132.141285 C163.467376,134.297976 161.719687,136.047145 159.562996,136.047145 C157.406304,136.047145 155.656396,134.297976 155.656396,132.141285 L155.656396,120.148572 C153.322939,118.798051 151.751276,116.277473 151.751276,113.384874 C151.751276,109.071491 155.248133,105.574633 159.562996,105.574633 C163.876379,105.574633 167.373236,109.071491 167.373236,113.384874 C167.373236,116.277473 165.800834,118.798051 163.467376,120.148572 M183.986269,90.7388735 L135.137503,90.7388735 C131.06967,90.7388735 127.741442,94.0671011 127.741442,98.1349348 L127.741442,146.98518 C127.741442,151.053014 131.06967,154.381241 135.137503,154.381241 L183.986269,154.381241 C188.054103,154.381241 191.38233,151.053014 191.38233,146.98518 L191.38233,98.1349348 C191.38233,94.0671011 188.054103,90.7388735 183.986269,90.7388735" id="Fill-3" fill="#FF836F"></path>
            <path d="M159.562774,106.683968 C155.867702,106.683968 152.860463,109.689727 152.860463,113.385539 C152.860463,115.767811 154.145159,117.991806 156.212358,119.188489 C156.555535,119.386703 156.766323,119.752808 156.766323,120.148498 L156.766323,132.141211 C156.766323,133.68329 158.020695,134.937662 159.562774,134.937662 C161.104113,134.937662 162.357745,133.68329 162.357745,132.141211 L162.357745,120.148498 C162.357745,119.752808 162.568533,119.386703 162.91171,119.188489 C164.978909,117.991806 166.264345,115.767811 166.264345,113.385539 C166.264345,109.689727 163.257846,106.683968 159.562774,106.683968 M159.562774,137.15648 C156.797386,137.15648 154.547505,134.906598 154.547505,132.141211 L154.547505,120.760152 C152.122336,119.107872 150.641645,116.338786 150.641645,113.385539 C150.641645,108.466419 154.644393,104.46515 159.562774,104.46515 C164.481154,104.46515 168.483163,108.466419 168.483163,113.385539 C168.483163,116.338786 167.001732,119.107872 164.576564,120.760152 L164.576564,132.141211 C164.576564,134.906598 162.327421,137.15648 159.562774,137.15648" id="Fill-5" fill="#66C2A3"></path>
            <path d="M159.562774,106.683968 C155.867702,106.683968 152.860463,109.689727 152.860463,113.385539 C152.860463,115.767811 154.145159,117.991806 156.212358,119.188489 C156.555535,119.386703 156.766323,119.752808 156.766323,120.148498 L156.766323,132.141211 C156.766323,133.68329 158.020695,134.937662 159.562774,134.937662 C161.104113,134.937662 162.357745,133.68329 162.357745,132.141211 L162.357745,120.148498 C162.357745,119.752808 162.568533,119.386703 162.91171,119.188489 C164.978909,117.991806 166.264345,115.767811 166.264345,113.385539 C166.264345,109.689727 163.257846,106.683968 159.562774,106.683968 M159.562774,137.15648 C156.797386,137.15648 154.547505,134.906598 154.547505,132.141211 L154.547505,120.760152 C152.122336,119.107872 150.641645,116.338786 150.641645,113.385539 C150.641645,108.466419 154.644393,104.46515 159.562774,104.46515 C164.481154,104.46515 168.483163,108.466419 168.483163,113.385539 C168.483163,116.338786 167.001732,119.107872 164.576564,120.760152 L164.576564,132.141211 C164.576564,134.906598 162.327421,137.15648 159.562774,137.15648" id="Fill-7" fill="#D86F5D"></path>
            <path d="M175.03097,90.6596617 L180.947819,90.6596617 L180.947819,68.8560731 C180.947819,63.2787033 176.410336,58.7426989 170.833705,58.7426989 L148.290511,58.7426989 C142.713881,58.7426989 138.176397,63.2787033 138.176397,68.8560731 L138.176397,90.6596617 L144.093246,90.6596617 L144.093246,68.8560731 C144.093246,66.5418455 145.976283,64.6595479 148.290511,64.6595479 L170.833705,64.6595479 C173.147933,64.6595479 175.03097,66.5418455 175.03097,68.8560731 L175.03097,90.6596617 Z M181.687425,92.138874 L174.291364,92.138874 C173.882362,92.138874 173.551758,91.80827 173.551758,91.3992678 L173.551758,68.8560731 C173.551758,67.3576311 172.332887,66.1387602 170.833705,66.1387602 L148.290511,66.1387602 C146.791329,66.1387602 145.572458,67.3576311 145.572458,68.8560731 L145.572458,91.3992678 C145.572458,91.80827 145.241854,92.138874 144.832852,92.138874 L137.436791,92.138874 C137.027789,92.138874 136.697185,91.80827 136.697185,91.3992678 L136.697185,68.8560731 C136.697185,62.4636573 141.897355,57.2634867 148.290511,57.2634867 L170.833705,57.2634867 C177.226861,57.2634867 182.427032,62.4636573 182.427032,68.8560731 L182.427032,91.3992678 C182.427032,91.80827 182.096428,92.138874 181.687425,92.138874 Z" id="Fill-9" fill="#FF836F"></path>
            <path d="M262.480741,184.026282 C262.480741,188.094116 259.152514,191.422343 255.08468,191.422343 L241.844251,191.422343 C237.776418,191.422343 234.44819,188.094116 234.44819,184.026282 L234.44819,151.642628 C234.44819,147.574794 237.776418,144.246566 241.844251,144.246566 L255.08468,144.246566 C259.152514,144.246566 262.480741,147.574794 262.480741,151.642628 L262.480741,184.026282 Z" id="Fill-11" fill="#FFD8CB"></path>
            <path d="M241.843955,144.801123 C238.071225,144.801123 235.002599,147.869749 235.002599,151.64248 L235.002599,184.026134 C235.002599,187.798865 238.071225,190.867491 241.843955,190.867491 L255.084384,190.867491 C258.857115,190.867491 261.925741,187.798865 261.925741,184.026134 L261.925741,151.64248 C261.925741,147.869749 258.857115,144.801123 255.084384,144.801123 L241.843955,144.801123 Z M255.084384,191.9769 L241.843955,191.9769 C237.45957,191.9769 233.893189,188.410519 233.893189,184.026134 L233.893189,151.64248 C233.893189,147.258095 237.45957,143.691714 241.843955,143.691714 L255.084384,143.691714 C259.468769,143.691714 263.03515,147.258095 263.03515,151.64248 L263.03515,184.026134 C263.03515,188.410519 259.468769,191.9769 255.084384,191.9769 Z" id="Fill-13" fill="#D86F5D"></path>
            <mask id="mask-2" fill="white">
                <use xlink:href="#path-1"></use>
            </mask>
            <g id="Clip-16"></g>
            <polygon id="Fill-15" fill="#FF836F" mask="url(#mask-2)" points="234.448486 183.224845 262.481037 183.224845 262.481037 151.032009 234.448486 151.032009"></polygon>
            <path d="M235.002451,182.67014 L261.925593,182.67014 L261.925593,151.586713 L235.002451,151.586713 L235.002451,182.67014 Z M262.481037,183.779549 L234.447746,183.779549 C234.141549,183.779549 233.893042,183.531042 233.893042,183.224845 L233.893042,151.031269 C233.893042,150.725072 234.141549,150.476565 234.447746,150.476565 L262.481037,150.476565 C262.787234,150.476565 263.035742,150.725072 263.035742,151.031269 L263.035742,183.224845 C263.035742,183.531042 262.787234,183.779549 262.481037,183.779549 Z" id="Fill-17" fill="#D86F5D" mask="url(#mask-2)"></path>
            <path d="M248.464318,185.232505 C247.6722,185.232505 247.028003,185.875963 247.028003,186.666602 C247.028003,187.45872 247.6722,188.102917 248.464318,188.102917 C249.254957,188.102917 249.899154,187.45872 249.899154,186.666602 C249.899154,185.875963 249.254957,185.232505 248.464318,185.232505 M248.464318,188.842523 C247.264677,188.842523 246.288396,187.866982 246.288396,186.666602 C246.288396,185.4677 247.264677,184.492899 248.464318,184.492899 C249.663219,184.492899 250.63876,185.4677 250.63876,186.666602 C250.63876,187.866982 249.663219,188.842523 248.464318,188.842523" id="Fill-18" fill="#D86F5D" mask="url(#mask-2)"></path>
            <path d="M246.470118,148.135119 L250.459553,148.135119 C250.492096,148.075951 250.537212,147.944301 250.537212,147.754962 C250.537212,147.566362 250.492835,147.436192 250.459553,147.377023 L246.470118,147.377023 C246.436835,147.436192 246.393199,147.566362 246.393199,147.754962 C246.393199,147.944301 246.437575,148.075951 246.470118,148.135119 M250.532774,148.874726 L246.396897,148.874726 C245.965706,148.874726 245.653593,148.403596 245.653593,147.754962 C245.653593,147.107067 245.965706,146.637417 246.396897,146.637417 L250.532774,146.637417 C250.963965,146.637417 251.276818,147.107067 251.276818,147.754962 C251.276818,148.403596 250.963965,148.874726 250.532774,148.874726" id="Fill-19" fill="#D86F5D" mask="url(#mask-2)"></path>
            <path d="M276.849587,164.582702 C275.314905,164.582702 274.067189,165.831158 274.067189,167.36658 L274.067189,172.182155 C274.067189,173.717578 275.314905,174.966033 276.849587,174.966033 L281.668121,174.966033 C283.202064,174.966033 284.44978,173.717578 284.44978,172.182155 L284.44978,167.36658 C284.44978,165.831158 283.202064,164.582702 281.668121,164.582702 L276.849587,164.582702 Z M281.668121,176.075442 L276.849587,176.075442 C274.70399,176.075442 272.95778,174.329232 272.95778,172.182155 L272.95778,167.36658 C272.95778,165.219503 274.70399,163.473293 276.849587,163.473293 L281.668121,163.473293 C283.813719,163.473293 285.559189,165.219503 285.559189,167.36658 L285.559189,172.182155 C285.559189,174.329232 283.813719,176.075442 281.668121,176.075442 Z" id="Fill-20" fill="#D86F5D" mask="url(#mask-2)"></path>
            <path d="M291.201126,164.582702 C289.666444,164.582702 288.417989,165.831158 288.417989,167.36658 L288.417989,172.182155 C288.417989,173.717578 289.666444,174.966033 291.201126,174.966033 L296.018921,174.966033 C297.553604,174.966033 298.801319,173.717578 298.801319,172.182155 L298.801319,167.36658 C298.801319,165.831158 297.553604,164.582702 296.018921,164.582702 L291.201126,164.582702 Z M296.018921,176.075442 L291.201126,176.075442 C289.054789,176.075442 287.308579,174.329232 287.308579,172.182155 L287.308579,167.36658 C287.308579,165.219503 289.054789,163.473293 291.201126,163.473293 L296.018921,163.473293 C298.165258,163.473293 299.910728,165.219503 299.910728,167.36658 L299.910728,172.182155 C299.910728,174.329232 298.165258,176.075442 296.018921,176.075442 Z" id="Fill-21" fill="#D86F5D" mask="url(#mask-2)"></path>
            <path d="M305.553405,164.582702 C304.018723,164.582702 302.770267,165.831158 302.770267,167.36658 L302.770267,172.182155 C302.770267,173.717578 304.018723,174.966033 305.553405,174.966033 L310.37046,174.966033 C311.905143,174.966033 313.152858,173.717578 313.152858,172.182155 L313.152858,167.36658 C313.152858,165.831158 311.905143,164.582702 310.37046,164.582702 L305.553405,164.582702 Z M310.37046,176.075442 L305.553405,176.075442 C303.407068,176.075442 301.660858,174.329232 301.660858,172.182155 L301.660858,167.36658 C301.660858,165.219503 303.407068,163.473293 305.553405,163.473293 L310.37046,163.473293 C312.517537,163.473293 314.262267,165.219503 314.262267,167.36658 L314.262267,172.182155 C314.262267,174.329232 312.517537,176.075442 310.37046,176.075442 Z" id="Fill-22" fill="#D86F5D" mask="url(#mask-2)"></path>
            <path d="M276.849587,179.601662 C275.314905,179.601662 274.067189,180.850117 274.067189,182.38554 L274.067189,187.201115 C274.067189,188.736537 275.314905,189.984993 276.849587,189.984993 L281.668121,189.984993 C283.202064,189.984993 284.44978,188.736537 284.44978,187.201115 L284.44978,182.38554 C284.44978,180.850117 283.202064,179.601662 281.668121,179.601662 L276.849587,179.601662 Z M281.668121,191.094402 L276.849587,191.094402 C274.70399,191.094402 272.95778,189.348192 272.95778,187.201115 L272.95778,182.38554 C272.95778,180.238463 274.70399,178.492253 276.849587,178.492253 L281.668121,178.492253 C283.813719,178.492253 285.559189,180.238463 285.559189,182.38554 L285.559189,187.201115 C285.559189,189.348192 283.813719,191.094402 281.668121,191.094402 Z" id="Fill-23" fill="#D86F5D" mask="url(#mask-2)"></path>
            <path d="M291.201126,179.601662 C289.666444,179.601662 288.417989,180.850117 288.417989,182.38554 L288.417989,187.201115 C288.417989,188.736537 289.666444,189.984993 291.201126,189.984993 L296.018921,189.984993 C297.553604,189.984993 298.801319,188.736537 298.801319,187.201115 L298.801319,182.38554 C298.801319,180.850117 297.553604,179.601662 296.018921,179.601662 L291.201126,179.601662 Z M296.018921,191.094402 L291.201126,191.094402 C289.054789,191.094402 287.308579,189.348192 287.308579,187.201115 L287.308579,182.38554 C287.308579,180.238463 289.054789,178.492253 291.201126,178.492253 L296.018921,178.492253 C298.165258,178.492253 299.910728,180.238463 299.910728,182.38554 L299.910728,187.201115 C299.910728,189.348192 298.165258,191.094402 296.018921,191.094402 Z" id="Fill-24" fill="#D86F5D" mask="url(#mask-2)"></path>
            <path d="M305.553405,179.601662 C304.018723,179.601662 302.770267,180.850117 302.770267,182.38554 L302.770267,187.201115 C302.770267,188.736537 304.018723,189.984993 305.553405,189.984993 L310.37046,189.984993 C311.905143,189.984993 313.152858,188.736537 313.152858,187.201115 L313.152858,182.38554 C313.152858,180.850117 311.905143,179.601662 310.37046,179.601662 L305.553405,179.601662 Z M310.37046,191.094402 L305.553405,191.094402 C303.407068,191.094402 301.660858,189.348192 301.660858,187.201115 L301.660858,182.38554 C301.660858,180.238463 303.407068,178.492253 305.553405,178.492253 L310.37046,178.492253 C312.517537,178.492253 314.262267,180.238463 314.262267,182.38554 L314.262267,187.201115 C314.262267,189.348192 312.517537,191.094402 310.37046,191.094402 Z" id="Fill-25" fill="#D86F5D" mask="url(#mask-2)"></path>
            <path d="M306.247526,210.409438 C305.449491,210.409438 304.752782,210.978195 304.589329,211.760698 L304.214348,213.572733 C304.02427,214.487626 304.613736,215.386247 305.527149,215.576326 L320.933884,218.775123 C321.040388,218.796571 321.137276,218.849083 321.213456,218.926002 L322.315469,220.026536 C323.012917,220.723985 324.22883,220.723985 324.925539,220.026536 L336.294764,208.656571 C336.643119,208.308217 336.834677,207.845223 336.834677,207.351906 C336.835416,206.858589 336.643119,206.395595 336.294764,206.04798 L324.531329,194.283066 C324.025438,193.777175 323.141609,193.778654 322.635718,194.283066 L321.666095,195.252689 C321.331053,195.587731 321.197924,196.081788 321.320698,196.542562 C321.385044,196.784414 321.278541,197.040317 321.061836,197.165311 C320.844392,197.289565 320.569259,197.254803 320.392493,197.077298 L317.925167,194.611451 C317.418537,194.104081 316.534707,194.104081 316.029556,194.611451 L315.060672,195.578856 C314.593241,196.047026 314.534812,196.774799 314.922366,197.310274 C315.091736,197.543989 315.052537,197.870155 314.832134,198.057276 C314.612471,198.245136 314.284086,198.231823 314.080694,198.027691 L311.972817,195.919814 C311.471364,195.416882 310.535762,195.461258 309.983276,196.013744 L308.946348,197.049932 C308.601692,197.393849 308.435281,197.873853 308.502585,198.332409 C308.537346,198.568344 308.41679,198.801319 308.203044,198.907823 C307.987819,199.014326 307.730436,198.974387 307.561066,198.805018 L302.33353,193.578221 C301.670843,192.913315 300.510401,192.915534 299.847714,193.578221 L298.665823,194.761591 C297.980208,195.447206 297.979469,196.562532 298.664344,197.248886 L311.929919,210.512982 C312.102987,210.68605 312.142186,210.952309 312.026068,211.168274 C311.909211,211.384239 311.663661,211.500357 311.424768,211.447845 L306.594401,210.445678 C306.479022,210.422011 306.362904,210.409438 306.247526,210.409438 M323.620134,221.676597 C322.830974,221.676597 322.089149,221.368921 321.530007,220.810519 L320.546331,219.826842 L305.303049,216.662807 C303.789814,216.347735 302.813534,214.861127 303.127867,213.347893 L303.502847,211.534379 C303.772804,210.240068 304.926589,209.300028 306.247526,209.300028 C306.438344,209.300028 306.631381,209.319998 306.819241,209.359197 L309.832396,209.984904 L297.880361,198.033608 C296.762817,196.913845 296.763556,195.094414 297.881101,193.976869 L299.063731,192.794239 C300.147254,191.710716 302.037688,191.710716 303.119731,192.794239 L307.545534,197.220042 C307.678663,196.867249 307.887232,196.539604 308.163105,196.26447 L309.198554,195.229761 C310.167438,194.261617 311.838208,194.214282 312.757539,195.135832 L313.614003,195.993035 C313.71237,195.55223 313.936471,195.135832 314.27595,194.794873 L315.243355,193.826729 C316.167863,192.900742 317.783162,192.900002 318.709889,193.826729 L320.296344,195.412444 C320.414681,195.061131 320.612895,194.736444 320.882852,194.467228 L321.850996,193.499083 C322.775504,192.575315 324.388585,192.573836 325.314572,193.499083 L337.079486,205.263258 C337.637149,205.820182 337.944825,206.562746 337.944086,207.351906 C337.944086,208.141805 337.637149,208.88363 337.079486,209.440554 L325.708782,220.810519 C325.151858,221.368921 324.410033,221.675858 323.620134,221.676597" id="Fill-26" fill="#D86F5D" mask="url(#mask-2)"></path>
            <polygon id="Fill-27" fill="#FF836F" mask="url(#mask-2)" points="5.62322538 199.202556 100.335707 199.202556 100.335707 151.288652 5.62322538 151.288652"></polygon>
            <path d="M100.335781,198.66819 C100.335781,202.736024 97.0075532,206.064252 92.9397195,206.064252 L13.0193606,206.064252 C8.95152691,206.064252 5.62329934,202.736024 5.62329934,198.66819 L5.62329934,150.084943 C5.62329934,146.017109 8.95152691,142.688882 13.0193606,142.688882 L92.9397195,142.688882 C97.0075532,142.688882 100.335781,146.017109 100.335781,150.084943 L100.335781,198.66819 Z" id="Fill-28" fill="#FFD8CB" mask="url(#mask-2)"></path>
            <path d="M13.0196565,143.243956 C9.2469256,143.243956 6.17829978,146.312582 6.17829978,150.085313 L6.17829978,198.66856 C6.17829978,202.440551 9.2469256,205.509917 13.0196565,205.509917 L92.9400153,205.509917 C96.7120066,205.509917 99.781372,202.440551 99.781372,198.66856 L99.781372,150.085313 C99.781372,146.312582 96.7120066,143.243956 92.9400153,143.243956 L13.0196565,143.243956 Z M92.9400153,206.619326 L13.0196565,206.619326 C8.63527133,206.619326 5.06889059,203.052206 5.06889059,198.66856 L5.06889059,150.085313 C5.06889059,145.700928 8.63527133,142.134547 13.0196565,142.134547 L92.9400153,142.134547 C97.3236608,142.134547 100.890781,145.700928 100.890781,150.085313 L100.890781,198.66856 C100.890781,203.052206 97.3236608,206.619326 92.9400153,206.619326 Z" id="Fill-29" fill="#D86F5D" mask="url(#mask-2)"></path>
            <path d="M105.404671,208.697619 C105.404671,210.145768 103.740558,211.331357 101.706641,211.331357 L4.25243939,211.331357 C2.21852254,211.331357 0.554408753,210.145768 0.554408753,208.697619 C0.554408753,207.24947 2.21852254,206.063882 4.25243939,206.063882 L101.706641,206.063882 C103.740558,206.063882 105.404671,207.24947 105.404671,208.697619" id="Fill-30" fill="#FFD8CB" mask="url(#mask-2)"></path>
            <path d="M4.25273523,206.618956 C2.54868271,206.618956 1.10940919,207.570829 1.10940919,208.697989 C1.10940919,209.824409 2.54868271,210.776282 4.25273523,210.776282 L101.706937,210.776282 C103.410249,210.776282 104.850263,209.824409 104.850263,208.697989 C104.850263,207.570829 103.410249,206.618956 101.706937,206.618956 L4.25273523,206.618956 Z M101.706937,211.885691 L4.25273523,211.885691 C1.9074442,211.885691 0,210.455293 0,208.697989 C0,206.939945 1.9074442,205.509547 4.25273523,205.509547 L101.706937,205.509547 C104.052228,205.509547 105.959672,206.939945 105.959672,208.697989 C105.959672,210.455293 104.052228,211.885691 101.706937,211.885691 Z" id="Fill-31" fill="#D86F5D" mask="url(#mask-2)"></path>
            <path d="M42.5007265,210.776652 L63.4567265,210.776652 L63.4567265,206.619326 L42.5007265,206.619326 L42.5007265,210.776652 Z M64.0114311,211.886061 L41.9460219,211.886061 C41.6398249,211.886061 41.3913173,211.637554 41.3913173,211.331357 L41.3913173,206.063882 C41.3913173,205.757685 41.6398249,205.509177 41.9460219,205.509177 L64.0114311,205.509177 C64.317628,205.509177 64.5661357,205.757685 64.5661357,206.063882 L64.5661357,211.331357 C64.5661357,211.637554 64.317628,211.886061 64.0114311,211.886061 Z" id="Fill-32" fill="#D86F5D" mask="url(#mask-2)"></path>
            <path d="M52.9793182,145.832578 C52.0910512,145.832578 51.368456,146.555173 51.368456,147.44344 C51.368456,148.331707 52.0910512,149.053562 52.9793182,149.053562 C53.8661059,149.053562 54.5894407,148.331707 54.5894407,147.44344 C54.5894407,146.555173 53.8661059,145.832578 52.9793182,145.832578 M52.9793182,149.793168 C51.6835282,149.793168 50.6288499,148.73923 50.6288499,147.44344 C50.6288499,146.14765 51.6835282,145.092972 52.9793182,145.092972 C54.2751081,145.092972 55.3290468,146.14765 55.3290468,147.44344 C55.3290468,148.73923 54.2751081,149.793168 52.9793182,149.793168" id="Fill-33" fill="#D86F5D" mask="url(#mask-2)"></path>
            <polygon id="Fill-34" fill="#FF836F" mask="url(#mask-2)" points="5.62322538 199.202556 100.335707 199.202556 100.335707 151.288652 5.62322538 151.288652"></polygon>
            <path d="M44.1084083,172.609352 L43.3236862,171.82463 C45.9026928,169.245623 49.3322464,167.82484 52.9792442,167.82484 C56.6284608,167.82484 60.0565352,169.245623 62.6348022,171.82463 L61.8500801,172.609352 C59.4818613,170.239654 56.3311392,168.934249 52.9792442,168.934249 C49.6288284,168.934249 46.4781063,170.239654 44.1084083,172.609352" id="Fill-35" fill="#FFFFFF" mask="url(#mask-2)"></path>
            <path d="M46.8869606,175.092505 L46.1022385,174.307783 C47.9394201,172.470602 50.3823392,171.458821 52.9790963,171.458821 C55.5788118,171.458821 58.0209912,172.470602 59.8566937,174.307783 L59.0734508,175.092505 C57.4455777,173.464632 55.2822298,172.56823 52.9790963,172.56823 C50.6781816,172.56823 48.5140941,173.464632 46.8869606,175.092505" id="Fill-36" fill="#FFFFFF" mask="url(#mask-2)"></path>
            <path d="M49.6655869,177.868913 L48.8808648,177.084191 C51.1418407,174.824694 54.8191624,174.826173 57.0764403,177.084191 L56.2917182,177.868913 C54.4656306,176.042825 51.4946328,176.044305 49.6655869,177.868913" id="Fill-37" fill="#FFFFFF" mask="url(#mask-2)"></path>
            <path d="M54.0453864,180.767355 C53.5417147,180.263684 52.7207519,180.261465 52.2170801,180.766616 L51.4330976,179.981894 C52.3672201,179.045552 53.8908088,179.047032 54.8301085,179.981894 L54.0453864,180.767355 Z" id="Fill-38" fill="#FFFFFF" mask="url(#mask-2)"></path>
            <path d="M117.667415,202.213788 C117.813117,202.213788 117.955122,202.271477 118.059406,202.376502 L127.379923,211.697758 C127.981222,212.299797 128.780737,212.630401 129.631284,212.630401 C130.481831,212.630401 131.280605,212.299797 131.882645,211.697758 C132.483205,211.097197 132.814548,210.297683 132.814548,209.447136 C132.814548,208.597329 132.483944,207.797814 131.883384,207.196515 L122.561389,197.875259 C122.441572,197.755442 122.383144,197.586073 122.402373,197.417442 C122.423082,197.248073 122.519971,197.097933 122.664933,197.00918 L127.010859,194.359171 L106.39138,186.206493 L114.5411,206.827451 L117.193327,202.479307 C117.28208,202.334344 117.43222,202.237456 117.60159,202.217486 C117.623039,202.215267 117.645966,202.213788 117.667415,202.213788 M129.631284,213.73981 C128.484894,213.73981 127.406548,213.293088 126.594461,212.48248 L117.773918,203.658979 L114.908684,208.356217 C114.798483,208.535941 114.601008,208.639486 114.387262,208.619517 C114.177953,208.601766 113.99675,208.466418 113.919831,208.270423 L104.88924,185.423989 C104.807144,185.218379 104.856697,184.983924 105.012754,184.827867 C105.169551,184.67107 105.404006,184.622996 105.608137,184.704353 L128.45531,193.737162 C128.650566,193.814821 128.785914,193.996025 128.804404,194.205333 C128.822154,194.415381 128.720089,194.617294 128.540365,194.726755 L123.845345,197.589031 L132.667367,206.412532 C133.477975,207.222401 133.923958,208.300007 133.923958,209.447136 C133.923958,210.594265 133.477235,211.671871 132.666627,212.48248 C131.856758,213.293088 130.778413,213.73981 129.631284,213.73981" id="Fill-39" fill="#D86F5D" mask="url(#mask-2)"></path>
            <path d="M96.3950853,21.9673374 C96.3950853,21.9214818 96.3973042,21.8778451 96.3973042,21.8312499 C96.3973042,14.3937707 90.3672954,8.36376193 82.9305558,8.36376193 C79.5675667,8.36376193 76.4967221,9.60038337 74.1358993,11.6343002 C70.8690591,6.82981882 65.3575142,3.67244026 59.1078425,3.67244026 C49.0780438,3.67244026 40.946814,11.8021908 40.946814,21.8312499 C40.946814,21.8778451 40.950512,21.9214818 40.950512,21.9673374 C34.8051247,23.2934512 30.1988578,28.7584009 30.1988578,35.3002171 C30.1988578,42.8353243 36.3065252,48.9444709 43.842372,48.9444709 L93.5032254,48.9444709 C101.036853,48.9444709 107.146,42.8353243 107.146,35.3002171 C107.146,28.7584009 102.539733,23.2949304 96.3950853,21.9673374" id="Fill-40" fill="#FF836F" mask="url(#mask-2)"></path>
            <path d="M59.1078425,4.22684902 C49.3997724,4.22684902 41.500779,12.1243632 41.500779,21.8316937 L41.5052166,21.9670416 C41.5052166,22.2288621 41.3232735,22.454442 41.0673698,22.5099125 C35.0913523,23.799046 30.7535624,29.1782013 30.7535624,35.3006608 C30.7535624,42.5177374 36.6252954,48.3894705 43.842372,48.3894705 L93.5032254,48.3894705 C100.720302,48.3894705 106.591295,42.5177374 106.591295,35.3006608 C106.591295,29.1796805 102.254245,23.8005252 96.2782276,22.5099125 C96.0223239,22.454442 95.8403807,22.2288621 95.8403807,21.9670416 C95.8403807,21.9626039 95.84186,21.8908621 95.84186,21.8908621 C95.8425996,14.7115055 90.050744,8.91891028 82.9305558,8.91891028 C79.8390022,8.91891028 76.8450766,10.0327571 74.4983063,12.0548403 C74.3784902,12.1583851 74.2216937,12.2057199 74.0641575,12.1842713 C73.9066214,12.1635624 73.7660963,12.0770284 73.6773435,11.9468578 C70.3905339,7.11205252 64.944814,4.22684902 59.1078425,4.22684902 M93.5032254,49.4988796 L43.842372,49.4988796 C36.0136411,49.4988796 29.6441532,43.1293917 29.6441532,35.3006608 C29.6441532,28.8098775 34.1387396,23.0897637 40.3943282,21.5277155 C40.5577812,11.3477768 48.8894442,3.11743982 59.1078425,3.11743982 C65.1090066,3.11743982 70.7226171,5.9878512 74.2453611,10.8256149 C76.7171247,8.87601313 79.7768753,7.80950109 82.9305558,7.80950109 C90.559593,7.80950109 96.7848578,13.934919 96.9483107,21.5269759 C103.205379,23.0897637 107.700705,28.8106171 107.700705,35.3006608 C107.700705,43.1293917 101.331956,49.4988796 93.5032254,49.4988796" id="Fill-41" fill="#D86F5D" mask="url(#mask-2)"></path>
            <polygon id="Fill-42" fill="#FF836F" mask="url(#mask-2)" points="256.572546 0.554852516 219.359263 0.554852516 219.359263 52.0617628 264.211937 52.0617628 264.211937 8.1935046"></polygon>
            <path d="M219.913672,51.5067624 L263.657677,51.5067624 L263.657677,8.42322626 L256.342972,1.10926127 L219.913672,1.10926127 L219.913672,51.5067624 Z M264.212381,52.6161716 L219.358968,52.6161716 C219.052771,52.6161716 218.804263,52.3676639 218.804263,52.061467 L218.804263,0.554556674 C218.804263,0.248359737 219.052771,-0.000147921225 219.358968,-0.000147921225 L256.57225,-0.000147921225 C256.720171,-0.000147921225 256.860696,0.0582809628 256.964981,0.162565427 L264.603633,7.80121751 C264.707917,7.90550197 264.767086,8.04602713 264.767086,8.19320875 L264.767086,52.061467 C264.767086,52.3676639 264.518578,52.6161716 264.212381,52.6161716 Z" id="Fill-43" fill="#D86F5D" mask="url(#mask-2)"></path>
            <path d="M241.784787,40.1223011 C241.171653,40.1223011 240.675378,39.6252858 240.675378,39.0128919 L240.675378,13.6022442 C240.675378,12.9891107 241.171653,12.492835 241.784787,12.492835 C242.397181,12.492835 242.894196,12.9891107 242.894196,13.6022442 L242.894196,39.0128919 C242.894196,39.6252858 242.397181,40.1223011 241.784787,40.1223011" id="Fill-44" fill="#FFFFFF" mask="url(#mask-2)"></path>
            <path d="M241.784787,40.1223011 C241.500778,40.1223011 241.216769,40.0143186 240.999325,39.797614 L229.083531,27.8825593 C228.650122,27.4491501 228.650122,26.7472639 229.083531,26.3138547 C229.51694,25.8804455 230.218826,25.8804455 230.652235,26.3138547 L241.784787,37.4441873 L252.916599,26.3138547 C253.350747,25.8804455 254.051894,25.8804455 254.484564,26.3138547 C254.918712,26.7472639 254.918712,27.4491501 254.484564,27.8825593 L242.569509,39.797614 C242.352804,40.0143186 242.068796,40.1223011 241.784787,40.1223011" id="Fill-45" fill="#FFFFFF" mask="url(#mask-2)"></path>
        </g>
    </g>
</svg>