<?xml version="1.0" encoding="UTF-8"?>
<svg width="22px" height="11px" viewBox="0 0 22 11" version="1.1" xmlns="http://www.w3.org/2000/svg" xmlns:xlink="http://www.w3.org/1999/xlink">
    <!-- Generator: sketchtool 49 (51002) - http://www.bohemiancoding.com/sketch -->
    <title>8F28E6CC-DE9A-4A0F-AA74-5B49FCE92326</title>
    <desc>Created with sketchtool.</desc>
    <defs></defs>
    <g id="HOMEPAGE" stroke="none" stroke-width="1" fill="none" fill-rule="evenodd">
        <g id="Home-Page---1.0" transform="translate(-967.000000, -1216.000000)">
            <g id="Group-17" transform="translate(0.000000, 1024.000000)">
                <g id="Page-1" transform="translate(968.000000, 193.000000)">
                    <path d="M15.058,8.81660606 C13.1319394,8.81660606 10.8070909,5.5929697 10.2925455,4.84327273 C10.8070909,4.09236364 13.1319394,0.870545455 15.058,0.870545455 C17.248303,0.870545455 19.0301212,2.6529697 19.0301212,4.84327273 C19.0301212,7.03418182 17.248303,8.81660606 15.058,8.81660606 M4.84284848,8.82569697 C2.65254545,8.82569697 0.870727273,7.04266667 0.870727273,4.85236364 C0.870727273,2.66145455 2.65254545,0.878424242 4.84284848,0.878424242 C6.76890909,0.878424242 9.09375758,4.10327273 9.60890909,4.85236364 C9.09375758,5.60266667 6.76890909,8.82569697 4.84284848,8.82569697 M15.058,0.303272727 C12.9664848,0.303272727 10.678,3.30266667 9.94648485,4.34327273 C9.20830303,3.29418182 6.92769697,0.312363636 4.84284848,0.312363636 C2.33981818,0.312363636 0.302848485,2.34933333 0.302848485,4.85236364 C0.302848485,7.356 2.33981818,9.39236364 4.84284848,9.39236364 C6.93436364,9.39236364 9.22224242,6.3929697 9.95375758,5.35236364 C10.6913333,6.40145455 12.9731515,9.38327273 15.058,9.38327273 C17.5610303,9.38327273 19.598,7.34630303 19.598,4.84327273 C19.598,2.33963636 17.5610303,0.303272727 15.058,0.303272727" id="Fill-1" fill="#FF836F"></path>
                    <path d="M15.058,8.81660606 C13.1319394,8.81660606 10.8070909,5.5929697 10.2925455,4.84327273 C10.8070909,4.09236364 13.1319394,0.870545455 15.058,0.870545455 C17.248303,0.870545455 19.0301212,2.6529697 19.0301212,4.84327273 C19.0301212,7.03418182 17.248303,8.81660606 15.058,8.81660606 Z M4.84284848,8.82569697 C2.65254545,8.82569697 0.870727273,7.04266667 0.870727273,4.85236364 C0.870727273,2.66145455 2.65254545,0.878424242 4.84284848,0.878424242 C6.76890909,0.878424242 9.09375758,4.10327273 9.60890909,4.85236364 C9.09375758,5.60266667 6.76890909,8.82569697 4.84284848,8.82569697 Z M15.058,0.303272727 C12.9664848,0.303272727 10.678,3.30266667 9.94648485,4.34327273 C9.20830303,3.29418182 6.92769697,0.312363636 4.84284848,0.312363636 C2.33981818,0.312363636 0.302848485,2.34933333 0.302848485,4.85236364 C0.302848485,7.356 2.33981818,9.39236364 4.84284848,9.39236364 C6.93436364,9.39236364 9.22224242,6.3929697 9.95375758,5.35236364 C10.6913333,6.40145455 12.9731515,9.38327273 15.058,9.38327273 C17.5610303,9.38327273 19.598,7.34630303 19.598,4.84327273 C19.598,2.33963636 17.5610303,0.303272727 15.058,0.303272727 Z" id="Stroke-3" stroke="#FF836F"></path>
                </g>
            </g>
        </g>
    </g>
</svg>